<?xml version="1.0" encoding="utf-8" standalone="no"?>
<!DOCTYPE svg PUBLIC "-//W3C//DTD SVG 1.1//EN"
  "http://www.w3.org/Graphics/SVG/1.1/DTD/svg11.dtd">
<svg xmlns:xlink="http://www.w3.org/1999/xlink" width="217.699312pt" height="243.678062pt" viewBox="0 0 217.699312 243.678062" xmlns="http://www.w3.org/2000/svg" version="1.1">
 <metadata>
  <rdf:RDF xmlns:dc="http://purl.org/dc/elements/1.1/" xmlns:cc="http://creativecommons.org/ns#" xmlns:rdf="http://www.w3.org/1999/02/22-rdf-syntax-ns#">
   <cc:Work>
    <dc:type rdf:resource="http://purl.org/dc/dcmitype/StillImage"/>
    <dc:date>2023-09-28T17:31:54.085351</dc:date>
    <dc:format>image/svg+xml</dc:format>
    <dc:creator>
     <cc:Agent>
      <dc:title>Matplotlib v3.7.2, https://matplotlib.org/</dc:title>
     </cc:Agent>
    </dc:creator>
   </cc:Work>
  </rdf:RDF>
 </metadata>
 <defs>
  <style type="text/css">*{stroke-linejoin: round; stroke-linecap: butt}</style>
 </defs>
 <g id="figure_1">
  <g id="patch_1">
   <path d="M 0 243.678062 
L 217.699312 243.678062 
L 217.699312 0 
L 0 0 
L 0 243.678062 
z
" style="fill: none"/>
  </g>
  <g id="axes_1">
   <g id="patch_2">
    <path d="M 54.456812 197.46 
L 193.956813 197.46 
L 193.956813 7.2 
L 54.456812 7.2 
z
" style="fill: #ffffff"/>
   </g>
   <g id="matplotlib.axis_1">
    <g id="xtick_1">
     <g id="text_1">
      <!-- 0 -->
      <g style="fill: #262626" transform="translate(50.321188 215.837969) scale(0.13 -0.13)">
       <defs>
        <path id="DejaVuSans-30" d="M 2034 4250 
Q 1547 4250 1301 3770 
Q 1056 3291 1056 2328 
Q 1056 1369 1301 889 
Q 1547 409 2034 409 
Q 2525 409 2770 889 
Q 3016 1369 3016 2328 
Q 3016 3291 2770 3770 
Q 2525 4250 2034 4250 
z
M 2034 4750 
Q 2819 4750 3233 4129 
Q 3647 3509 3647 2328 
Q 3647 1150 3233 529 
Q 2819 -91 2034 -91 
Q 1250 -91 836 529 
Q 422 1150 422 2328 
Q 422 3509 836 4129 
Q 1250 4750 2034 4750 
z
" transform="scale(0.015625)"/>
       </defs>
       <use xlink:href="#DejaVuSans-30"/>
      </g>
     </g>
    </g>
    <g id="xtick_2">
     <g id="text_2">
      <!-- 1000 -->
      <g style="fill: #262626" transform="translate(107.664312 215.837969) scale(0.13 -0.13)">
       <defs>
        <path id="DejaVuSans-31" d="M 794 531 
L 1825 531 
L 1825 4091 
L 703 3866 
L 703 4441 
L 1819 4666 
L 2450 4666 
L 2450 531 
L 3481 531 
L 3481 0 
L 794 0 
L 794 531 
z
" transform="scale(0.015625)"/>
       </defs>
       <use xlink:href="#DejaVuSans-31"/>
       <use xlink:href="#DejaVuSans-30" x="63.623047"/>
       <use xlink:href="#DejaVuSans-30" x="127.246094"/>
       <use xlink:href="#DejaVuSans-30" x="190.869141"/>
      </g>
     </g>
    </g>
    <g id="xtick_3">
     <g id="text_3">
      <!-- 2000 -->
      <g style="fill: #262626" transform="translate(177.414313 215.837969) scale(0.13 -0.13)">
       <defs>
        <path id="DejaVuSans-32" d="M 1228 531 
L 3431 531 
L 3431 0 
L 469 0 
L 469 531 
Q 828 903 1448 1529 
Q 2069 2156 2228 2338 
Q 2531 2678 2651 2914 
Q 2772 3150 2772 3378 
Q 2772 3750 2511 3984 
Q 2250 4219 1831 4219 
Q 1534 4219 1204 4116 
Q 875 4013 500 3803 
L 500 4441 
Q 881 4594 1212 4672 
Q 1544 4750 1819 4750 
Q 2544 4750 2975 4387 
Q 3406 4025 3406 3419 
Q 3406 3131 3298 2873 
Q 3191 2616 2906 2266 
Q 2828 2175 2409 1742 
Q 1991 1309 1228 531 
z
" transform="scale(0.015625)"/>
       </defs>
       <use xlink:href="#DejaVuSans-32"/>
       <use xlink:href="#DejaVuSans-30" x="63.623047"/>
       <use xlink:href="#DejaVuSans-30" x="127.246094"/>
       <use xlink:href="#DejaVuSans-30" x="190.869141"/>
      </g>
     </g>
    </g>
    <g id="text_4">
     <!-- epoch -->
     <g style="fill: #262626" transform="translate(102.278312 233.483312) scale(0.144 -0.144)">
      <defs>
       <path id="DejaVuSans-65" d="M 3597 1894 
L 3597 1613 
L 953 1613 
Q 991 1019 1311 708 
Q 1631 397 2203 397 
Q 2534 397 2845 478 
Q 3156 559 3463 722 
L 3463 178 
Q 3153 47 2828 -22 
Q 2503 -91 2169 -91 
Q 1331 -91 842 396 
Q 353 884 353 1716 
Q 353 2575 817 3079 
Q 1281 3584 2069 3584 
Q 2775 3584 3186 3129 
Q 3597 2675 3597 1894 
z
M 3022 2063 
Q 3016 2534 2758 2815 
Q 2500 3097 2075 3097 
Q 1594 3097 1305 2825 
Q 1016 2553 972 2059 
L 3022 2063 
z
" transform="scale(0.015625)"/>
       <path id="DejaVuSans-70" d="M 1159 525 
L 1159 -1331 
L 581 -1331 
L 581 3500 
L 1159 3500 
L 1159 2969 
Q 1341 3281 1617 3432 
Q 1894 3584 2278 3584 
Q 2916 3584 3314 3078 
Q 3713 2572 3713 1747 
Q 3713 922 3314 415 
Q 2916 -91 2278 -91 
Q 1894 -91 1617 61 
Q 1341 213 1159 525 
z
M 3116 1747 
Q 3116 2381 2855 2742 
Q 2594 3103 2138 3103 
Q 1681 3103 1420 2742 
Q 1159 2381 1159 1747 
Q 1159 1113 1420 752 
Q 1681 391 2138 391 
Q 2594 391 2855 752 
Q 3116 1113 3116 1747 
z
" transform="scale(0.015625)"/>
       <path id="DejaVuSans-6f" d="M 1959 3097 
Q 1497 3097 1228 2736 
Q 959 2375 959 1747 
Q 959 1119 1226 758 
Q 1494 397 1959 397 
Q 2419 397 2687 759 
Q 2956 1122 2956 1747 
Q 2956 2369 2687 2733 
Q 2419 3097 1959 3097 
z
M 1959 3584 
Q 2709 3584 3137 3096 
Q 3566 2609 3566 1747 
Q 3566 888 3137 398 
Q 2709 -91 1959 -91 
Q 1206 -91 779 398 
Q 353 888 353 1747 
Q 353 2609 779 3096 
Q 1206 3584 1959 3584 
z
" transform="scale(0.015625)"/>
       <path id="DejaVuSans-63" d="M 3122 3366 
L 3122 2828 
Q 2878 2963 2633 3030 
Q 2388 3097 2138 3097 
Q 1578 3097 1268 2742 
Q 959 2388 959 1747 
Q 959 1106 1268 751 
Q 1578 397 2138 397 
Q 2388 397 2633 464 
Q 2878 531 3122 666 
L 3122 134 
Q 2881 22 2623 -34 
Q 2366 -91 2075 -91 
Q 1284 -91 818 406 
Q 353 903 353 1747 
Q 353 2603 823 3093 
Q 1294 3584 2113 3584 
Q 2378 3584 2631 3529 
Q 2884 3475 3122 3366 
z
" transform="scale(0.015625)"/>
       <path id="DejaVuSans-68" d="M 3513 2113 
L 3513 0 
L 2938 0 
L 2938 2094 
Q 2938 2591 2744 2837 
Q 2550 3084 2163 3084 
Q 1697 3084 1428 2787 
Q 1159 2491 1159 1978 
L 1159 0 
L 581 0 
L 581 4863 
L 1159 4863 
L 1159 2956 
Q 1366 3272 1645 3428 
Q 1925 3584 2291 3584 
Q 2894 3584 3203 3211 
Q 3513 2838 3513 2113 
z
" transform="scale(0.015625)"/>
      </defs>
      <use xlink:href="#DejaVuSans-65"/>
      <use xlink:href="#DejaVuSans-70" x="61.523438"/>
      <use xlink:href="#DejaVuSans-6f" x="125"/>
      <use xlink:href="#DejaVuSans-63" x="186.181641"/>
      <use xlink:href="#DejaVuSans-68" x="241.162109"/>
     </g>
    </g>
   </g>
   <g id="matplotlib.axis_2">
    <g id="ytick_1">
     <g id="text_5">
      <!-- 0.0 -->
      <g style="fill: #262626" transform="translate(25.28275 190.771569) scale(0.13 -0.13)">
       <defs>
        <path id="DejaVuSans-2e" d="M 684 794 
L 1344 794 
L 1344 0 
L 684 0 
L 684 794 
z
" transform="scale(0.015625)"/>
       </defs>
       <use xlink:href="#DejaVuSans-30"/>
       <use xlink:href="#DejaVuSans-2e" x="63.623047"/>
       <use xlink:href="#DejaVuSans-30" x="95.410156"/>
      </g>
     </g>
    </g>
    <g id="ytick_2">
     <g id="text_6">
      <!-- 0.2 -->
      <g style="fill: #262626" transform="translate(25.28275 156.774689) scale(0.13 -0.13)">
       <use xlink:href="#DejaVuSans-30"/>
       <use xlink:href="#DejaVuSans-2e" x="63.623047"/>
       <use xlink:href="#DejaVuSans-32" x="95.410156"/>
      </g>
     </g>
    </g>
    <g id="ytick_3">
     <g id="text_7">
      <!-- 0.4 -->
      <g style="fill: #262626" transform="translate(25.28275 122.777808) scale(0.13 -0.13)">
       <defs>
        <path id="DejaVuSans-34" d="M 2419 4116 
L 825 1625 
L 2419 1625 
L 2419 4116 
z
M 2253 4666 
L 3047 4666 
L 3047 1625 
L 3713 1625 
L 3713 1100 
L 3047 1100 
L 3047 0 
L 2419 0 
L 2419 1100 
L 313 1100 
L 313 1709 
L 2253 4666 
z
" transform="scale(0.015625)"/>
       </defs>
       <use xlink:href="#DejaVuSans-30"/>
       <use xlink:href="#DejaVuSans-2e" x="63.623047"/>
       <use xlink:href="#DejaVuSans-34" x="95.410156"/>
      </g>
     </g>
    </g>
    <g id="ytick_4">
     <g id="text_8">
      <!-- 0.6 -->
      <g style="fill: #262626" transform="translate(25.28275 88.780927) scale(0.13 -0.13)">
       <defs>
        <path id="DejaVuSans-36" d="M 2113 2584 
Q 1688 2584 1439 2293 
Q 1191 2003 1191 1497 
Q 1191 994 1439 701 
Q 1688 409 2113 409 
Q 2538 409 2786 701 
Q 3034 994 3034 1497 
Q 3034 2003 2786 2293 
Q 2538 2584 2113 2584 
z
M 3366 4563 
L 3366 3988 
Q 3128 4100 2886 4159 
Q 2644 4219 2406 4219 
Q 1781 4219 1451 3797 
Q 1122 3375 1075 2522 
Q 1259 2794 1537 2939 
Q 1816 3084 2150 3084 
Q 2853 3084 3261 2657 
Q 3669 2231 3669 1497 
Q 3669 778 3244 343 
Q 2819 -91 2113 -91 
Q 1303 -91 875 529 
Q 447 1150 447 2328 
Q 447 3434 972 4092 
Q 1497 4750 2381 4750 
Q 2619 4750 2861 4703 
Q 3103 4656 3366 4563 
z
" transform="scale(0.015625)"/>
       </defs>
       <use xlink:href="#DejaVuSans-30"/>
       <use xlink:href="#DejaVuSans-2e" x="63.623047"/>
       <use xlink:href="#DejaVuSans-36" x="95.410156"/>
      </g>
     </g>
    </g>
    <g id="ytick_5">
     <g id="text_9">
      <!-- 0.8 -->
      <g style="fill: #262626" transform="translate(25.28275 54.784047) scale(0.13 -0.13)">
       <defs>
        <path id="DejaVuSans-38" d="M 2034 2216 
Q 1584 2216 1326 1975 
Q 1069 1734 1069 1313 
Q 1069 891 1326 650 
Q 1584 409 2034 409 
Q 2484 409 2743 651 
Q 3003 894 3003 1313 
Q 3003 1734 2745 1975 
Q 2488 2216 2034 2216 
z
M 1403 2484 
Q 997 2584 770 2862 
Q 544 3141 544 3541 
Q 544 4100 942 4425 
Q 1341 4750 2034 4750 
Q 2731 4750 3128 4425 
Q 3525 4100 3525 3541 
Q 3525 3141 3298 2862 
Q 3072 2584 2669 2484 
Q 3125 2378 3379 2068 
Q 3634 1759 3634 1313 
Q 3634 634 3220 271 
Q 2806 -91 2034 -91 
Q 1263 -91 848 271 
Q 434 634 434 1313 
Q 434 1759 690 2068 
Q 947 2378 1403 2484 
z
M 1172 3481 
Q 1172 3119 1398 2916 
Q 1625 2713 2034 2713 
Q 2441 2713 2670 2916 
Q 2900 3119 2900 3481 
Q 2900 3844 2670 4047 
Q 2441 4250 2034 4250 
Q 1625 4250 1398 4047 
Q 1172 3844 1172 3481 
z
" transform="scale(0.015625)"/>
       </defs>
       <use xlink:href="#DejaVuSans-30"/>
       <use xlink:href="#DejaVuSans-2e" x="63.623047"/>
       <use xlink:href="#DejaVuSans-38" x="95.410156"/>
      </g>
     </g>
    </g>
    <g id="ytick_6">
     <g id="text_10">
      <!-- 1.0 -->
      <g style="fill: #262626" transform="translate(25.28275 20.787166) scale(0.13 -0.13)">
       <use xlink:href="#DejaVuSans-31"/>
       <use xlink:href="#DejaVuSans-2e" x="63.623047"/>
       <use xlink:href="#DejaVuSans-30" x="95.410156"/>
      </g>
     </g>
    </g>
    <g id="text_11">
     <!-- A_000 -->
     <g style="fill: #262626" transform="translate(17.8875 124.59825) rotate(-90) scale(0.144 -0.144)">
      <defs>
       <path id="DejaVuSans-41" d="M 2188 4044 
L 1331 1722 
L 3047 1722 
L 2188 4044 
z
M 1831 4666 
L 2547 4666 
L 4325 0 
L 3669 0 
L 3244 1197 
L 1141 1197 
L 716 0 
L 50 0 
L 1831 4666 
z
" transform="scale(0.015625)"/>
       <path id="DejaVuSans-5f" d="M 3263 -1063 
L 3263 -1509 
L -63 -1509 
L -63 -1063 
L 3263 -1063 
z
" transform="scale(0.015625)"/>
      </defs>
      <use xlink:href="#DejaVuSans-41"/>
      <use xlink:href="#DejaVuSans-5f" x="68.408203"/>
      <use xlink:href="#DejaVuSans-30" x="118.408203"/>
      <use xlink:href="#DejaVuSans-30" x="182.03125"/>
      <use xlink:href="#DejaVuSans-30" x="245.654297"/>
     </g>
    </g>
   </g>
   <g id="PolyCollection_1"/>
   <g id="PolyCollection_2"/>
   <g id="PolyCollection_3"/>
   <g id="PolyCollection_4"/>
   <g id="PolyCollection_5"/>
   <g id="PolyCollection_6"/>
   <g id="PolyCollection_7"/>
   <g id="PolyCollection_8"/>
   <g id="PolyCollection_9"/>
   <g id="PolyCollection_10"/>
   <g id="PolyCollection_11"/>
   <g id="PolyCollection_12"/>
   <g id="PolyCollection_13"/>
   <g id="PolyCollection_14"/>
   <g id="PolyCollection_15"/>
   <g id="PolyCollection_16"/>
   <g id="PolyCollection_17"/>
   <g id="PolyCollection_18"/>
   <g id="PolyCollection_19"/>
   <g id="PolyCollection_20"/>
   <g id="PolyCollection_21"/>
   <g id="PolyCollection_22"/>
   <g id="PolyCollection_23"/>
   <g id="PolyCollection_24"/>
   <g id="PolyCollection_25"/>
   <g id="PolyCollection_26"/>
   <g id="PolyCollection_27"/>
   <g id="line2d_1">
    <path d="M 54.456812 15.848182 
L 193.956813 15.848182 
" clip-path="url(#pd532a74885)" style="fill: none; stroke-dasharray: 6.475,2.8; stroke-dashoffset: 0; stroke: #9acd32; stroke-opacity: 0.8; stroke-width: 1.75"/>
   </g>
   <g id="line2d_2">
    <path d="M 54.456812 185.615646 
L 54.805563 186.192567 
L 55.154312 186.399618 
L 56.549312 186.338686 
L 70.150563 185.927675 
L 84.100562 185.887404 
L 115.836813 185.845551 
L 132.576813 185.848032 
L 155.594313 185.849346 
L 193.956813 185.846091 
L 193.956813 185.846091 
" clip-path="url(#pd532a74885)" style="fill: none; stroke: #625d5d; stroke-width: 2.5; stroke-linecap: round"/>
   </g>
   <g id="line2d_3">
    <path d="M 54.456812 185.791447 
L 55.154312 185.848707 
L 55.503062 186.073623 
L 55.851813 185.888654 
L 56.549312 185.868326 
L 56.898062 185.800279 
L 57.595562 185.91609 
L 57.944312 185.792704 
L 58.990562 185.880173 
L 59.688063 185.825459 
L 60.385562 185.851486 
L 63.175562 185.809971 
L 65.268062 185.876501 
L 65.616812 185.802031 
L 66.314312 185.824645 
L 68.755562 185.841577 
L 74.335562 185.792916 
L 74.684313 185.880589 
L 75.381812 185.819344 
L 80.613062 185.894251 
L 82.008062 185.813682 
L 82.356813 185.881406 
L 83.054313 185.812656 
L 84.100562 185.879016 
L 84.798063 185.849457 
L 86.193062 185.814092 
L 86.541812 185.879924 
L 87.239313 185.835228 
L 93.168063 185.829481 
L 94.214313 185.8703 
L 95.260562 185.856583 
L 97.004312 185.835696 
L 98.050563 185.830866 
L 99.096812 185.901386 
L 99.445562 185.837859 
L 99.794313 185.895215 
L 100.143062 185.804116 
L 100.840563 185.913243 
L 101.189312 185.819088 
L 101.886813 185.869292 
L 103.281813 185.812646 
L 103.979313 185.817866 
L 105.723062 185.852885 
L 107.815562 185.823421 
L 110.256812 185.858238 
L 111.303063 185.8037 
L 114.790563 185.824185 
L 116.185563 185.857384 
L 117.231813 185.841173 
L 118.626812 185.889998 
L 118.975563 185.803893 
L 119.673063 185.904722 
L 120.719313 185.826298 
L 121.416813 185.845675 
L 126.299312 185.833149 
L 145.829313 185.807718 
L 146.178063 185.895518 
L 146.875563 185.821107 
L 149.316813 185.868708 
L 150.014313 185.840249 
L 150.711813 185.825682 
L 155.943062 185.832243 
L 158.733063 185.846723 
L 159.779313 185.865574 
L 160.825562 185.831179 
L 163.964313 185.830996 
L 165.708063 185.849885 
L 167.103063 185.843404 
L 179.658063 185.849239 
L 181.401813 185.826485 
L 193.956813 185.828932 
L 193.956813 185.828932 
" clip-path="url(#pd532a74885)" style="fill: none; stroke: #625d5d; stroke-width: 2.5; stroke-linecap: round"/>
   </g>
   <g id="line2d_4">
    <path d="M 54.456812 185.920771 
L 55.154312 185.828619 
L 84.449313 185.805396 
L 85.495563 185.874373 
L 86.193062 185.802199 
L 86.890563 185.839003 
L 87.936813 185.813199 
L 88.285562 185.899926 
L 89.680563 185.83775 
L 94.563063 185.860592 
L 95.260562 185.810328 
L 96.306813 185.891701 
L 97.701813 185.83322 
L 99.445562 185.826575 
L 106.071812 185.825382 
L 107.466813 185.829347 
L 111.651813 185.803867 
L 112.349312 185.826576 
L 113.744313 185.835323 
L 115.836813 185.823097 
L 116.185563 185.874029 
L 116.534312 185.79976 
L 117.231813 185.814293 
L 121.068063 185.839107 
L 121.765563 185.829049 
L 123.160562 185.847639 
L 123.858063 185.799019 
L 124.904313 185.850179 
L 125.950563 185.749144 
L 126.299312 185.879332 
L 130.484312 185.825138 
L 133.623063 185.833697 
L 133.971812 185.745964 
L 134.669312 185.880887 
L 135.366813 185.82863 
L 136.761813 185.814331 
L 138.156813 185.791039 
L 138.854312 185.856788 
L 139.203062 185.77994 
L 139.551813 185.86487 
L 140.946813 185.815959 
L 141.644313 185.803382 
L 143.736812 185.848961 
L 144.783062 185.839589 
L 147.573062 185.806754 
L 148.270563 185.864583 
L 150.014313 185.808499 
L 150.711813 185.882252 
L 151.060563 185.799228 
L 152.106812 185.844121 
L 176.170563 185.843498 
L 176.519313 185.904762 
L 177.216813 185.800099 
L 180.355563 185.83285 
L 181.053063 185.821977 
L 182.099312 185.841764 
L 183.843063 185.842187 
L 188.376813 185.80652 
L 189.074313 185.81037 
L 190.120563 185.84083 
L 191.864312 185.848541 
L 193.956813 185.811323 
L 193.956813 185.811323 
" clip-path="url(#pd532a74885)" style="fill: none; stroke: #625d5d; stroke-width: 2.5; stroke-linecap: round"/>
   </g>
   <g id="line2d_5">
    <path d="M 54.456812 185.559268 
L 55.503062 183.870236 
L 55.851813 183.846989 
L 56.200562 184.161982 
L 56.898062 185.348459 
L 57.246812 185.990961 
L 57.944312 186.256769 
L 58.641813 186.538585 
L 61.780563 188.265936 
L 63.175562 188.648499 
L 64.570562 188.801776 
L 66.314312 188.76425 
L 68.755562 188.442572 
L 72.940562 187.608866 
L 80.264313 186.166858 
L 82.705562 185.849566 
L 87.239313 185.846831 
L 110.954313 185.848557 
L 115.836813 185.865441 
L 118.975563 185.859134 
L 128.043063 185.848352 
L 131.181813 185.846267 
L 146.526813 185.85581 
L 147.573062 185.870027 
L 149.316813 185.838092 
L 157.338063 185.870626 
L 158.733063 185.84751 
L 193.956813 185.874249 
L 193.956813 185.874249 
" clip-path="url(#pd532a74885)" style="fill: none; stroke: #625d5d; stroke-width: 2.5; stroke-linecap: round"/>
   </g>
   <g id="line2d_6">
    <path d="M 54.456812 185.743084 
L 55.503062 185.821448 
L 64.919313 185.832072 
L 65.268062 185.871115 
L 65.965563 185.827037 
L 72.243063 185.775134 
L 72.591813 185.892461 
L 72.940562 185.765127 
L 73.638063 185.842661 
L 140.598063 185.845201 
L 140.946813 185.892771 
L 141.295563 185.783185 
L 141.644313 185.869742 
L 141.993063 185.80342 
L 142.690562 185.859742 
L 143.736812 185.815519 
L 144.783062 185.843663 
L 145.829313 185.829821 
L 147.573062 185.843191 
L 148.270563 185.810801 
L 149.316813 185.864439 
L 151.409312 185.801792 
L 152.106812 185.876131 
L 153.850563 185.761019 
L 154.896813 185.865822 
L 156.640562 185.820637 
L 157.338063 185.848564 
L 158.035563 185.803259 
L 159.081813 185.814352 
L 165.359312 185.840092 
L 166.405563 185.822508 
L 171.985563 185.839082 
L 172.334313 185.896817 
L 172.683063 185.778769 
L 173.031813 185.871443 
L 173.729312 185.819888 
L 175.473063 185.854409 
L 175.821813 185.790255 
L 176.868063 185.861298 
L 177.565562 185.838965 
L 179.309313 185.828095 
L 193.956813 185.794746 
L 193.956813 185.794746 
" clip-path="url(#pd532a74885)" style="fill: none; stroke: #625d5d; stroke-width: 2.5; stroke-linecap: round"/>
   </g>
   <g id="line2d_7">
    <path d="M 54.456812 185.924097 
L 55.503062 185.852072 
L 56.549312 185.857799 
L 63.175562 185.860767 
L 63.524313 185.792722 
L 64.221812 185.826031 
L 67.011813 185.859912 
L 72.243063 185.878431 
L 72.591813 185.792427 
L 73.638063 185.879459 
L 73.986812 185.793412 
L 75.033062 185.880315 
L 75.381812 185.79423 
L 76.428062 185.881002 
L 76.776813 185.794887 
L 78.171813 185.8622 
L 78.869313 185.824829 
L 79.915562 185.802831 
L 81.310563 185.86422 
L 82.705562 185.831113 
L 85.495563 185.803548 
L 86.193062 185.868512 
L 86.541812 185.803326 
L 86.890563 185.885548 
L 88.285562 185.76303 
L 88.634312 185.852574 
L 88.983063 185.76959 
L 89.680563 185.839542 
L 90.726812 185.832011 
L 92.819312 185.839747 
L 135.366813 185.842292 
L 136.761813 185.825483 
L 145.480563 185.837883 
L 145.829313 185.797038 
L 146.178063 185.875065 
L 147.224312 185.833608 
L 149.665563 185.816156 
L 150.711813 185.828843 
L 152.455563 185.832209 
L 164.661812 185.837632 
L 167.103063 185.859955 
L 167.800563 185.819062 
L 171.288063 185.835333 
L 172.334313 185.839104 
L 176.868063 185.839163 
L 193.956813 185.835528 
L 193.956813 185.835528 
" clip-path="url(#pd532a74885)" style="fill: none; stroke: #625d5d; stroke-width: 2.5; stroke-linecap: round"/>
   </g>
   <g id="line2d_8">
    <path d="M 54.456812 185.600284 
L 54.805563 186.095746 
L 55.154312 186.21006 
L 57.246812 185.787682 
L 64.570562 185.832592 
L 193.956813 185.837136 
L 193.956813 185.837136 
" clip-path="url(#pd532a74885)" style="fill: none; stroke: #625d5d; stroke-width: 2.5; stroke-linecap: round"/>
   </g>
   <g id="line2d_9">
    <path d="M 54.456812 185.752375 
L 54.805563 185.912875 
L 56.200562 185.835514 
L 56.898062 185.86512 
L 59.339312 185.81513 
L 60.734313 185.854653 
L 61.780563 185.814231 
L 62.826813 185.840128 
L 64.221812 185.811394 
L 67.360563 185.851607 
L 68.406813 185.805059 
L 68.755562 185.904141 
L 69.104312 185.785548 
L 71.545563 185.831975 
L 75.381812 185.810626 
L 76.079313 185.879659 
L 76.428062 185.782597 
L 77.125563 185.805061 
L 83.054313 185.861649 
L 83.751812 185.82902 
L 85.495563 185.868646 
L 85.844313 185.788796 
L 86.193062 185.875577 
L 87.239313 185.771377 
L 87.588063 185.864162 
L 87.936813 185.809271 
L 88.285562 185.904981 
L 88.983063 185.813402 
L 90.378062 185.821983 
L 90.726812 185.877531 
L 91.424312 185.824085 
L 91.773063 185.783961 
L 92.121813 185.864121 
L 92.819312 185.812474 
L 93.865563 185.892098 
L 94.911812 185.799827 
L 96.306813 185.825687 
L 96.655563 185.782804 
L 97.353062 185.880311 
L 97.701813 185.763311 
L 98.050563 185.910697 
L 98.748063 185.821345 
L 102.235563 185.84534 
L 108.861813 185.844889 
L 110.256812 185.866379 
L 113.046813 185.845986 
L 117.929313 185.823589 
L 118.278063 185.775047 
L 119.324313 185.87505 
L 120.021813 185.820856 
L 121.068063 185.834768 
L 121.416813 185.795491 
L 121.765563 185.908894 
L 122.114313 185.781455 
L 122.811813 185.882876 
L 123.160562 185.775661 
L 123.858063 185.861914 
L 124.555563 185.864117 
L 125.601813 185.88565 
L 126.648063 185.778748 
L 127.345562 185.802955 
L 193.956813 185.835223 
L 193.956813 185.835223 
" clip-path="url(#pd532a74885)" style="fill: none; stroke: #ff7f50; stroke-width: 2.5; stroke-linecap: round"/>
   </g>
   <g id="line2d_10">
    <path d="M 54.456812 185.922954 
L 55.851813 185.823032 
L 80.264313 185.831286 
L 80.961813 185.834018 
L 84.798063 185.854384 
L 86.541812 185.809269 
L 88.983063 185.832402 
L 89.680563 185.828007 
L 92.470562 185.820697 
L 110.605563 185.809324 
L 111.651813 185.849316 
L 112.698063 185.81774 
L 113.395563 185.846542 
L 114.093063 185.809218 
L 114.790563 185.827329 
L 129.786812 185.80363 
L 130.135562 185.871269 
L 131.181813 185.815284 
L 132.228063 185.839371 
L 133.623063 185.830212 
L 135.018062 185.857788 
L 139.203062 185.838494 
L 140.598063 185.855538 
L 150.014313 185.847193 
L 150.363063 185.771047 
L 150.711813 185.853031 
L 151.758062 185.817763 
L 155.943062 185.867636 
L 156.291812 185.799388 
L 156.640562 185.867437 
L 156.989313 185.806107 
L 157.686813 185.845393 
L 158.384313 185.820393 
L 159.430563 185.84251 
L 161.174313 185.832717 
L 163.964313 185.803958 
L 165.010562 185.829864 
L 166.754313 185.813034 
L 168.149313 185.829644 
L 193.956813 185.84406 
L 193.956813 185.84406 
" clip-path="url(#pd532a74885)" style="fill: none; stroke: #625d5d; stroke-width: 2.5; stroke-linecap: round"/>
   </g>
   <g id="line2d_11">
    <path d="M 54.456812 185.520033 
L 55.154312 184.691116 
L 55.503062 184.6745 
L 56.549312 184.9445 
L 60.036812 185.301687 
L 64.919313 185.50534 
L 69.104312 185.713422 
L 74.335562 185.842138 
L 81.310563 185.94279 
L 95.609313 186.061423 
L 123.509313 186.078498 
L 173.031813 186.053939 
L 193.956813 186.067404 
L 193.956813 186.067404 
" clip-path="url(#pd532a74885)" style="fill: none; stroke: #625d5d; stroke-width: 2.5; stroke-linecap: round"/>
   </g>
   <g id="line2d_12">
    <path d="M 54.456812 185.749153 
L 55.154312 185.919664 
L 55.503062 185.839005 
L 55.851813 185.924063 
L 56.549312 185.823345 
L 57.595562 185.851035 
L 60.734313 185.834804 
L 61.780563 185.841907 
L 63.175562 185.827842 
L 64.221812 185.88309 
L 64.570562 185.798864 
L 66.314312 185.878601 
L 67.011813 185.807851 
L 67.709312 185.828084 
L 72.243063 185.838397 
L 73.289312 185.82749 
L 75.033062 185.836426 
L 80.264313 185.817195 
L 80.961813 185.834111 
L 85.495563 185.855725 
L 87.239313 185.805494 
L 88.634312 185.883332 
L 89.680563 185.844855 
L 90.378062 185.870666 
L 91.075563 185.827786 
L 99.794313 185.817791 
L 104.676813 185.822636 
L 107.118063 185.889781 
L 107.466813 185.822843 
L 108.513063 185.868446 
L 114.441812 185.863574 
L 114.790563 185.906761 
L 115.139313 185.801455 
L 116.185563 185.889993 
L 116.883062 185.816936 
L 119.324313 185.872453 
L 120.370563 185.81704 
L 125.950563 185.814481 
L 126.299312 185.876329 
L 126.996813 185.845665 
L 135.715563 185.852433 
L 137.459313 185.833059 
L 140.598063 185.830044 
L 143.388062 185.83306 
L 144.085563 185.846012 
L 145.480563 185.836983 
L 146.526813 185.826541 
L 160.825562 185.82871 
L 168.149313 185.826179 
L 168.846812 185.843401 
L 169.893063 185.830072 
L 172.334313 185.805619 
L 173.031813 185.850271 
L 174.078063 185.813317 
L 177.565562 185.837463 
L 180.355563 185.846256 
L 181.053063 185.837065 
L 182.796812 185.827856 
L 185.586813 185.825325 
L 187.679313 185.827975 
L 192.910563 185.832413 
L 193.956813 185.870604 
L 193.956813 185.870604 
" clip-path="url(#pd532a74885)" style="fill: none; stroke: #625d5d; stroke-width: 2.5; stroke-linecap: round"/>
   </g>
   <g id="line2d_13">
    <path d="M 54.456812 185.921355 
L 55.154312 185.83122 
L 56.200562 185.846528 
L 56.549312 185.791815 
L 57.246812 185.832729 
L 57.944312 185.795885 
L 58.293062 185.862489 
L 58.990562 185.83361 
L 60.734313 185.827975 
L 63.175562 185.825446 
L 64.919313 185.858079 
L 66.663062 185.832411 
L 72.243063 185.822424 
L 72.591813 185.762701 
L 73.289312 185.857677 
L 74.335562 185.804693 
L 75.033062 185.819595 
L 105.374313 185.891251 
L 105.723062 185.764968 
L 106.071812 185.884861 
L 106.420563 185.782685 
L 108.164312 185.836564 
L 110.256812 185.832075 
L 118.975563 185.815255 
L 120.370563 185.809107 
L 122.811813 185.864851 
L 123.858063 185.810948 
L 124.206812 185.876804 
L 124.555563 185.797516 
L 124.904313 185.869493 
L 125.601813 185.834699 
L 138.156813 185.84799 
L 139.203062 185.85129 
L 139.900563 185.844252 
L 141.993063 185.838493 
L 148.270563 185.834155 
L 148.619313 185.876058 
L 148.968063 185.80486 
L 149.665563 185.843747 
L 150.711813 185.828921 
L 158.733063 185.819651 
L 159.081813 185.887203 
L 159.779313 185.823917 
L 160.825562 185.841202 
L 162.220563 185.819041 
L 163.615563 185.826029 
L 163.964313 185.76209 
L 164.661812 185.810771 
L 166.405563 185.859822 
L 167.103063 185.870969 
L 173.380562 185.819435 
L 174.078063 185.889167 
L 174.775563 185.835452 
L 177.216813 185.817244 
L 179.309313 185.891062 
L 179.658063 185.768221 
L 180.006813 185.881185 
L 180.355563 185.785042 
L 181.053063 185.825781 
L 191.166812 185.902805 
L 191.515562 185.804484 
L 193.608063 185.847345 
L 193.956813 185.776831 
L 193.956813 185.776831 
" clip-path="url(#pd532a74885)" style="fill: none; stroke: #625d5d; stroke-width: 2.5; stroke-linecap: round"/>
   </g>
   <g id="line2d_14">
    <path d="M 54.456812 185.326598 
L 55.851813 175.959184 
L 57.246812 168.26124 
L 58.641813 161.940355 
L 60.036812 156.693829 
L 61.431812 152.245449 
L 63.175562 147.532462 
L 64.919313 143.538985 
L 66.663062 140.10473 
L 68.406813 137.114271 
L 70.499313 133.995213 
L 72.591813 131.294566 
L 74.684313 128.953377 
L 76.776813 126.91549 
L 79.218063 124.845277 
L 81.659312 123.048458 
L 84.449313 121.28208 
L 87.239313 119.785163 
L 90.378062 118.357549 
L 93.865563 117.013355 
L 98.399313 115.528262 
L 105.025563 113.635109 
L 116.883062 110.272086 
L 123.160562 108.237016 
L 128.740563 106.204459 
L 134.320562 103.930692 
L 139.551813 101.563763 
L 144.783062 98.950356 
L 150.014313 96.077791 
L 155.245563 92.935486 
L 160.476812 89.508739 
L 165.708063 85.795544 
L 170.939313 81.794807 
L 176.170563 77.510945 
L 181.750563 72.638321 
L 186.981812 67.989651 
L 188.028063 67.439096 
L 189.423063 66.981328 
L 191.515562 66.645488 
L 193.956813 66.499153 
L 193.956813 66.499153 
" clip-path="url(#pd532a74885)" style="fill: none; stroke: #ff7f50; stroke-width: 2.5; stroke-linecap: round"/>
   </g>
   <g id="line2d_15">
    <path d="M 54.456812 185.722816 
L 54.805563 185.897028 
L 55.154312 185.792149 
L 56.200562 185.834729 
L 56.549312 185.7827 
L 56.898062 185.871725 
L 57.246812 185.793105 
L 58.293062 185.855819 
L 58.990562 185.826551 
L 59.688063 185.830001 
L 60.385562 185.877791 
L 193.956813 185.826669 
L 193.956813 185.826669 
" clip-path="url(#pd532a74885)" style="fill: none; stroke: #625d5d; stroke-width: 2.5; stroke-linecap: round"/>
   </g>
   <g id="line2d_16">
    <path d="M 54.456812 185.73998 
L 54.805563 185.864661 
L 55.503062 185.832297 
L 60.036812 185.813249 
L 61.083062 185.832924 
L 68.755562 185.845805 
L 69.104312 185.903292 
L 69.453063 185.811356 
L 70.499313 185.855265 
L 72.940562 185.832833 
L 74.335562 185.832017 
L 75.381812 185.830274 
L 76.428062 185.862568 
L 77.474312 185.814327 
L 78.520562 185.854591 
L 79.566812 185.806284 
L 80.613062 185.846753 
L 81.310563 185.844223 
L 83.751812 185.842356 
L 86.193062 185.857928 
L 86.890563 185.841693 
L 89.331812 185.800495 
L 89.680563 185.863503 
L 90.029313 185.796876 
L 90.726812 185.830231 
L 92.470562 185.80194 
L 93.516813 185.859834 
L 100.143062 185.862913 
L 101.538062 185.832472 
L 104.328063 185.844394 
L 193.956813 185.852507 
L 193.956813 185.852507 
" clip-path="url(#pd532a74885)" style="fill: none; stroke: #625d5d; stroke-width: 2.5; stroke-linecap: round"/>
   </g>
   <g id="line2d_17">
    <path d="M 54.456812 185.56231 
L 55.154312 185.508231 
L 56.200562 185.963574 
L 57.246812 185.881449 
L 58.293062 185.839641 
L 76.776813 185.830724 
L 87.239313 185.838853 
L 92.121813 185.835424 
L 105.025563 185.837896 
L 153.850563 185.835342 
L 166.056813 185.83696 
L 193.956813 185.835741 
L 193.956813 185.835741 
" clip-path="url(#pd532a74885)" style="fill: none; stroke: #625d5d; stroke-width: 2.5; stroke-linecap: round"/>
   </g>
   <g id="line2d_18">
    <path d="M 54.456812 185.746443 
L 55.851813 185.857172 
L 56.549312 185.836431 
L 57.944312 185.889577 
L 58.293062 185.768658 
L 58.990562 185.816789 
L 60.734313 185.827342 
L 61.780563 185.799796 
L 62.129312 185.910116 
L 63.524313 185.829377 
L 64.221812 185.838777 
L 65.616812 185.850547 
L 69.453063 185.827021 
L 81.310563 185.839746 
L 82.008062 185.846617 
L 83.751812 185.82975 
L 84.798063 185.852877 
L 85.844313 185.799723 
L 87.239313 185.833272 
L 87.936813 185.839253 
L 90.029313 185.863138 
L 91.075563 185.823317 
L 93.168063 185.79943 
L 94.214313 185.865764 
L 98.050563 185.849487 
L 98.399313 185.76667 
L 99.096812 185.859451 
L 99.445562 185.803429 
L 100.143062 185.883455 
L 100.491813 185.798335 
L 101.189312 185.852714 
L 101.538062 185.770295 
L 102.235563 185.862625 
L 102.584313 185.806493 
L 103.281813 185.88576 
L 103.630562 185.800476 
L 104.328063 185.854167 
L 104.676813 185.771987 
L 105.374313 185.86381 
L 105.723062 185.807462 
L 106.420563 185.886362 
L 106.769313 185.80093 
L 107.466813 185.85462 
L 107.815562 185.772253 
L 108.513063 185.864133 
L 108.861813 185.807749 
L 109.559313 185.886437 
L 109.908062 185.801254 
L 110.605563 185.855365 
L 110.954313 185.772362 
L 111.651813 185.86465 
L 112.000563 185.808708 
L 112.698063 185.887089 
L 113.046813 185.802038 
L 113.744313 185.856 
L 114.093063 185.773633 
L 114.790563 185.865271 
L 115.139313 185.80901 
L 115.836813 185.888092 
L 116.185563 185.802589 
L 116.883062 185.856408 
L 117.231813 185.774 
L 117.929313 185.865582 
L 118.278063 185.809359 
L 118.975563 185.888308 
L 119.324313 185.803119 
L 120.021813 185.856043 
L 120.370563 185.773926 
L 121.068063 185.865797 
L 121.416813 185.809392 
L 122.114313 185.888618 
L 122.463063 185.802904 
L 123.160562 185.856672 
L 123.509313 185.774166 
L 124.206812 185.865754 
L 124.555563 185.809584 
L 125.253062 185.888431 
L 125.601813 185.802547 
L 126.299312 185.856097 
L 126.648063 185.773644 
L 127.345562 185.865222 
L 127.694313 185.80871 
L 128.391813 185.887634 
L 128.740563 185.802082 
L 129.438063 185.855275 
L 129.786812 185.77282 
L 130.484312 185.863671 
L 130.833063 185.806892 
L 131.530563 185.885636 
L 131.879313 185.800228 
L 132.576813 185.853368 
L 132.925563 185.770323 
L 133.623063 185.861335 
L 133.971812 185.804836 
L 134.669312 185.883012 
L 135.018062 185.797061 
L 135.715563 185.850517 
L 136.064312 185.767693 
L 136.761813 185.858387 
L 137.110563 185.801849 
L 137.808063 185.879365 
L 138.156813 185.794058 
L 138.854312 185.788997 
L 145.480563 185.824524 
L 147.224312 185.819539 
L 148.270563 185.833123 
L 150.014313 185.847463 
L 156.291812 185.795691 
L 156.640562 185.870202 
L 157.338063 185.813867 
L 157.686813 185.887121 
L 158.384313 185.85455 
L 158.733063 185.881694 
L 159.430563 185.789515 
L 160.128062 185.859457 
L 172.683063 185.802639 
L 173.380562 185.885698 
L 173.729312 185.798419 
L 174.426813 185.848934 
L 174.775563 185.764404 
L 175.473063 185.821757 
L 176.868063 185.852671 
L 177.216813 185.879221 
L 177.914312 185.818701 
L 179.658063 185.819816 
L 180.355563 185.812675 
L 182.796812 185.854956 
L 183.494313 185.807698 
L 183.843063 185.880769 
L 184.540563 185.865008 
L 193.608063 185.851632 
L 193.956813 185.878072 
L 193.956813 185.878072 
" clip-path="url(#pd532a74885)" style="fill: none; stroke: #625d5d; stroke-width: 2.5; stroke-linecap: round"/>
   </g>
   <g id="line2d_19">
    <path d="M 54.456812 185.744545 
L 55.503062 185.814593 
L 56.549312 185.846755 
L 57.246812 185.822474 
L 59.339312 185.876762 
L 60.734313 185.832871 
L 62.129312 185.809731 
L 63.524313 185.8403 
L 64.919313 185.818997 
L 66.314312 185.850139 
L 67.709312 185.829603 
L 69.104312 185.833445 
L 70.150563 185.879579 
L 71.545563 185.81441 
L 72.243063 185.86029 
L 72.591813 185.793634 
L 73.289312 185.830012 
L 86.193062 185.839793 
L 86.541812 185.900962 
L 86.890563 185.813247 
L 87.239313 185.898753 
L 88.285562 185.832197 
L 97.004312 185.862434 
L 97.701813 185.82667 
L 99.096812 185.85198 
L 100.143062 185.803378 
L 101.189312 185.875971 
L 101.886813 185.818876 
L 104.676813 185.858054 
L 105.723062 185.821547 
L 107.815562 185.814083 
L 108.513063 185.826291 
L 117.929313 185.831609 
L 119.324313 185.876852 
L 119.673063 185.800828 
L 120.719313 185.818002 
L 126.299312 185.843649 
L 127.345562 185.821063 
L 128.391813 185.859309 
L 129.438063 185.823938 
L 130.833063 185.830206 
L 142.341813 185.862181 
L 143.039312 185.826799 
L 144.434313 185.852158 
L 145.480563 185.803563 
L 146.526813 185.846474 
L 184.540563 185.827132 
L 186.284312 185.84179 
L 189.074313 185.864605 
L 190.469313 185.856403 
L 192.561813 185.814797 
L 193.956813 185.810925 
L 193.956813 185.810925 
" clip-path="url(#pd532a74885)" style="fill: none; stroke: #625d5d; stroke-width: 2.5; stroke-linecap: round"/>
   </g>
   <g id="line2d_20">
    <path d="M 54.456812 185.519412 
L 55.154312 184.714193 
L 55.503062 184.70583 
L 56.549312 185.000971 
L 60.036812 185.456757 
L 65.268062 185.835123 
L 80.613062 185.844147 
L 118.278063 185.845106 
L 137.459313 185.844598 
L 163.266813 185.847512 
L 183.494313 185.84382 
L 193.956813 185.845012 
L 193.956813 185.845012 
" clip-path="url(#pd532a74885)" style="fill: none; stroke: #625d5d; stroke-width: 2.5; stroke-linecap: round"/>
   </g>
   <g id="line2d_21">
    <path d="M 54.456812 185.747421 
L 55.154312 185.836109 
L 58.293062 185.823931 
L 58.641813 185.900758 
L 59.688063 185.824276 
L 67.709312 185.83586 
L 71.196812 185.798917 
L 71.545563 185.902454 
L 72.243063 185.821249 
L 72.940562 185.777571 
L 73.289312 185.895934 
L 74.684313 185.779278 
L 75.033062 185.864556 
L 76.079313 185.843094 
L 77.823062 185.8309 
L 79.915562 185.820746 
L 86.541812 185.841125 
L 87.239313 185.859727 
L 89.680563 185.829108 
L 90.029313 185.886539 
L 90.726812 185.797898 
L 91.424312 185.829878 
L 93.865563 185.827957 
L 94.563063 185.835622 
L 101.538062 185.840303 
L 102.235563 185.8592 
L 102.584313 185.900662 
L 102.933063 185.804581 
L 104.328063 185.833969 
L 107.466813 185.828691 
L 107.815562 185.888301 
L 108.164312 185.790268 
L 108.861813 185.87545 
L 117.929313 185.833385 
L 118.626812 185.854389 
L 121.416813 185.823465 
L 124.206812 185.854766 
L 124.904313 185.845638 
L 126.648063 185.864346 
L 126.996813 185.771028 
L 127.694313 185.931895 
L 128.043063 185.836724 
L 129.089313 185.893754 
L 130.135562 185.82435 
L 131.181813 185.855664 
L 135.366813 185.822156 
L 136.761813 185.805845 
L 137.459313 185.888897 
L 138.156813 185.842829 
L 139.203062 185.873902 
L 159.430563 185.869996 
L 160.476812 185.871127 
L 161.174313 185.819428 
L 162.569313 185.827196 
L 167.451813 185.865556 
L 168.846812 185.89447 
L 170.241813 185.815215 
L 177.914312 185.843439 
L 179.309313 185.825115 
L 179.658063 185.870401 
L 180.355563 185.812159 
L 180.704313 185.900058 
L 181.750563 185.8456 
L 189.074313 185.799214 
L 189.423063 185.776606 
L 189.771813 185.868419 
L 191.515562 185.818886 
L 193.956813 185.851247 
L 193.956813 185.851247 
" clip-path="url(#pd532a74885)" style="fill: none; stroke: #625d5d; stroke-width: 2.5; stroke-linecap: round"/>
   </g>
   <g id="line2d_22">
    <path d="M 54.456812 185.922581 
L 55.154312 185.836788 
L 57.595562 185.836023 
L 59.688063 185.831056 
L 62.826813 185.83661 
L 63.873063 185.813059 
L 64.919313 185.851641 
L 65.965563 185.839499 
L 67.709312 185.824736 
L 70.848062 185.782512 
L 72.243063 185.814952 
L 73.986812 185.802971 
L 74.684313 185.842796 
L 76.428062 185.83258 
L 78.171813 185.82451 
L 78.520562 185.888675 
L 78.869313 185.8138 
L 79.218063 185.89887 
L 80.264313 185.845527 
L 82.008062 185.81274 
L 83.054313 185.84899 
L 84.100562 185.812904 
L 85.495563 185.825685 
L 93.168063 185.828458 
L 99.445562 185.815688 
L 99.794313 185.898229 
L 100.840563 185.847087 
L 102.235563 185.850117 
L 106.769313 185.825069 
L 107.815562 185.793931 
L 118.278063 185.857165 
L 118.975563 185.837753 
L 119.324313 185.909825 
L 120.370563 185.797589 
L 121.765563 185.851789 
L 123.160562 185.808804 
L 124.555563 185.828907 
L 131.530563 185.859496 
L 131.879313 185.79914 
L 132.576813 185.845168 
L 134.320562 185.80797 
L 136.064312 185.836169 
L 138.156813 185.83278 
L 143.736812 185.821501 
L 145.131813 185.836729 
L 193.956813 185.82086 
L 193.956813 185.82086 
" clip-path="url(#pd532a74885)" style="fill: none; stroke: #625d5d; stroke-width: 2.5; stroke-linecap: round"/>
   </g>
   <g id="line2d_23">
    <path d="M 54.456812 185.322611 
L 55.851813 175.950748 
L 57.246812 168.277308 
L 58.641813 162.00591 
L 60.036812 156.833578 
L 61.431812 152.482669 
L 62.826813 148.76785 
L 64.570562 144.824556 
L 66.314312 141.499046 
L 68.058063 138.668979 
L 69.801812 136.242536 
L 71.545563 134.155692 
L 73.289312 132.363432 
L 75.381812 130.563502 
L 77.474312 129.089985 
L 79.566812 127.887181 
L 81.659312 126.922162 
L 83.751812 126.171746 
L 86.193062 125.550348 
L 88.634312 125.169543 
L 91.075563 124.997529 
L 93.865563 125.02103 
L 97.004312 125.286631 
L 100.491813 125.828058 
L 104.328063 126.669716 
L 108.513063 127.828649 
L 113.046813 129.323261 
L 117.929313 131.173713 
L 122.811813 133.258738 
L 127.694313 135.582014 
L 132.576813 138.152077 
L 137.110563 140.774025 
L 141.644313 143.63794 
L 146.526813 147.001659 
L 151.060563 150.403327 
L 155.594313 154.082079 
L 160.128062 158.04049 
L 164.661812 162.287356 
L 169.195562 166.822754 
L 174.078063 172.028293 
L 178.960563 177.5606 
L 184.191813 183.835792 
L 185.586813 185.567169 
L 186.284312 185.785883 
L 186.633062 185.657129 
L 186.981812 185.832236 
L 189.074313 185.798234 
L 189.423063 185.64456 
L 190.120563 185.815591 
L 192.213063 185.730311 
L 192.561813 185.831402 
L 193.956813 185.736582 
L 193.956813 185.736582 
" clip-path="url(#pd532a74885)" style="fill: none; stroke: #625d5d; stroke-width: 2.5; stroke-linecap: round"/>
   </g>
   <g id="line2d_24">
    <path d="M 54.456812 185.910581 
L 55.503062 185.828929 
L 56.549312 185.842782 
L 60.036812 185.894136 
L 60.385562 185.756669 
L 61.431812 185.874515 
L 63.873063 185.811186 
L 65.268062 185.873234 
L 65.965563 185.806541 
L 69.801812 185.833311 
L 110.256812 185.824904 
L 111.651813 185.841352 
L 113.046813 185.82408 
L 114.790563 185.827006 
L 115.836813 185.839165 
L 116.883062 185.833339 
L 117.929313 185.864307 
L 119.324313 185.834536 
L 132.228063 185.834049 
L 134.320562 185.831015 
L 135.715563 185.847929 
L 137.110563 185.812453 
L 138.156813 185.830129 
L 141.644313 185.842955 
L 142.341813 185.781459 
L 143.388062 185.830416 
L 154.896813 185.85791 
L 155.245563 185.767362 
L 156.291812 185.833242 
L 165.708063 185.818039 
L 166.056813 185.873522 
L 166.754313 185.833481 
L 193.956813 185.831435 
L 193.956813 185.831435 
" clip-path="url(#pd532a74885)" style="fill: none; stroke: #625d5d; stroke-width: 2.5; stroke-linecap: round"/>
   </g>
   <g id="line2d_25">
    <path d="M 54.456812 185.73883 
L 54.805563 185.86636 
L 55.851813 185.824859 
L 56.898062 185.815818 
L 57.944312 185.846571 
L 60.036812 185.840528 
L 62.478063 185.879378 
L 63.175562 185.835949 
L 66.314312 185.877189 
L 70.150563 185.81725 
L 71.545563 185.838278 
L 72.940562 185.807571 
L 73.638063 185.835526 
L 74.684313 185.843209 
L 76.079313 185.834834 
L 87.936813 185.811017 
L 88.634312 185.824056 
L 90.726812 185.858904 
L 91.424312 185.83215 
L 193.956813 185.859635 
L 193.956813 185.859635 
" clip-path="url(#pd532a74885)" style="fill: none; stroke: #625d5d; stroke-width: 2.5; stroke-linecap: round"/>
   </g>
   <g id="line2d_26">
    <path d="M 54.456812 185.561145 
L 55.154312 185.553195 
L 55.851813 185.932086 
L 56.549312 185.905089 
L 57.246812 185.84594 
L 61.431812 185.830911 
L 87.239313 185.841525 
L 93.168063 185.838148 
L 158.733063 185.843416 
L 170.241813 185.838706 
L 174.426813 185.833711 
L 178.960563 185.838379 
L 193.956813 185.835461 
L 193.956813 185.835461 
" clip-path="url(#pd532a74885)" style="fill: none; stroke: #625d5d; stroke-width: 2.5; stroke-linecap: round"/>
   </g>
   <g id="line2d_27">
    <path d="M 54.456812 185.746395 
L 55.851813 185.83851 
L 60.036812 185.80699 
L 67.011813 185.848899 
L 68.755562 185.799845 
L 70.848062 185.885121 
L 71.545563 185.807183 
L 72.591813 185.891879 
L 73.289312 185.806479 
L 73.638063 185.862939 
L 74.335562 185.825528 
L 77.125563 185.860218 
L 77.474312 185.779293 
L 78.520562 185.845766 
L 79.566812 185.822581 
L 80.613062 185.844417 
L 83.054313 185.827743 
L 84.100562 185.846271 
L 88.634312 185.819732 
L 90.029313 185.82299 
L 90.726812 185.875025 
L 91.773063 185.805807 
L 129.089313 185.797772 
L 129.438063 185.898043 
L 130.484312 185.788486 
L 131.530563 185.829758 
L 132.576813 185.841417 
L 133.274313 185.822975 
L 134.669312 185.864406 
L 137.459313 185.823314 
L 139.203062 185.8441 
L 143.388062 185.850075 
L 144.434313 185.839505 
L 145.131813 185.853822 
L 145.829313 185.844236 
L 146.875563 185.803765 
L 149.665563 185.824818 
L 150.711813 185.744396 
L 151.060563 185.856383 
L 152.455563 185.837816 
L 157.686813 185.883045 
L 158.035563 185.781422 
L 159.430563 185.822898 
L 160.825562 185.8697 
L 162.220563 185.81081 
L 164.313063 185.849945 
L 166.056813 185.819604 
L 167.800563 185.875943 
L 168.498063 185.8275 
L 171.636813 185.852036 
L 173.031813 185.798505 
L 173.729312 185.856186 
L 177.216813 185.802421 
L 177.914312 185.863714 
L 178.263062 185.783462 
L 179.658063 185.864976 
L 182.448062 185.835619 
L 187.330562 185.824847 
L 187.679313 185.777374 
L 188.376813 185.826817 
L 189.074313 185.840836 
L 191.864312 185.829712 
L 193.259313 185.85595 
L 193.956813 185.794883 
L 193.956813 185.794883 
" clip-path="url(#pd532a74885)" style="fill: none; stroke: #625d5d; stroke-width: 2.5; stroke-linecap: round"/>
   </g>
   <g id="line2d_28">
    <path d="M 54.456812 185.741898 
L 55.503062 185.811895 
L 56.549312 185.807218 
L 67.709312 185.843165 
L 69.104312 185.821415 
L 70.499313 185.851868 
L 71.894312 185.830391 
L 73.289312 185.833476 
L 74.335562 185.879474 
L 75.730563 185.814586 
L 76.428062 185.860803 
L 76.776813 185.79428 
L 77.474312 185.830756 
L 93.865563 185.835129 
L 95.958063 185.851439 
L 96.306813 185.786311 
L 97.004312 185.862406 
L 98.050563 185.83621 
L 100.143062 185.858761 
L 102.584313 185.868431 
L 107.118063 185.836469 
L 108.861813 185.864654 
L 110.605563 185.869867 
L 112.698063 185.797002 
L 113.046813 185.875278 
L 113.395563 185.79797 
L 114.093063 185.847769 
L 114.790563 185.811603 
L 115.836813 185.847184 
L 116.883062 185.808632 
L 117.929313 185.858886 
L 118.975563 185.820468 
L 121.765563 185.852138 
L 123.509313 185.811584 
L 124.206812 185.818323 
L 125.601813 185.832426 
L 193.956813 185.84668 
L 193.956813 185.84668 
" clip-path="url(#pd532a74885)" style="fill: none; stroke: #625d5d; stroke-width: 2.5; stroke-linecap: round"/>
   </g>
   <g id="patch_3">
    <path d="M 54.456812 197.46 
L 54.456812 7.2 
" style="fill: none; stroke: #262626; stroke-width: 2.5; stroke-linejoin: miter; stroke-linecap: square"/>
   </g>
   <g id="patch_4">
    <path d="M 54.456812 197.46 
L 193.956813 197.46 
" style="fill: none; stroke: #262626; stroke-width: 2.5; stroke-linejoin: miter; stroke-linecap: square"/>
   </g>
  </g>
 </g>
 <defs>
  <clipPath id="pd532a74885">
   <rect x="54.456812" y="7.2" width="139.5" height="190.26"/>
  </clipPath>
 </defs>
</svg>
