<?xml version="1.0" encoding="utf-8" standalone="no"?>
<!DOCTYPE svg PUBLIC "-//W3C//DTD SVG 1.1//EN"
  "http://www.w3.org/Graphics/SVG/1.1/DTD/svg11.dtd">
<svg xmlns:xlink="http://www.w3.org/1999/xlink" width="720pt" height="288pt" viewBox="0 0 720 288" xmlns="http://www.w3.org/2000/svg" version="1.1">
 <metadata>
  <rdf:RDF xmlns:dc="http://purl.org/dc/elements/1.1/" xmlns:cc="http://creativecommons.org/ns#" xmlns:rdf="http://www.w3.org/1999/02/22-rdf-syntax-ns#">
   <cc:Work>
    <dc:type rdf:resource="http://purl.org/dc/dcmitype/StillImage"/>
    <dc:date>2023-09-28T16:41:31.914289</dc:date>
    <dc:format>image/svg+xml</dc:format>
    <dc:creator>
     <cc:Agent>
      <dc:title>Matplotlib v3.7.2, https://matplotlib.org/</dc:title>
     </cc:Agent>
    </dc:creator>
   </cc:Work>
  </rdf:RDF>
 </metadata>
 <defs>
  <style type="text/css">*{stroke-linejoin: round; stroke-linecap: butt}</style>
 </defs>
 <g id="figure_1">
  <g id="patch_1">
   <path d="M 0 288 
L 720 288 
L 720 0 
L 0 0 
z
" style="fill: #ffffff"/>
  </g>
  <g id="axes_1">
   <g id="patch_2">
    <path d="M 37.3 237.8 
L 374.411111 237.8 
L 374.411111 26.8 
L 37.3 26.8 
z
" style="fill: #ffffff"/>
   </g>
   <g id="matplotlib.axis_1">
    <g id="xtick_1">
     <g id="line2d_1">
      <defs>
       <path id="mb4ec131da3" d="M 0 0 
L 0 3.5 
" style="stroke: #262626; stroke-width: 0.8"/>
      </defs>
      <g>
       <use xlink:href="#mb4ec131da3" x="71.011111" y="237.8" style="fill: #262626; stroke: #262626; stroke-width: 0.8"/>
      </g>
     </g>
     <g id="text_1">
      <!-- $A_{000}$ -->
      <g style="fill: #262626" transform="translate(56.661111 255.437813) scale(0.14 -0.14)">
       <defs>
        <path id="DejaVuSans-Oblique-41" d="M 2356 4666 
L 3072 4666 
L 3938 0 
L 3278 0 
L 3084 1197 
L 984 1197 
L 325 0 
L -341 0 
L 2356 4666 
z
M 2584 4044 
L 1275 1722 
L 2988 1722 
L 2584 4044 
z
" transform="scale(0.015625)"/>
        <path id="DejaVuSans-30" d="M 2034 4250 
Q 1547 4250 1301 3770 
Q 1056 3291 1056 2328 
Q 1056 1369 1301 889 
Q 1547 409 2034 409 
Q 2525 409 2770 889 
Q 3016 1369 3016 2328 
Q 3016 3291 2770 3770 
Q 2525 4250 2034 4250 
z
M 2034 4750 
Q 2819 4750 3233 4129 
Q 3647 3509 3647 2328 
Q 3647 1150 3233 529 
Q 2819 -91 2034 -91 
Q 1250 -91 836 529 
Q 422 1150 422 2328 
Q 422 3509 836 4129 
Q 1250 4750 2034 4750 
z
" transform="scale(0.015625)"/>
       </defs>
       <use xlink:href="#DejaVuSans-Oblique-41" transform="translate(0 0.09375)"/>
       <use xlink:href="#DejaVuSans-30" transform="translate(68.408203 -16.3125) scale(0.7)"/>
       <use xlink:href="#DejaVuSans-30" transform="translate(112.944336 -16.3125) scale(0.7)"/>
       <use xlink:href="#DejaVuSans-30" transform="translate(157.480469 -16.3125) scale(0.7)"/>
      </g>
     </g>
    </g>
    <g id="xtick_2">
     <g id="line2d_2">
      <g>
       <use xlink:href="#mb4ec131da3" x="138.433333" y="237.8" style="fill: #262626; stroke: #262626; stroke-width: 0.8"/>
      </g>
     </g>
     <g id="text_2">
      <!-- $A_{001}$ -->
      <g style="fill: #262626" transform="translate(124.083333 255.437813) scale(0.14 -0.14)">
       <defs>
        <path id="DejaVuSans-31" d="M 794 531 
L 1825 531 
L 1825 4091 
L 703 3866 
L 703 4441 
L 1819 4666 
L 2450 4666 
L 2450 531 
L 3481 531 
L 3481 0 
L 794 0 
L 794 531 
z
" transform="scale(0.015625)"/>
       </defs>
       <use xlink:href="#DejaVuSans-Oblique-41" transform="translate(0 0.09375)"/>
       <use xlink:href="#DejaVuSans-30" transform="translate(68.408203 -16.3125) scale(0.7)"/>
       <use xlink:href="#DejaVuSans-30" transform="translate(112.944336 -16.3125) scale(0.7)"/>
       <use xlink:href="#DejaVuSans-31" transform="translate(157.480469 -16.3125) scale(0.7)"/>
      </g>
     </g>
    </g>
    <g id="xtick_3">
     <g id="line2d_3">
      <g>
       <use xlink:href="#mb4ec131da3" x="205.855556" y="237.8" style="fill: #262626; stroke: #262626; stroke-width: 0.8"/>
      </g>
     </g>
     <g id="text_3">
      <!-- $A_{010}$ -->
      <g style="fill: #262626" transform="translate(191.505556 255.437813) scale(0.14 -0.14)">
       <use xlink:href="#DejaVuSans-Oblique-41" transform="translate(0 0.09375)"/>
       <use xlink:href="#DejaVuSans-30" transform="translate(68.408203 -16.3125) scale(0.7)"/>
       <use xlink:href="#DejaVuSans-31" transform="translate(112.944336 -16.3125) scale(0.7)"/>
       <use xlink:href="#DejaVuSans-30" transform="translate(157.480469 -16.3125) scale(0.7)"/>
      </g>
     </g>
    </g>
    <g id="xtick_4">
     <g id="line2d_4">
      <g>
       <use xlink:href="#mb4ec131da3" x="273.277778" y="237.8" style="fill: #262626; stroke: #262626; stroke-width: 0.8"/>
      </g>
     </g>
     <g id="text_4">
      <!-- $A_{100}$ -->
      <g style="fill: #262626" transform="translate(258.927778 255.437813) scale(0.14 -0.14)">
       <use xlink:href="#DejaVuSans-Oblique-41" transform="translate(0 0.09375)"/>
       <use xlink:href="#DejaVuSans-31" transform="translate(68.408203 -16.3125) scale(0.7)"/>
       <use xlink:href="#DejaVuSans-30" transform="translate(112.944336 -16.3125) scale(0.7)"/>
       <use xlink:href="#DejaVuSans-30" transform="translate(157.480469 -16.3125) scale(0.7)"/>
      </g>
     </g>
    </g>
    <g id="xtick_5">
     <g id="line2d_5">
      <g>
       <use xlink:href="#mb4ec131da3" x="340.7" y="237.8" style="fill: #262626; stroke: #262626; stroke-width: 0.8"/>
      </g>
     </g>
     <g id="text_5">
      <!-- $A_{110}$ -->
      <g style="fill: #262626" transform="translate(326.35 255.437813) scale(0.14 -0.14)">
       <use xlink:href="#DejaVuSans-Oblique-41" transform="translate(0 0.09375)"/>
       <use xlink:href="#DejaVuSans-31" transform="translate(68.408203 -16.3125) scale(0.7)"/>
       <use xlink:href="#DejaVuSans-31" transform="translate(112.944336 -16.3125) scale(0.7)"/>
       <use xlink:href="#DejaVuSans-30" transform="translate(157.480469 -16.3125) scale(0.7)"/>
      </g>
     </g>
    </g>
    <g id="text_6">
     <!-- Plasticity Coefficients -->
     <g style="fill: #262626" transform="translate(136.235477 272.227344) scale(0.13 -0.13)">
      <defs>
       <path id="DejaVuSans-ExtraLight-50" d="M 1094 4406 
L 1094 2263 
L 2053 2263 
Q 2575 2263 2859 2541 
Q 3147 2819 3147 3338 
Q 3147 3847 2859 4128 
Q 2575 4406 2053 4406 
L 1094 4406 
z
M 781 4666 
L 2053 4666 
Q 2750 4666 3109 4328 
Q 3466 3991 3466 3338 
Q 3466 2681 3109 2344 
Q 2750 2006 2053 2006 
L 1094 2006 
L 1094 0 
L 781 0 
L 781 4666 
z
" transform="scale(0.015625)"/>
       <path id="DejaVuSans-ExtraLight-6c" d="M 725 4863 
L 1013 4863 
L 1013 0 
L 725 0 
L 725 4863 
z
" transform="scale(0.015625)"/>
       <path id="DejaVuSans-ExtraLight-61" d="M 2125 1975 
Q 1431 1975 1125 1728 
Q 819 1481 819 1006 
Q 819 544 1072 350 
Q 1325 156 1672 156 
Q 2328 156 2616 713 
Q 2906 1269 2906 1759 
L 2906 1975 
L 2125 1975 
z
M 3197 1997 
L 3197 0 
L 2913 0 
L 2913 950 
Q 2672 253 2275 63 
Q 1959 -91 1647 -91 
Q 1125 -91 825 188 
Q 525 469 525 1012 
Q 525 1556 916 1881 
Q 1306 2209 2194 2209 
L 2906 2209 
L 2906 2266 
Q 2906 2731 2641 3031 
Q 2378 3331 1772 3331 
Q 1472 3331 1159 3219 
Q 959 3147 641 2928 
L 641 3238 
Q 919 3409 1159 3481 
Q 1509 3584 1831 3584 
Q 2450 3584 2850 3209 
Q 3197 2888 3197 1997 
z
" transform="scale(0.015625)"/>
       <path id="DejaVuSans-ExtraLight-73" d="M 2706 3397 
L 2706 3081 
Q 2403 3250 2328 3269 
Q 2109 3322 1784 3331 
Q 1291 3331 1009 3134 
Q 794 2972 794 2578 
Q 794 2313 997 2163 
Q 1213 2000 1613 1913 
L 1809 1869 
Q 2306 1759 2563 1559 
Q 2859 1331 2875 966 
Q 2875 469 2581 188 
Q 2269 -91 1575 -91 
Q 1188 -91 988 -38 
Q 747 31 481 128 
L 481 488 
Q 863 269 975 238 
Q 1284 156 1588 156 
Q 2094 156 2334 366 
Q 2578 578 2578 922 
Q 2578 1209 2416 1341 
Q 2181 1528 1669 1647 
L 1469 1694 
Q 1028 1797 797 1984 
Q 506 2219 506 2553 
Q 506 3103 856 3343 
Q 1206 3584 1716 3584 
Q 2150 3584 2316 3538 
Q 2516 3481 2706 3397 
z
" transform="scale(0.015625)"/>
       <path id="DejaVuSans-ExtraLight-74" d="M 1028 4494 
L 1028 3500 
L 2213 3500 
L 2213 3256 
L 1028 3256 
L 1028 1153 
Q 1028 753 1131 594 
Q 1344 244 1750 244 
L 2213 244 
L 2213 0 
L 1766 0 
Q 1338 0 1038 250 
Q 738 500 738 1153 
L 738 3256 
L 319 3256 
L 319 3500 
L 738 3500 
L 738 4494 
L 1028 4494 
z
" transform="scale(0.015625)"/>
       <path id="DejaVuSans-ExtraLight-69" d="M 719 3500 
L 1006 3500 
L 1006 0 
L 719 0 
L 719 3500 
z
M 719 4863 
L 1006 4863 
L 1006 4469 
L 719 4469 
L 719 4863 
z
" transform="scale(0.015625)"/>
       <path id="DejaVuSans-ExtraLight-63" d="M 3122 3331 
L 3122 3025 
Q 2863 3184 2694 3241 
Q 2403 3331 2138 3331 
Q 1381 3331 1053 2943 
Q 725 2556 725 1747 
Q 725 931 1053 543 
Q 1381 156 2138 156 
Q 2388 156 2631 225 
Q 2878 291 3122 425 
L 3122 134 
Q 2881 22 2625 -34 
Q 2366 -91 2113 -91 
Q 1344 -91 891 325 
Q 438 744 438 1747 
Q 438 2750 891 3169 
Q 1344 3584 2113 3584 
Q 2363 3584 2644 3513 
Q 2925 3444 3122 3331 
z
" transform="scale(0.015625)"/>
       <path id="DejaVuSans-ExtraLight-79" d="M 1906 -325 
Q 1719 -791 1503 -969 
Q 1213 -1209 934 -1209 
L 506 -1209 
L 506 -966 
L 872 -966 
Q 1100 -966 1272 -819 
Q 1494 -628 1638 -259 
L 1741 0 
L 344 3500 
L 650 3500 
L 1894 381 
L 3141 3500 
L 3444 3500 
L 1906 -325 
z
" transform="scale(0.015625)"/>
       <path id="DejaVuSans-ExtraLight-20" transform="scale(0.015625)"/>
       <path id="DejaVuSans-ExtraLight-43" d="M 4122 4278 
L 4122 3919 
Q 3803 4209 3444 4350 
Q 3081 4494 2675 4494 
Q 1794 4494 1328 3938 
Q 859 3381 859 2328 
Q 859 1275 1328 716 
Q 1794 156 2675 156 
Q 3081 156 3444 300 
Q 3803 447 4122 738 
L 4122 359 
Q 3791 134 3419 22 
Q 3050 -91 2638 -91 
Q 1656 -91 1094 556 
Q 531 1206 531 2328 
Q 531 3453 1094 4100 
Q 1656 4750 2638 4750 
Q 3056 4750 3425 4631 
Q 3797 4516 4122 4278 
z
" transform="scale(0.015625)"/>
       <path id="DejaVuSans-ExtraLight-6f" d="M 2806 2900 
Q 2497 3331 1962 3331 
Q 1428 3331 1119 2903 
Q 806 2478 806 1753 
Q 806 1009 1116 584 
Q 1425 156 1963 156 
Q 2497 156 2806 584 
Q 3119 1016 3119 1753 
Q 3119 2469 2806 2900 
z
M 1959 3584 
Q 2628 3584 3016 3084 
Q 3406 2581 3406 1750 
Q 3406 891 3016 394 
Q 2628 -106 1959 -106 
Q 1284 -106 894 391 
Q 506 888 506 1750 
Q 506 2591 897 3087 
Q 1288 3584 1959 3584 
z
" transform="scale(0.015625)"/>
       <path id="DejaVuSans-ExtraLight-65" d="M 3453 1894 
L 3453 1713 
L 797 1713 
Q 797 869 1125 531 
Q 1488 156 2203 156 
Q 2391 156 2700 238 
Q 3013 319 3319 481 
L 3319 178 
Q 3009 47 2684 -22 
Q 2359 -91 2169 -91 
Q 1359 -91 950 347 
Q 506 813 506 1713 
Q 506 2647 913 3106 
Q 1328 3584 2069 3584 
Q 2756 3584 3106 3131 
Q 3453 2656 3453 1894 
z
M 3163 1956 
Q 3163 2694 2831 3031 
Q 2553 3331 2075 3331 
Q 1553 3331 1200 3019 
Q 875 2728 809 1956 
L 3163 1956 
z
" transform="scale(0.015625)"/>
       <path id="DejaVuSans-ExtraLight-66" d="M 2231 4863 
L 2231 4619 
L 1825 4619 
Q 1506 4619 1338 4453 
Q 1131 4250 1131 3809 
L 1131 3500 
L 2075 3500 
L 2075 3256 
L 1131 3256 
L 1131 0 
L 841 0 
L 841 3256 
L 291 3256 
L 291 3500 
L 841 3500 
L 841 3744 
Q 841 4328 1106 4594 
Q 1369 4863 1831 4863 
L 2231 4863 
z
" transform="scale(0.015625)"/>
       <path id="DejaVuSans-ExtraLight-6e" d="M 3369 2113 
L 3369 0 
L 3081 0 
L 3081 2094 
Q 3081 2775 2862 3053 
Q 2644 3331 2219 3331 
Q 1722 3331 1369 3031 
Q 1013 2728 1013 1978 
L 1013 0 
L 725 0 
L 725 3500 
L 1013 3500 
L 1013 2844 
Q 1166 3163 1416 3331 
Q 1784 3584 2231 3584 
Q 2750 3584 3059 3231 
Q 3369 2881 3369 2113 
z
" transform="scale(0.015625)"/>
      </defs>
      <use xlink:href="#DejaVuSans-ExtraLight-50"/>
      <use xlink:href="#DejaVuSans-ExtraLight-6c" x="60.302734"/>
      <use xlink:href="#DejaVuSans-ExtraLight-61" x="88.085938"/>
      <use xlink:href="#DejaVuSans-ExtraLight-73" x="149.365234"/>
      <use xlink:href="#DejaVuSans-ExtraLight-74" x="201.464844"/>
      <use xlink:href="#DejaVuSans-ExtraLight-69" x="240.673828"/>
      <use xlink:href="#DejaVuSans-ExtraLight-63" x="268.457031"/>
      <use xlink:href="#DejaVuSans-ExtraLight-69" x="323.4375"/>
      <use xlink:href="#DejaVuSans-ExtraLight-74" x="351.220703"/>
      <use xlink:href="#DejaVuSans-ExtraLight-79" x="390.429688"/>
      <use xlink:href="#DejaVuSans-ExtraLight-20" x="449.609375"/>
      <use xlink:href="#DejaVuSans-ExtraLight-43" x="481.396484"/>
      <use xlink:href="#DejaVuSans-ExtraLight-6f" x="551.220703"/>
      <use xlink:href="#DejaVuSans-ExtraLight-65" x="612.402344"/>
      <use xlink:href="#DejaVuSans-ExtraLight-66" x="673.925781"/>
      <use xlink:href="#DejaVuSans-ExtraLight-66" x="709.130859"/>
      <use xlink:href="#DejaVuSans-ExtraLight-69" x="744.335938"/>
      <use xlink:href="#DejaVuSans-ExtraLight-63" x="772.119141"/>
      <use xlink:href="#DejaVuSans-ExtraLight-69" x="827.099609"/>
      <use xlink:href="#DejaVuSans-ExtraLight-65" x="854.882812"/>
      <use xlink:href="#DejaVuSans-ExtraLight-6e" x="916.40625"/>
      <use xlink:href="#DejaVuSans-ExtraLight-74" x="979.785156"/>
      <use xlink:href="#DejaVuSans-ExtraLight-73" x="1018.994141"/>
     </g>
    </g>
   </g>
   <g id="matplotlib.axis_2">
    <g id="ytick_1">
     <g id="line2d_6">
      <defs>
       <path id="m35d42a0069" d="M 0 0 
L -3.5 0 
" style="stroke: #262626; stroke-width: 0.8"/>
      </defs>
      <g>
       <use xlink:href="#m35d42a0069" x="37.3" y="216.7" style="fill: #262626; stroke: #262626; stroke-width: 0.8"/>
      </g>
     </g>
     <g id="text_7">
      <!-- -1 -->
      <g style="fill: #262626" transform="translate(20.329687 220.499219) scale(0.1 -0.1)">
       <defs>
        <path id="DejaVuSans-2d" d="M 313 2009 
L 1997 2009 
L 1997 1497 
L 313 1497 
L 313 2009 
z
" transform="scale(0.015625)"/>
       </defs>
       <use xlink:href="#DejaVuSans-2d"/>
       <use xlink:href="#DejaVuSans-31" x="36.083984"/>
      </g>
     </g>
    </g>
    <g id="ytick_2">
     <g id="line2d_7">
      <g>
       <use xlink:href="#m35d42a0069" x="37.3" y="174.5" style="fill: #262626; stroke: #262626; stroke-width: 0.8"/>
      </g>
     </g>
     <g id="text_8">
      <!-- -0.5 -->
      <g style="fill: #262626" transform="translate(10.789062 178.299219) scale(0.1 -0.1)">
       <defs>
        <path id="DejaVuSans-2e" d="M 684 794 
L 1344 794 
L 1344 0 
L 684 0 
L 684 794 
z
" transform="scale(0.015625)"/>
        <path id="DejaVuSans-35" d="M 691 4666 
L 3169 4666 
L 3169 4134 
L 1269 4134 
L 1269 2991 
Q 1406 3038 1543 3061 
Q 1681 3084 1819 3084 
Q 2600 3084 3056 2656 
Q 3513 2228 3513 1497 
Q 3513 744 3044 326 
Q 2575 -91 1722 -91 
Q 1428 -91 1123 -41 
Q 819 9 494 109 
L 494 744 
Q 775 591 1075 516 
Q 1375 441 1709 441 
Q 2250 441 2565 725 
Q 2881 1009 2881 1497 
Q 2881 1984 2565 2268 
Q 2250 2553 1709 2553 
Q 1456 2553 1204 2497 
Q 953 2441 691 2322 
L 691 4666 
z
" transform="scale(0.015625)"/>
       </defs>
       <use xlink:href="#DejaVuSans-2d"/>
       <use xlink:href="#DejaVuSans-30" x="36.083984"/>
       <use xlink:href="#DejaVuSans-2e" x="99.707031"/>
       <use xlink:href="#DejaVuSans-35" x="131.494141"/>
      </g>
     </g>
    </g>
    <g id="ytick_3">
     <g id="line2d_8">
      <g>
       <use xlink:href="#m35d42a0069" x="37.3" y="132.3" style="fill: #262626; stroke: #262626; stroke-width: 0.8"/>
      </g>
     </g>
     <g id="text_9">
      <!-- 0 -->
      <g style="fill: #262626" transform="translate(23.9375 136.099219) scale(0.1 -0.1)">
       <use xlink:href="#DejaVuSans-30"/>
      </g>
     </g>
    </g>
    <g id="ytick_4">
     <g id="line2d_9">
      <g>
       <use xlink:href="#m35d42a0069" x="37.3" y="90.1" style="fill: #262626; stroke: #262626; stroke-width: 0.8"/>
      </g>
     </g>
     <g id="text_10">
      <!-- 0.5 -->
      <g style="fill: #262626" transform="translate(14.396875 93.899219) scale(0.1 -0.1)">
       <use xlink:href="#DejaVuSans-30"/>
       <use xlink:href="#DejaVuSans-2e" x="63.623047"/>
       <use xlink:href="#DejaVuSans-35" x="95.410156"/>
      </g>
     </g>
    </g>
    <g id="ytick_5">
     <g id="line2d_10">
      <g>
       <use xlink:href="#m35d42a0069" x="37.3" y="47.9" style="fill: #262626; stroke: #262626; stroke-width: 0.8"/>
      </g>
     </g>
     <g id="text_11">
      <!-- 1 -->
      <g style="fill: #262626" transform="translate(23.9375 51.699219) scale(0.1 -0.1)">
       <use xlink:href="#DejaVuSans-31"/>
      </g>
     </g>
    </g>
   </g>
   <g id="patch_3">
    <path d="M 57.661511 142.181323 
L 70.876267 142.181323 
L 70.876267 130.601196 
L 57.661511 130.601196 
L 57.661511 142.181323 
z
" clip-path="url(#pac0d808e0d)" style="fill: #3274a1; fill-opacity: 0.8; stroke: #3f3f3f; stroke-width: 1.5; stroke-linejoin: miter"/>
   </g>
   <g id="patch_4">
    <path d="M 71.145956 142.495029 
L 84.360711 142.495029 
L 84.360711 127.902968 
L 71.145956 127.902968 
L 71.145956 142.495029 
z
" clip-path="url(#pac0d808e0d)" style="fill: #e1812c; fill-opacity: 0.8; stroke: #3f3f3f; stroke-width: 1.5; stroke-linejoin: miter"/>
   </g>
   <g id="patch_5">
    <path d="M 125.083733 140.11961 
L 138.298489 140.11961 
L 138.298489 133.017041 
L 125.083733 133.017041 
L 125.083733 140.11961 
z
" clip-path="url(#pac0d808e0d)" style="fill: #3274a1; fill-opacity: 0.8; stroke: #3f3f3f; stroke-width: 1.5; stroke-linejoin: miter"/>
   </g>
   <g id="patch_6">
    <path d="M 138.568178 142.496969 
L 151.782933 142.496969 
L 151.782933 137.450886 
L 138.568178 137.450886 
L 138.568178 142.496969 
z
" clip-path="url(#pac0d808e0d)" style="fill: #e1812c; fill-opacity: 0.8; stroke: #3f3f3f; stroke-width: 1.5; stroke-linejoin: miter"/>
   </g>
   <g id="patch_7">
    <path d="M 192.505956 172.462009 
L 205.720711 172.462009 
L 205.720711 132.570784 
L 192.505956 132.570784 
L 192.505956 172.462009 
z
" clip-path="url(#pac0d808e0d)" style="fill: #3274a1; fill-opacity: 0.8; stroke: #3f3f3f; stroke-width: 1.5; stroke-linejoin: miter"/>
   </g>
   <g id="patch_8">
    <path d="M 205.9904 150.742074 
L 219.205156 150.742074 
L 219.205156 132.318733 
L 205.9904 132.318733 
L 205.9904 150.742074 
z
" clip-path="url(#pac0d808e0d)" style="fill: #e1812c; fill-opacity: 0.8; stroke: #3f3f3f; stroke-width: 1.5; stroke-linejoin: miter"/>
   </g>
   <g id="patch_9">
    <path d="M 259.928178 133.891719 
L 273.142933 133.891719 
L 273.142933 101.958172 
L 259.928178 101.958172 
L 259.928178 133.891719 
z
" clip-path="url(#pac0d808e0d)" style="fill: #3274a1; fill-opacity: 0.8; stroke: #3f3f3f; stroke-width: 1.5; stroke-linejoin: miter"/>
   </g>
   <g id="patch_10">
    <path d="M 273.412622 139.84922 
L 286.627378 139.84922 
L 286.627378 115.325621 
L 273.412622 115.325621 
L 273.412622 139.84922 
z
" clip-path="url(#pac0d808e0d)" style="fill: #e1812c; fill-opacity: 0.8; stroke: #3f3f3f; stroke-width: 1.5; stroke-linejoin: miter"/>
   </g>
   <g id="patch_11">
    <path d="M 327.3504 118.904179 
L 340.565156 118.904179 
L 340.565156 74.234418 
L 327.3504 74.234418 
L 327.3504 118.904179 
z
" clip-path="url(#pac0d808e0d)" style="fill: #3274a1; fill-opacity: 0.8; stroke: #3f3f3f; stroke-width: 1.5; stroke-linejoin: miter"/>
   </g>
   <g id="patch_12">
    <path d="M 340.834844 114.102998 
L 354.0496 114.102998 
L 354.0496 93.901573 
L 340.834844 93.901573 
L 340.834844 114.102998 
z
" clip-path="url(#pac0d808e0d)" style="fill: #e1812c; fill-opacity: 0.8; stroke: #3f3f3f; stroke-width: 1.5; stroke-linejoin: miter"/>
   </g>
   <g id="patch_13">
    <path d="M 71.011111 132.3 
L 71.011111 132.3 
L 71.011111 132.3 
L 71.011111 132.3 
z
" clip-path="url(#pac0d808e0d)" style="fill: #3274a1; fill-opacity: 0.8; stroke: #3f3f3f; stroke-width: 0.75; stroke-linejoin: miter"/>
   </g>
   <g id="patch_14">
    <path d="M 71.011111 132.3 
L 71.011111 132.3 
L 71.011111 132.3 
L 71.011111 132.3 
z
" clip-path="url(#pac0d808e0d)" style="fill: #e1812c; fill-opacity: 0.8; stroke: #3f3f3f; stroke-width: 0.75; stroke-linejoin: miter"/>
   </g>
   <g id="line2d_11">
    <path d="M 64.268889 142.181323 
L 64.268889 152.321899 
" clip-path="url(#pac0d808e0d)" style="fill: none; stroke: #3f3f3f; stroke-width: 1.5; stroke-linecap: round"/>
   </g>
   <g id="line2d_12">
    <path d="M 64.268889 130.601196 
L 64.268889 125.017757 
" clip-path="url(#pac0d808e0d)" style="fill: none; stroke: #3f3f3f; stroke-width: 1.5; stroke-linecap: round"/>
   </g>
   <g id="line2d_13">
    <path d="M 60.9652 152.321899 
L 67.572578 152.321899 
" clip-path="url(#pac0d808e0d)" style="fill: none; stroke: #3f3f3f; stroke-width: 1.5; stroke-linecap: round"/>
   </g>
   <g id="line2d_14">
    <path d="M 60.9652 125.017757 
L 67.572578 125.017757 
" clip-path="url(#pac0d808e0d)" style="fill: none; stroke: #3f3f3f; stroke-width: 1.5; stroke-linecap: round"/>
   </g>
   <g id="line2d_15"/>
   <g id="line2d_16">
    <path d="M 77.753333 142.495029 
L 77.753333 156.554752 
" clip-path="url(#pac0d808e0d)" style="fill: none; stroke: #3f3f3f; stroke-width: 1.5; stroke-linecap: round"/>
   </g>
   <g id="line2d_17">
    <path d="M 77.753333 127.902968 
L 77.753333 119.537905 
" clip-path="url(#pac0d808e0d)" style="fill: none; stroke: #3f3f3f; stroke-width: 1.5; stroke-linecap: round"/>
   </g>
   <g id="line2d_18">
    <path d="M 74.449644 156.554752 
L 81.057022 156.554752 
" clip-path="url(#pac0d808e0d)" style="fill: none; stroke: #3f3f3f; stroke-width: 1.5; stroke-linecap: round"/>
   </g>
   <g id="line2d_19">
    <path d="M 74.449644 119.537905 
L 81.057022 119.537905 
" clip-path="url(#pac0d808e0d)" style="fill: none; stroke: #3f3f3f; stroke-width: 1.5; stroke-linecap: round"/>
   </g>
   <g id="line2d_20"/>
   <g id="line2d_21">
    <path d="M 131.691111 140.11961 
L 131.691111 144.493584 
" clip-path="url(#pac0d808e0d)" style="fill: none; stroke: #3f3f3f; stroke-width: 1.5; stroke-linecap: round"/>
   </g>
   <g id="line2d_22">
    <path d="M 131.691111 133.017041 
L 131.691111 130.474585 
" clip-path="url(#pac0d808e0d)" style="fill: none; stroke: #3f3f3f; stroke-width: 1.5; stroke-linecap: round"/>
   </g>
   <g id="line2d_23">
    <path d="M 128.387422 144.493584 
L 134.9948 144.493584 
" clip-path="url(#pac0d808e0d)" style="fill: none; stroke: #3f3f3f; stroke-width: 1.5; stroke-linecap: round"/>
   </g>
   <g id="line2d_24">
    <path d="M 128.387422 130.474585 
L 134.9948 130.474585 
" clip-path="url(#pac0d808e0d)" style="fill: none; stroke: #3f3f3f; stroke-width: 1.5; stroke-linecap: round"/>
   </g>
   <g id="line2d_25"/>
   <g id="line2d_26">
    <path d="M 145.175556 142.496969 
L 145.175556 147.980737 
" clip-path="url(#pac0d808e0d)" style="fill: none; stroke: #3f3f3f; stroke-width: 1.5; stroke-linecap: round"/>
   </g>
   <g id="line2d_27">
    <path d="M 145.175556 137.450886 
L 145.175556 131.404192 
" clip-path="url(#pac0d808e0d)" style="fill: none; stroke: #3f3f3f; stroke-width: 1.5; stroke-linecap: round"/>
   </g>
   <g id="line2d_28">
    <path d="M 141.871867 147.980737 
L 148.479244 147.980737 
" clip-path="url(#pac0d808e0d)" style="fill: none; stroke: #3f3f3f; stroke-width: 1.5; stroke-linecap: round"/>
   </g>
   <g id="line2d_29">
    <path d="M 141.871867 131.404192 
L 148.479244 131.404192 
" clip-path="url(#pac0d808e0d)" style="fill: none; stroke: #3f3f3f; stroke-width: 1.5; stroke-linecap: round"/>
   </g>
   <g id="line2d_30">
    <defs>
     <path id="md97d05d748" d="M -0 3.535534 
L 2.12132 0 
L -0 -3.535534 
L -2.12132 -0 
z
" style="stroke: #3f3f3f; stroke-linejoin: miter"/>
    </defs>
    <g clip-path="url(#pac0d808e0d)">
     <use xlink:href="#md97d05d748" x="145.175556" y="150.526853" style="fill: #3f3f3f; stroke: #3f3f3f; stroke-linejoin: miter"/>
    </g>
   </g>
   <g id="line2d_31">
    <path d="M 199.113333 172.462009 
L 199.113333 210.965502 
" clip-path="url(#pac0d808e0d)" style="fill: none; stroke: #3f3f3f; stroke-width: 1.5; stroke-linecap: round"/>
   </g>
   <g id="line2d_32">
    <path d="M 199.113333 132.570784 
L 199.113333 93.043297 
" clip-path="url(#pac0d808e0d)" style="fill: none; stroke: #3f3f3f; stroke-width: 1.5; stroke-linecap: round"/>
   </g>
   <g id="line2d_33">
    <path d="M 195.809644 210.965502 
L 202.417022 210.965502 
" clip-path="url(#pac0d808e0d)" style="fill: none; stroke: #3f3f3f; stroke-width: 1.5; stroke-linecap: round"/>
   </g>
   <g id="line2d_34">
    <path d="M 195.809644 93.043297 
L 202.417022 93.043297 
" clip-path="url(#pac0d808e0d)" style="fill: none; stroke: #3f3f3f; stroke-width: 1.5; stroke-linecap: round"/>
   </g>
   <g id="line2d_35"/>
   <g id="line2d_36">
    <path d="M 212.597778 150.742074 
L 212.597778 172.020806 
" clip-path="url(#pac0d808e0d)" style="fill: none; stroke: #3f3f3f; stroke-width: 1.5; stroke-linecap: round"/>
   </g>
   <g id="line2d_37">
    <path d="M 212.597778 132.318733 
L 212.597778 132.251979 
" clip-path="url(#pac0d808e0d)" style="fill: none; stroke: #3f3f3f; stroke-width: 1.5; stroke-linecap: round"/>
   </g>
   <g id="line2d_38">
    <path d="M 209.294089 172.020806 
L 215.901467 172.020806 
" clip-path="url(#pac0d808e0d)" style="fill: none; stroke: #3f3f3f; stroke-width: 1.5; stroke-linecap: round"/>
   </g>
   <g id="line2d_39">
    <path d="M 209.294089 132.251979 
L 215.901467 132.251979 
" clip-path="url(#pac0d808e0d)" style="fill: none; stroke: #3f3f3f; stroke-width: 1.5; stroke-linecap: round"/>
   </g>
   <g id="line2d_40">
    <g clip-path="url(#pac0d808e0d)">
     <use xlink:href="#md97d05d748" x="212.597778" y="87.826748" style="fill: #3f3f3f; stroke: #3f3f3f; stroke-linejoin: miter"/>
    </g>
   </g>
   <g id="line2d_41">
    <path d="M 266.535556 133.891719 
L 266.535556 137.092801 
" clip-path="url(#pac0d808e0d)" style="fill: none; stroke: #3f3f3f; stroke-width: 1.5; stroke-linecap: round"/>
   </g>
   <g id="line2d_42">
    <path d="M 266.535556 101.958172 
L 266.535556 88.634894 
" clip-path="url(#pac0d808e0d)" style="fill: none; stroke: #3f3f3f; stroke-width: 1.5; stroke-linecap: round"/>
   </g>
   <g id="line2d_43">
    <path d="M 263.231867 137.092801 
L 269.839244 137.092801 
" clip-path="url(#pac0d808e0d)" style="fill: none; stroke: #3f3f3f; stroke-width: 1.5; stroke-linecap: round"/>
   </g>
   <g id="line2d_44">
    <path d="M 263.231867 88.634894 
L 269.839244 88.634894 
" clip-path="url(#pac0d808e0d)" style="fill: none; stroke: #3f3f3f; stroke-width: 1.5; stroke-linecap: round"/>
   </g>
   <g id="line2d_45"/>
   <g id="line2d_46">
    <path d="M 280.02 139.84922 
L 280.02 150.71875 
" clip-path="url(#pac0d808e0d)" style="fill: none; stroke: #3f3f3f; stroke-width: 1.5; stroke-linecap: round"/>
   </g>
   <g id="line2d_47">
    <path d="M 280.02 115.325621 
L 280.02 88.954294 
" clip-path="url(#pac0d808e0d)" style="fill: none; stroke: #3f3f3f; stroke-width: 1.5; stroke-linecap: round"/>
   </g>
   <g id="line2d_48">
    <path d="M 276.716311 150.71875 
L 283.323689 150.71875 
" clip-path="url(#pac0d808e0d)" style="fill: none; stroke: #3f3f3f; stroke-width: 1.5; stroke-linecap: round"/>
   </g>
   <g id="line2d_49">
    <path d="M 276.716311 88.954294 
L 283.323689 88.954294 
" clip-path="url(#pac0d808e0d)" style="fill: none; stroke: #3f3f3f; stroke-width: 1.5; stroke-linecap: round"/>
   </g>
   <g id="line2d_50"/>
   <g id="line2d_51">
    <path d="M 333.957778 118.904179 
L 333.957778 137.019696 
" clip-path="url(#pac0d808e0d)" style="fill: none; stroke: #3f3f3f; stroke-width: 1.5; stroke-linecap: round"/>
   </g>
   <g id="line2d_52">
    <path d="M 333.957778 74.234418 
L 333.957778 32.55451 
" clip-path="url(#pac0d808e0d)" style="fill: none; stroke: #3f3f3f; stroke-width: 1.5; stroke-linecap: round"/>
   </g>
   <g id="line2d_53">
    <path d="M 330.654089 137.019696 
L 337.261467 137.019696 
" clip-path="url(#pac0d808e0d)" style="fill: none; stroke: #3f3f3f; stroke-width: 1.5; stroke-linecap: round"/>
   </g>
   <g id="line2d_54">
    <path d="M 330.654089 32.55451 
L 337.261467 32.55451 
" clip-path="url(#pac0d808e0d)" style="fill: none; stroke: #3f3f3f; stroke-width: 1.5; stroke-linecap: round"/>
   </g>
   <g id="line2d_55"/>
   <g id="line2d_56">
    <path d="M 347.442222 114.102998 
L 347.442222 143.500371 
" clip-path="url(#pac0d808e0d)" style="fill: none; stroke: #3f3f3f; stroke-width: 1.5; stroke-linecap: round"/>
   </g>
   <g id="line2d_57">
    <path d="M 347.442222 93.901573 
L 347.442222 83.502885 
" clip-path="url(#pac0d808e0d)" style="fill: none; stroke: #3f3f3f; stroke-width: 1.5; stroke-linecap: round"/>
   </g>
   <g id="line2d_58">
    <path d="M 344.138533 143.500371 
L 350.745911 143.500371 
" clip-path="url(#pac0d808e0d)" style="fill: none; stroke: #3f3f3f; stroke-width: 1.5; stroke-linecap: round"/>
   </g>
   <g id="line2d_59">
    <path d="M 344.138533 83.502885 
L 350.745911 83.502885 
" clip-path="url(#pac0d808e0d)" style="fill: none; stroke: #3f3f3f; stroke-width: 1.5; stroke-linecap: round"/>
   </g>
   <g id="line2d_60">
    <g clip-path="url(#pac0d808e0d)">
     <use xlink:href="#md97d05d748" x="347.442222" y="32.517333" style="fill: #3f3f3f; stroke: #3f3f3f; stroke-linejoin: miter"/>
    </g>
   </g>
   <g id="line2d_61">
    <path d="M 37.3 132.3 
L 374.411111 132.3 
" clip-path="url(#pac0d808e0d)" style="fill: none; stroke-dasharray: 5.55,2.4; stroke-dashoffset: 0; stroke: #808080; stroke-opacity: 0.7; stroke-width: 1.5"/>
   </g>
   <g id="line2d_62">
    <path d="M 57.661511 132.524308 
L 70.876267 132.524308 
" clip-path="url(#pac0d808e0d)" style="fill: none; stroke: #3f3f3f; stroke-width: 1.5; stroke-linecap: round"/>
   </g>
   <g id="line2d_63">
    <path d="M 71.145956 132.322024 
L 84.360711 132.322024 
" clip-path="url(#pac0d808e0d)" style="fill: none; stroke: #3f3f3f; stroke-width: 1.5; stroke-linecap: round"/>
   </g>
   <g id="line2d_64">
    <path d="M 125.083733 136.101645 
L 138.298489 136.101645 
" clip-path="url(#pac0d808e0d)" style="fill: none; stroke: #3f3f3f; stroke-width: 1.5; stroke-linecap: round"/>
   </g>
   <g id="line2d_65">
    <path d="M 138.568178 139.625587 
L 151.782933 139.625587 
" clip-path="url(#pac0d808e0d)" style="fill: none; stroke: #3f3f3f; stroke-width: 1.5; stroke-linecap: round"/>
   </g>
   <g id="line2d_66">
    <path d="M 192.505956 151.56675 
L 205.720711 151.56675 
" clip-path="url(#pac0d808e0d)" style="fill: none; stroke: #3f3f3f; stroke-width: 1.5; stroke-linecap: round"/>
   </g>
   <g id="line2d_67">
    <path d="M 205.9904 136.082367 
L 219.205156 136.082367 
" clip-path="url(#pac0d808e0d)" style="fill: none; stroke: #3f3f3f; stroke-width: 1.5; stroke-linecap: round"/>
   </g>
   <g id="line2d_68">
    <path d="M 259.928178 132.318329 
L 273.142933 132.318329 
" clip-path="url(#pac0d808e0d)" style="fill: none; stroke: #3f3f3f; stroke-width: 1.5; stroke-linecap: round"/>
   </g>
   <g id="line2d_69">
    <path d="M 273.412622 130.82087 
L 286.627378 130.82087 
" clip-path="url(#pac0d808e0d)" style="fill: none; stroke: #3f3f3f; stroke-width: 1.5; stroke-linecap: round"/>
   </g>
   <g id="line2d_70">
    <path d="M 327.3504 102.984421 
L 340.565156 102.984421 
" clip-path="url(#pac0d808e0d)" style="fill: none; stroke: #3f3f3f; stroke-width: 1.5; stroke-linecap: round"/>
   </g>
   <g id="line2d_71">
    <path d="M 340.834844 109.045785 
L 354.0496 109.045785 
" clip-path="url(#pac0d808e0d)" style="fill: none; stroke: #3f3f3f; stroke-width: 1.5; stroke-linecap: round"/>
   </g>
   <g id="patch_15">
    <path d="M 37.3 237.8 
L 37.3 26.8 
" style="fill: none; stroke: #262626; stroke-width: 0.8; stroke-linejoin: miter; stroke-linecap: square"/>
   </g>
   <g id="patch_16">
    <path d="M 374.411111 237.8 
L 374.411111 26.8 
" style="fill: none; stroke: #262626; stroke-width: 0.8; stroke-linejoin: miter; stroke-linecap: square"/>
   </g>
   <g id="patch_17">
    <path d="M 37.3 237.8 
L 374.411111 237.8 
" style="fill: none; stroke: #262626; stroke-width: 0.8; stroke-linejoin: miter; stroke-linecap: square"/>
   </g>
   <g id="patch_18">
    <path d="M 37.3 26.8 
L 374.411111 26.8 
" style="fill: none; stroke: #262626; stroke-width: 0.8; stroke-linejoin: miter; stroke-linecap: square"/>
   </g>
   <g id="legend_1">
    <g id="patch_19">
     <path d="M 44.3 77.218128 
L 190.615625 77.218128 
Q 192.615625 77.218128 192.615625 75.218128 
L 192.615625 33.8 
Q 192.615625 31.8 190.615625 31.8 
L 44.3 31.8 
Q 42.3 31.8 42.3 33.8 
L 42.3 75.218128 
Q 42.3 77.218128 44.3 77.218128 
z
" style="fill: #ffffff; opacity: 0.8; stroke: #cccccc; stroke-linejoin: miter"/>
    </g>
    <g id="text_12">
     <!-- Plasticity Family -->
     <g style="fill: #262626" transform="translate(84.004402 42.129498) scale(0.0833 -0.0833)">
      <defs>
       <path id="DejaVuSans-50" d="M 1259 4147 
L 1259 2394 
L 2053 2394 
Q 2494 2394 2734 2622 
Q 2975 2850 2975 3272 
Q 2975 3691 2734 3919 
Q 2494 4147 2053 4147 
L 1259 4147 
z
M 628 4666 
L 2053 4666 
Q 2838 4666 3239 4311 
Q 3641 3956 3641 3272 
Q 3641 2581 3239 2228 
Q 2838 1875 2053 1875 
L 1259 1875 
L 1259 0 
L 628 0 
L 628 4666 
z
" transform="scale(0.015625)"/>
       <path id="DejaVuSans-6c" d="M 603 4863 
L 1178 4863 
L 1178 0 
L 603 0 
L 603 4863 
z
" transform="scale(0.015625)"/>
       <path id="DejaVuSans-61" d="M 2194 1759 
Q 1497 1759 1228 1600 
Q 959 1441 959 1056 
Q 959 750 1161 570 
Q 1363 391 1709 391 
Q 2188 391 2477 730 
Q 2766 1069 2766 1631 
L 2766 1759 
L 2194 1759 
z
M 3341 1997 
L 3341 0 
L 2766 0 
L 2766 531 
Q 2569 213 2275 61 
Q 1981 -91 1556 -91 
Q 1019 -91 701 211 
Q 384 513 384 1019 
Q 384 1609 779 1909 
Q 1175 2209 1959 2209 
L 2766 2209 
L 2766 2266 
Q 2766 2663 2505 2880 
Q 2244 3097 1772 3097 
Q 1472 3097 1187 3025 
Q 903 2953 641 2809 
L 641 3341 
Q 956 3463 1253 3523 
Q 1550 3584 1831 3584 
Q 2591 3584 2966 3190 
Q 3341 2797 3341 1997 
z
" transform="scale(0.015625)"/>
       <path id="DejaVuSans-73" d="M 2834 3397 
L 2834 2853 
Q 2591 2978 2328 3040 
Q 2066 3103 1784 3103 
Q 1356 3103 1142 2972 
Q 928 2841 928 2578 
Q 928 2378 1081 2264 
Q 1234 2150 1697 2047 
L 1894 2003 
Q 2506 1872 2764 1633 
Q 3022 1394 3022 966 
Q 3022 478 2636 193 
Q 2250 -91 1575 -91 
Q 1294 -91 989 -36 
Q 684 19 347 128 
L 347 722 
Q 666 556 975 473 
Q 1284 391 1588 391 
Q 1994 391 2212 530 
Q 2431 669 2431 922 
Q 2431 1156 2273 1281 
Q 2116 1406 1581 1522 
L 1381 1569 
Q 847 1681 609 1914 
Q 372 2147 372 2553 
Q 372 3047 722 3315 
Q 1072 3584 1716 3584 
Q 2034 3584 2315 3537 
Q 2597 3491 2834 3397 
z
" transform="scale(0.015625)"/>
       <path id="DejaVuSans-74" d="M 1172 4494 
L 1172 3500 
L 2356 3500 
L 2356 3053 
L 1172 3053 
L 1172 1153 
Q 1172 725 1289 603 
Q 1406 481 1766 481 
L 2356 481 
L 2356 0 
L 1766 0 
Q 1100 0 847 248 
Q 594 497 594 1153 
L 594 3053 
L 172 3053 
L 172 3500 
L 594 3500 
L 594 4494 
L 1172 4494 
z
" transform="scale(0.015625)"/>
       <path id="DejaVuSans-69" d="M 603 3500 
L 1178 3500 
L 1178 0 
L 603 0 
L 603 3500 
z
M 603 4863 
L 1178 4863 
L 1178 4134 
L 603 4134 
L 603 4863 
z
" transform="scale(0.015625)"/>
       <path id="DejaVuSans-63" d="M 3122 3366 
L 3122 2828 
Q 2878 2963 2633 3030 
Q 2388 3097 2138 3097 
Q 1578 3097 1268 2742 
Q 959 2388 959 1747 
Q 959 1106 1268 751 
Q 1578 397 2138 397 
Q 2388 397 2633 464 
Q 2878 531 3122 666 
L 3122 134 
Q 2881 22 2623 -34 
Q 2366 -91 2075 -91 
Q 1284 -91 818 406 
Q 353 903 353 1747 
Q 353 2603 823 3093 
Q 1294 3584 2113 3584 
Q 2378 3584 2631 3529 
Q 2884 3475 3122 3366 
z
" transform="scale(0.015625)"/>
       <path id="DejaVuSans-79" d="M 2059 -325 
Q 1816 -950 1584 -1140 
Q 1353 -1331 966 -1331 
L 506 -1331 
L 506 -850 
L 844 -850 
Q 1081 -850 1212 -737 
Q 1344 -625 1503 -206 
L 1606 56 
L 191 3500 
L 800 3500 
L 1894 763 
L 2988 3500 
L 3597 3500 
L 2059 -325 
z
" transform="scale(0.015625)"/>
       <path id="DejaVuSans-20" transform="scale(0.015625)"/>
       <path id="DejaVuSans-46" d="M 628 4666 
L 3309 4666 
L 3309 4134 
L 1259 4134 
L 1259 2759 
L 3109 2759 
L 3109 2228 
L 1259 2228 
L 1259 0 
L 628 0 
L 628 4666 
z
" transform="scale(0.015625)"/>
       <path id="DejaVuSans-6d" d="M 3328 2828 
Q 3544 3216 3844 3400 
Q 4144 3584 4550 3584 
Q 5097 3584 5394 3201 
Q 5691 2819 5691 2113 
L 5691 0 
L 5113 0 
L 5113 2094 
Q 5113 2597 4934 2840 
Q 4756 3084 4391 3084 
Q 3944 3084 3684 2787 
Q 3425 2491 3425 1978 
L 3425 0 
L 2847 0 
L 2847 2094 
Q 2847 2600 2669 2842 
Q 2491 3084 2119 3084 
Q 1678 3084 1418 2786 
Q 1159 2488 1159 1978 
L 1159 0 
L 581 0 
L 581 3500 
L 1159 3500 
L 1159 2956 
Q 1356 3278 1631 3431 
Q 1906 3584 2284 3584 
Q 2666 3584 2933 3390 
Q 3200 3197 3328 2828 
z
" transform="scale(0.015625)"/>
      </defs>
      <use xlink:href="#DejaVuSans-50"/>
      <use xlink:href="#DejaVuSans-6c" x="60.302734"/>
      <use xlink:href="#DejaVuSans-61" x="88.085938"/>
      <use xlink:href="#DejaVuSans-73" x="149.365234"/>
      <use xlink:href="#DejaVuSans-74" x="201.464844"/>
      <use xlink:href="#DejaVuSans-69" x="240.673828"/>
      <use xlink:href="#DejaVuSans-63" x="268.457031"/>
      <use xlink:href="#DejaVuSans-69" x="323.4375"/>
      <use xlink:href="#DejaVuSans-74" x="351.220703"/>
      <use xlink:href="#DejaVuSans-79" x="390.429688"/>
      <use xlink:href="#DejaVuSans-20" x="449.609375"/>
      <use xlink:href="#DejaVuSans-46" x="481.396484"/>
      <use xlink:href="#DejaVuSans-61" x="529.791016"/>
      <use xlink:href="#DejaVuSans-6d" x="591.070312"/>
      <use xlink:href="#DejaVuSans-69" x="688.482422"/>
      <use xlink:href="#DejaVuSans-6c" x="716.265625"/>
      <use xlink:href="#DejaVuSans-79" x="744.048828"/>
     </g>
    </g>
    <g id="patch_20">
     <path d="M 46.3 56.460316 
L 66.3 56.460316 
L 66.3 49.460316 
L 46.3 49.460316 
z
" style="fill: #3274a1; fill-opacity: 0.8; stroke: #3f3f3f; stroke-width: 0.75; stroke-linejoin: miter"/>
    </g>
    <g id="text_13">
     <!-- using expected reward -->
     <g style="fill: #262626" transform="translate(74.3 56.460316) scale(0.1 -0.1)">
      <defs>
       <path id="DejaVuSans-75" d="M 544 1381 
L 544 3500 
L 1119 3500 
L 1119 1403 
Q 1119 906 1312 657 
Q 1506 409 1894 409 
Q 2359 409 2629 706 
Q 2900 1003 2900 1516 
L 2900 3500 
L 3475 3500 
L 3475 0 
L 2900 0 
L 2900 538 
Q 2691 219 2414 64 
Q 2138 -91 1772 -91 
Q 1169 -91 856 284 
Q 544 659 544 1381 
z
M 1991 3584 
L 1991 3584 
z
" transform="scale(0.015625)"/>
       <path id="DejaVuSans-6e" d="M 3513 2113 
L 3513 0 
L 2938 0 
L 2938 2094 
Q 2938 2591 2744 2837 
Q 2550 3084 2163 3084 
Q 1697 3084 1428 2787 
Q 1159 2491 1159 1978 
L 1159 0 
L 581 0 
L 581 3500 
L 1159 3500 
L 1159 2956 
Q 1366 3272 1645 3428 
Q 1925 3584 2291 3584 
Q 2894 3584 3203 3211 
Q 3513 2838 3513 2113 
z
" transform="scale(0.015625)"/>
       <path id="DejaVuSans-67" d="M 2906 1791 
Q 2906 2416 2648 2759 
Q 2391 3103 1925 3103 
Q 1463 3103 1205 2759 
Q 947 2416 947 1791 
Q 947 1169 1205 825 
Q 1463 481 1925 481 
Q 2391 481 2648 825 
Q 2906 1169 2906 1791 
z
M 3481 434 
Q 3481 -459 3084 -895 
Q 2688 -1331 1869 -1331 
Q 1566 -1331 1297 -1286 
Q 1028 -1241 775 -1147 
L 775 -588 
Q 1028 -725 1275 -790 
Q 1522 -856 1778 -856 
Q 2344 -856 2625 -561 
Q 2906 -266 2906 331 
L 2906 616 
Q 2728 306 2450 153 
Q 2172 0 1784 0 
Q 1141 0 747 490 
Q 353 981 353 1791 
Q 353 2603 747 3093 
Q 1141 3584 1784 3584 
Q 2172 3584 2450 3431 
Q 2728 3278 2906 2969 
L 2906 3500 
L 3481 3500 
L 3481 434 
z
" transform="scale(0.015625)"/>
       <path id="DejaVuSans-65" d="M 3597 1894 
L 3597 1613 
L 953 1613 
Q 991 1019 1311 708 
Q 1631 397 2203 397 
Q 2534 397 2845 478 
Q 3156 559 3463 722 
L 3463 178 
Q 3153 47 2828 -22 
Q 2503 -91 2169 -91 
Q 1331 -91 842 396 
Q 353 884 353 1716 
Q 353 2575 817 3079 
Q 1281 3584 2069 3584 
Q 2775 3584 3186 3129 
Q 3597 2675 3597 1894 
z
M 3022 2063 
Q 3016 2534 2758 2815 
Q 2500 3097 2075 3097 
Q 1594 3097 1305 2825 
Q 1016 2553 972 2059 
L 3022 2063 
z
" transform="scale(0.015625)"/>
       <path id="DejaVuSans-78" d="M 3513 3500 
L 2247 1797 
L 3578 0 
L 2900 0 
L 1881 1375 
L 863 0 
L 184 0 
L 1544 1831 
L 300 3500 
L 978 3500 
L 1906 2253 
L 2834 3500 
L 3513 3500 
z
" transform="scale(0.015625)"/>
       <path id="DejaVuSans-70" d="M 1159 525 
L 1159 -1331 
L 581 -1331 
L 581 3500 
L 1159 3500 
L 1159 2969 
Q 1341 3281 1617 3432 
Q 1894 3584 2278 3584 
Q 2916 3584 3314 3078 
Q 3713 2572 3713 1747 
Q 3713 922 3314 415 
Q 2916 -91 2278 -91 
Q 1894 -91 1617 61 
Q 1341 213 1159 525 
z
M 3116 1747 
Q 3116 2381 2855 2742 
Q 2594 3103 2138 3103 
Q 1681 3103 1420 2742 
Q 1159 2381 1159 1747 
Q 1159 1113 1420 752 
Q 1681 391 2138 391 
Q 2594 391 2855 752 
Q 3116 1113 3116 1747 
z
" transform="scale(0.015625)"/>
       <path id="DejaVuSans-64" d="M 2906 2969 
L 2906 4863 
L 3481 4863 
L 3481 0 
L 2906 0 
L 2906 525 
Q 2725 213 2448 61 
Q 2172 -91 1784 -91 
Q 1150 -91 751 415 
Q 353 922 353 1747 
Q 353 2572 751 3078 
Q 1150 3584 1784 3584 
Q 2172 3584 2448 3432 
Q 2725 3281 2906 2969 
z
M 947 1747 
Q 947 1113 1208 752 
Q 1469 391 1925 391 
Q 2381 391 2643 752 
Q 2906 1113 2906 1747 
Q 2906 2381 2643 2742 
Q 2381 3103 1925 3103 
Q 1469 3103 1208 2742 
Q 947 2381 947 1747 
z
" transform="scale(0.015625)"/>
       <path id="DejaVuSans-72" d="M 2631 2963 
Q 2534 3019 2420 3045 
Q 2306 3072 2169 3072 
Q 1681 3072 1420 2755 
Q 1159 2438 1159 1844 
L 1159 0 
L 581 0 
L 581 3500 
L 1159 3500 
L 1159 2956 
Q 1341 3275 1631 3429 
Q 1922 3584 2338 3584 
Q 2397 3584 2469 3576 
Q 2541 3569 2628 3553 
L 2631 2963 
z
" transform="scale(0.015625)"/>
       <path id="DejaVuSans-77" d="M 269 3500 
L 844 3500 
L 1563 769 
L 2278 3500 
L 2956 3500 
L 3675 769 
L 4391 3500 
L 4966 3500 
L 4050 0 
L 3372 0 
L 2619 2869 
L 1863 0 
L 1184 0 
L 269 3500 
z
" transform="scale(0.015625)"/>
      </defs>
      <use xlink:href="#DejaVuSans-75"/>
      <use xlink:href="#DejaVuSans-73" x="63.378906"/>
      <use xlink:href="#DejaVuSans-69" x="115.478516"/>
      <use xlink:href="#DejaVuSans-6e" x="143.261719"/>
      <use xlink:href="#DejaVuSans-67" x="206.640625"/>
      <use xlink:href="#DejaVuSans-20" x="270.117188"/>
      <use xlink:href="#DejaVuSans-65" x="301.904297"/>
      <use xlink:href="#DejaVuSans-78" x="361.677734"/>
      <use xlink:href="#DejaVuSans-70" x="420.857422"/>
      <use xlink:href="#DejaVuSans-65" x="484.333984"/>
      <use xlink:href="#DejaVuSans-63" x="545.857422"/>
      <use xlink:href="#DejaVuSans-74" x="600.837891"/>
      <use xlink:href="#DejaVuSans-65" x="640.046875"/>
      <use xlink:href="#DejaVuSans-64" x="701.570312"/>
      <use xlink:href="#DejaVuSans-20" x="765.046875"/>
      <use xlink:href="#DejaVuSans-72" x="796.833984"/>
      <use xlink:href="#DejaVuSans-65" x="835.697266"/>
      <use xlink:href="#DejaVuSans-77" x="897.220703"/>
      <use xlink:href="#DejaVuSans-61" x="979.007812"/>
      <use xlink:href="#DejaVuSans-72" x="1040.287109"/>
      <use xlink:href="#DejaVuSans-64" x="1079.650391"/>
     </g>
    </g>
    <g id="patch_21">
     <path d="M 46.3 71.138441 
L 66.3 71.138441 
L 66.3 64.138441 
L 46.3 64.138441 
z
" style="fill: #e1812c; fill-opacity: 0.8; stroke: #3f3f3f; stroke-width: 0.75; stroke-linejoin: miter"/>
    </g>
    <g id="text_14">
     <!-- using reward -->
     <g style="fill: #262626" transform="translate(74.3 71.138441) scale(0.1 -0.1)">
      <use xlink:href="#DejaVuSans-75"/>
      <use xlink:href="#DejaVuSans-73" x="63.378906"/>
      <use xlink:href="#DejaVuSans-69" x="115.478516"/>
      <use xlink:href="#DejaVuSans-6e" x="143.261719"/>
      <use xlink:href="#DejaVuSans-67" x="206.640625"/>
      <use xlink:href="#DejaVuSans-20" x="270.117188"/>
      <use xlink:href="#DejaVuSans-72" x="301.904297"/>
      <use xlink:href="#DejaVuSans-65" x="340.767578"/>
      <use xlink:href="#DejaVuSans-77" x="402.291016"/>
      <use xlink:href="#DejaVuSans-61" x="484.078125"/>
      <use xlink:href="#DejaVuSans-72" x="545.357422"/>
      <use xlink:href="#DejaVuSans-64" x="584.720703"/>
     </g>
    </g>
   </g>
  </g>
  <g id="axes_2">
   <g id="patch_22">
    <path d="M 406.961111 237.8 
L 609.227778 237.8 
L 609.227778 26.8 
L 406.961111 26.8 
z
" style="fill: #ffffff"/>
   </g>
   <g id="matplotlib.axis_3">
    <g id="xtick_6">
     <g id="line2d_72">
      <g>
       <use xlink:href="#mb4ec131da3" x="457.527778" y="237.8" style="fill: #262626; stroke: #262626; stroke-width: 0.8"/>
      </g>
     </g>
     <g id="text_15">
      <!-- R-E(R) -->
      <g style="fill: #262626" transform="translate(435.669184 255.437813) scale(0.14 -0.14)">
       <defs>
        <path id="DejaVuSans-52" d="M 2841 2188 
Q 3044 2119 3236 1894 
Q 3428 1669 3622 1275 
L 4263 0 
L 3584 0 
L 2988 1197 
Q 2756 1666 2539 1819 
Q 2322 1972 1947 1972 
L 1259 1972 
L 1259 0 
L 628 0 
L 628 4666 
L 2053 4666 
Q 2853 4666 3247 4331 
Q 3641 3997 3641 3322 
Q 3641 2881 3436 2590 
Q 3231 2300 2841 2188 
z
M 1259 4147 
L 1259 2491 
L 2053 2491 
Q 2509 2491 2742 2702 
Q 2975 2913 2975 3322 
Q 2975 3731 2742 3939 
Q 2509 4147 2053 4147 
L 1259 4147 
z
" transform="scale(0.015625)"/>
        <path id="DejaVuSans-45" d="M 628 4666 
L 3578 4666 
L 3578 4134 
L 1259 4134 
L 1259 2753 
L 3481 2753 
L 3481 2222 
L 1259 2222 
L 1259 531 
L 3634 531 
L 3634 0 
L 628 0 
L 628 4666 
z
" transform="scale(0.015625)"/>
        <path id="DejaVuSans-28" d="M 1984 4856 
Q 1566 4138 1362 3434 
Q 1159 2731 1159 2009 
Q 1159 1288 1364 580 
Q 1569 -128 1984 -844 
L 1484 -844 
Q 1016 -109 783 600 
Q 550 1309 550 2009 
Q 550 2706 781 3412 
Q 1013 4119 1484 4856 
L 1984 4856 
z
" transform="scale(0.015625)"/>
        <path id="DejaVuSans-29" d="M 513 4856 
L 1013 4856 
Q 1481 4119 1714 3412 
Q 1947 2706 1947 2009 
Q 1947 1309 1714 600 
Q 1481 -109 1013 -844 
L 513 -844 
Q 928 -128 1133 580 
Q 1338 1288 1338 2009 
Q 1338 2731 1133 3434 
Q 928 4138 513 4856 
z
" transform="scale(0.015625)"/>
       </defs>
       <use xlink:href="#DejaVuSans-52"/>
       <use xlink:href="#DejaVuSans-2d" x="65.482422"/>
       <use xlink:href="#DejaVuSans-45" x="101.566406"/>
       <use xlink:href="#DejaVuSans-28" x="164.75"/>
       <use xlink:href="#DejaVuSans-52" x="203.763672"/>
       <use xlink:href="#DejaVuSans-29" x="273.246094"/>
      </g>
     </g>
    </g>
    <g id="xtick_7">
     <g id="line2d_73">
      <g>
       <use xlink:href="#mb4ec131da3" x="558.661111" y="237.8" style="fill: #262626; stroke: #262626; stroke-width: 0.8"/>
      </g>
     </g>
     <g id="text_16">
      <!-- R -->
      <g style="fill: #262626" transform="translate(553.797205 255.437813) scale(0.14 -0.14)">
       <use xlink:href="#DejaVuSans-52"/>
      </g>
     </g>
    </g>
    <g id="text_17">
     <!-- Plasticity Family -->
     <g style="fill: #262626" transform="translate(455.886241 272.227344) scale(0.13 -0.13)">
      <defs>
       <path id="DejaVuSans-ExtraLight-46" d="M 781 4666 
L 3147 4666 
L 3147 4406 
L 1097 4406 
L 1097 2616 
L 2947 2616 
L 2947 2363 
L 1097 2363 
L 1097 0 
L 781 0 
L 781 4666 
z
" transform="scale(0.015625)"/>
       <path id="DejaVuSans-ExtraLight-6d" d="M 3244 2738 
Q 3406 3159 3756 3375 
Q 4088 3584 4544 3584 
Q 5000 3584 5275 3263 
Q 5553 2944 5553 2113 
L 5553 0 
L 5269 0 
L 5269 2094 
Q 5269 2819 5069 3075 
Q 4869 3331 4538 3331 
Q 4056 3331 3688 3034 
Q 3284 2713 3284 1978 
L 3284 0 
L 2997 0 
L 2997 2094 
Q 2997 2794 2803 3062 
Q 2609 3331 2266 3331 
Q 1784 3331 1416 3031 
Q 1013 2709 1013 1978 
L 1013 0 
L 725 0 
L 725 3500 
L 1013 3500 
L 1013 2844 
Q 1166 3188 1488 3388 
Q 1813 3584 2284 3584 
Q 2591 3584 2875 3378 
Q 3094 3219 3244 2738 
z
" transform="scale(0.015625)"/>
      </defs>
      <use xlink:href="#DejaVuSans-ExtraLight-50"/>
      <use xlink:href="#DejaVuSans-ExtraLight-6c" x="60.302734"/>
      <use xlink:href="#DejaVuSans-ExtraLight-61" x="88.085938"/>
      <use xlink:href="#DejaVuSans-ExtraLight-73" x="149.365234"/>
      <use xlink:href="#DejaVuSans-ExtraLight-74" x="201.464844"/>
      <use xlink:href="#DejaVuSans-ExtraLight-69" x="240.673828"/>
      <use xlink:href="#DejaVuSans-ExtraLight-63" x="268.457031"/>
      <use xlink:href="#DejaVuSans-ExtraLight-69" x="323.4375"/>
      <use xlink:href="#DejaVuSans-ExtraLight-74" x="351.220703"/>
      <use xlink:href="#DejaVuSans-ExtraLight-79" x="390.429688"/>
      <use xlink:href="#DejaVuSans-ExtraLight-20" x="449.609375"/>
      <use xlink:href="#DejaVuSans-ExtraLight-46" x="481.396484"/>
      <use xlink:href="#DejaVuSans-ExtraLight-61" x="529.791016"/>
      <use xlink:href="#DejaVuSans-ExtraLight-6d" x="591.070312"/>
      <use xlink:href="#DejaVuSans-ExtraLight-69" x="688.482422"/>
      <use xlink:href="#DejaVuSans-ExtraLight-6c" x="716.265625"/>
      <use xlink:href="#DejaVuSans-ExtraLight-79" x="744.048828"/>
     </g>
    </g>
   </g>
   <g id="matplotlib.axis_4">
    <g id="ytick_6">
     <g id="line2d_74">
      <g>
       <use xlink:href="#m35d42a0069" x="406.961111" y="220.014706" style="fill: #262626; stroke: #262626; stroke-width: 0.8"/>
      </g>
     </g>
     <g id="text_18">
      <!-- 2 -->
      <g style="fill: #262626" transform="translate(393.598611 223.813924) scale(0.1 -0.1)">
       <defs>
        <path id="DejaVuSans-32" d="M 1228 531 
L 3431 531 
L 3431 0 
L 469 0 
L 469 531 
Q 828 903 1448 1529 
Q 2069 2156 2228 2338 
Q 2531 2678 2651 2914 
Q 2772 3150 2772 3378 
Q 2772 3750 2511 3984 
Q 2250 4219 1831 4219 
Q 1534 4219 1204 4116 
Q 875 4013 500 3803 
L 500 4441 
Q 881 4594 1212 4672 
Q 1544 4750 1819 4750 
Q 2544 4750 2975 4387 
Q 3406 4025 3406 3419 
Q 3406 3131 3298 2873 
Q 3191 2616 2906 2266 
Q 2828 2175 2409 1742 
Q 1991 1309 1228 531 
z
" transform="scale(0.015625)"/>
       </defs>
       <use xlink:href="#DejaVuSans-32"/>
      </g>
     </g>
    </g>
    <g id="ytick_7">
     <g id="line2d_75">
      <g>
       <use xlink:href="#m35d42a0069" x="406.961111" y="195.021538" style="fill: #262626; stroke: #262626; stroke-width: 0.8"/>
      </g>
     </g>
     <g id="text_19">
      <!-- 4 -->
      <g style="fill: #262626" transform="translate(393.598611 198.820756) scale(0.1 -0.1)">
       <defs>
        <path id="DejaVuSans-34" d="M 2419 4116 
L 825 1625 
L 2419 1625 
L 2419 4116 
z
M 2253 4666 
L 3047 4666 
L 3047 1625 
L 3713 1625 
L 3713 1100 
L 3047 1100 
L 3047 0 
L 2419 0 
L 2419 1100 
L 313 1100 
L 313 1709 
L 2253 4666 
z
" transform="scale(0.015625)"/>
       </defs>
       <use xlink:href="#DejaVuSans-34"/>
      </g>
     </g>
    </g>
    <g id="ytick_8">
     <g id="line2d_76">
      <g>
       <use xlink:href="#m35d42a0069" x="406.961111" y="170.02837" style="fill: #262626; stroke: #262626; stroke-width: 0.8"/>
      </g>
     </g>
     <g id="text_20">
      <!-- 6 -->
      <g style="fill: #262626" transform="translate(393.598611 173.827589) scale(0.1 -0.1)">
       <defs>
        <path id="DejaVuSans-36" d="M 2113 2584 
Q 1688 2584 1439 2293 
Q 1191 2003 1191 1497 
Q 1191 994 1439 701 
Q 1688 409 2113 409 
Q 2538 409 2786 701 
Q 3034 994 3034 1497 
Q 3034 2003 2786 2293 
Q 2538 2584 2113 2584 
z
M 3366 4563 
L 3366 3988 
Q 3128 4100 2886 4159 
Q 2644 4219 2406 4219 
Q 1781 4219 1451 3797 
Q 1122 3375 1075 2522 
Q 1259 2794 1537 2939 
Q 1816 3084 2150 3084 
Q 2853 3084 3261 2657 
Q 3669 2231 3669 1497 
Q 3669 778 3244 343 
Q 2819 -91 2113 -91 
Q 1303 -91 875 529 
Q 447 1150 447 2328 
Q 447 3434 972 4092 
Q 1497 4750 2381 4750 
Q 2619 4750 2861 4703 
Q 3103 4656 3366 4563 
z
" transform="scale(0.015625)"/>
       </defs>
       <use xlink:href="#DejaVuSans-36"/>
      </g>
     </g>
    </g>
    <g id="ytick_9">
     <g id="line2d_77">
      <g>
       <use xlink:href="#m35d42a0069" x="406.961111" y="145.035202" style="fill: #262626; stroke: #262626; stroke-width: 0.8"/>
      </g>
     </g>
     <g id="text_21">
      <!-- 8 -->
      <g style="fill: #262626" transform="translate(393.598611 148.834421) scale(0.1 -0.1)">
       <defs>
        <path id="DejaVuSans-38" d="M 2034 2216 
Q 1584 2216 1326 1975 
Q 1069 1734 1069 1313 
Q 1069 891 1326 650 
Q 1584 409 2034 409 
Q 2484 409 2743 651 
Q 3003 894 3003 1313 
Q 3003 1734 2745 1975 
Q 2488 2216 2034 2216 
z
M 1403 2484 
Q 997 2584 770 2862 
Q 544 3141 544 3541 
Q 544 4100 942 4425 
Q 1341 4750 2034 4750 
Q 2731 4750 3128 4425 
Q 3525 4100 3525 3541 
Q 3525 3141 3298 2862 
Q 3072 2584 2669 2484 
Q 3125 2378 3379 2068 
Q 3634 1759 3634 1313 
Q 3634 634 3220 271 
Q 2806 -91 2034 -91 
Q 1263 -91 848 271 
Q 434 634 434 1313 
Q 434 1759 690 2068 
Q 947 2378 1403 2484 
z
M 1172 3481 
Q 1172 3119 1398 2916 
Q 1625 2713 2034 2713 
Q 2441 2713 2670 2916 
Q 2900 3119 2900 3481 
Q 2900 3844 2670 4047 
Q 2441 4250 2034 4250 
Q 1625 4250 1398 4047 
Q 1172 3844 1172 3481 
z
" transform="scale(0.015625)"/>
       </defs>
       <use xlink:href="#DejaVuSans-38"/>
      </g>
     </g>
    </g>
    <g id="ytick_10">
     <g id="line2d_78">
      <g>
       <use xlink:href="#m35d42a0069" x="406.961111" y="120.042034" style="fill: #262626; stroke: #262626; stroke-width: 0.8"/>
      </g>
     </g>
     <g id="text_22">
      <!-- 10 -->
      <g style="fill: #262626" transform="translate(387.236111 123.841253) scale(0.1 -0.1)">
       <use xlink:href="#DejaVuSans-31"/>
       <use xlink:href="#DejaVuSans-30" x="63.623047"/>
      </g>
     </g>
    </g>
    <g id="ytick_11">
     <g id="line2d_79">
      <g>
       <use xlink:href="#m35d42a0069" x="406.961111" y="95.048866" style="fill: #262626; stroke: #262626; stroke-width: 0.8"/>
      </g>
     </g>
     <g id="text_23">
      <!-- 12 -->
      <g style="fill: #262626" transform="translate(387.236111 98.848085) scale(0.1 -0.1)">
       <use xlink:href="#DejaVuSans-31"/>
       <use xlink:href="#DejaVuSans-32" x="63.623047"/>
      </g>
     </g>
    </g>
    <g id="ytick_12">
     <g id="line2d_80">
      <g>
       <use xlink:href="#m35d42a0069" x="406.961111" y="70.055699" style="fill: #262626; stroke: #262626; stroke-width: 0.8"/>
      </g>
     </g>
     <g id="text_24">
      <!-- 14 -->
      <g style="fill: #262626" transform="translate(387.236111 73.854917) scale(0.1 -0.1)">
       <use xlink:href="#DejaVuSans-31"/>
       <use xlink:href="#DejaVuSans-34" x="63.623047"/>
      </g>
     </g>
    </g>
    <g id="ytick_13">
     <g id="line2d_81">
      <g>
       <use xlink:href="#m35d42a0069" x="406.961111" y="45.062531" style="fill: #262626; stroke: #262626; stroke-width: 0.8"/>
      </g>
     </g>
     <g id="text_25">
      <!-- 16 -->
      <g style="fill: #262626" transform="translate(387.236111 48.86175) scale(0.1 -0.1)">
       <use xlink:href="#DejaVuSans-31"/>
       <use xlink:href="#DejaVuSans-36" x="63.623047"/>
      </g>
     </g>
    </g>
   </g>
   <g id="patch_23">
    <path d="M 432.244444 184.206458 
L 482.811111 184.206458 
L 482.811111 105.265493 
L 432.244444 105.265493 
L 432.244444 184.206458 
z
" clip-path="url(#p1fbfe59295)" style="fill: #3274a1; fill-opacity: 0.6; stroke: #3f3f3f; stroke-width: 1.5; stroke-linejoin: miter"/>
   </g>
   <g id="patch_24">
    <path d="M 533.377778 186.22244 
L 583.944444 186.22244 
L 583.944444 111.905662 
L 533.377778 111.905662 
L 533.377778 186.22244 
z
" clip-path="url(#p1fbfe59295)" style="fill: #e1812c; fill-opacity: 0.6; stroke: #3f3f3f; stroke-width: 1.5; stroke-linejoin: miter"/>
   </g>
   <g id="PathCollection_1"/>
   <g id="PathCollection_2"/>
   <g id="PathCollection_3"/>
   <g id="PathCollection_4"/>
   <g id="PathCollection_5"/>
   <g id="PathCollection_6"/>
   <g id="line2d_82">
    <path d="M 457.527778 184.206458 
L 457.527778 212.947106 
" clip-path="url(#p1fbfe59295)" style="fill: none; stroke: #3f3f3f; stroke-width: 1.5; stroke-linecap: round"/>
   </g>
   <g id="line2d_83">
    <path d="M 457.527778 105.265493 
L 457.527778 68.480547 
" clip-path="url(#p1fbfe59295)" style="fill: none; stroke: #3f3f3f; stroke-width: 1.5; stroke-linecap: round"/>
   </g>
   <g id="line2d_84">
    <path d="M 444.886111 212.947106 
L 470.169444 212.947106 
" clip-path="url(#p1fbfe59295)" style="fill: none; stroke: #3f3f3f; stroke-width: 1.5; stroke-linecap: round"/>
   </g>
   <g id="line2d_85">
    <path d="M 444.886111 68.480547 
L 470.169444 68.480547 
" clip-path="url(#p1fbfe59295)" style="fill: none; stroke: #3f3f3f; stroke-width: 1.5; stroke-linecap: round"/>
   </g>
   <g id="line2d_86"/>
   <g id="line2d_87">
    <path d="M 558.661111 186.22244 
L 558.661111 228.209091 
" clip-path="url(#p1fbfe59295)" style="fill: none; stroke: #3f3f3f; stroke-width: 1.5; stroke-linecap: round"/>
   </g>
   <g id="line2d_88">
    <path d="M 558.661111 111.905662 
L 558.661111 36.390909 
" clip-path="url(#p1fbfe59295)" style="fill: none; stroke: #3f3f3f; stroke-width: 1.5; stroke-linecap: round"/>
   </g>
   <g id="line2d_89">
    <path d="M 546.019444 228.209091 
L 571.302778 228.209091 
" clip-path="url(#p1fbfe59295)" style="fill: none; stroke: #3f3f3f; stroke-width: 1.5; stroke-linecap: round"/>
   </g>
   <g id="line2d_90">
    <path d="M 546.019444 36.390909 
L 571.302778 36.390909 
" clip-path="url(#p1fbfe59295)" style="fill: none; stroke: #3f3f3f; stroke-width: 1.5; stroke-linecap: round"/>
   </g>
   <g id="line2d_91"/>
   <g id="line2d_92">
    <path d="M 432.244444 152.005334 
L 482.811111 152.005334 
" clip-path="url(#p1fbfe59295)" style="fill: none; stroke: #3f3f3f; stroke-width: 1.5; stroke-linecap: round"/>
   </g>
   <g id="line2d_93">
    <path d="M 533.377778 171.68664 
L 583.944444 171.68664 
" clip-path="url(#p1fbfe59295)" style="fill: none; stroke: #3f3f3f; stroke-width: 1.5; stroke-linecap: round"/>
   </g>
   <g id="patch_25">
    <path d="M 406.961111 237.8 
L 406.961111 26.8 
" style="fill: none; stroke: #262626; stroke-width: 0.8; stroke-linejoin: miter; stroke-linecap: square"/>
   </g>
   <g id="patch_26">
    <path d="M 609.227778 237.8 
L 609.227778 26.8 
" style="fill: none; stroke: #262626; stroke-width: 0.8; stroke-linejoin: miter; stroke-linecap: square"/>
   </g>
   <g id="patch_27">
    <path d="M 406.961111 237.8 
L 609.227778 237.8 
" style="fill: none; stroke: #262626; stroke-width: 0.8; stroke-linejoin: miter; stroke-linecap: square"/>
   </g>
   <g id="patch_28">
    <path d="M 406.961111 26.8 
L 609.227778 26.8 
" style="fill: none; stroke: #262626; stroke-width: 0.8; stroke-linejoin: miter; stroke-linecap: square"/>
   </g>
   <g id="PathCollection_7">
    <defs>
     <path id="C0_0_3cb31cf3de" d="M 0 3.75 
C 0.994512 3.75 1.948425 3.354876 2.65165 2.65165 
C 3.354876 1.948425 3.75 0.994512 3.75 -0 
C 3.75 -0.994512 3.354876 -1.948425 2.65165 -2.65165 
C 1.948425 -3.354876 0.994512 -3.75 0 -3.75 
C -0.994512 -3.75 -1.948425 -3.354876 -2.65165 -2.65165 
C -3.354876 -1.948425 -3.75 -0.994512 -3.75 0 
C -3.75 0.994512 -3.354876 1.948425 -2.65165 2.65165 
C -1.948425 3.354876 -0.994512 3.75 0 3.75 
z
"/>
    </defs>
    <g clip-path="url(#p1fbfe59295)">
     <use xlink:href="#C0_0_3cb31cf3de" x="447.924622" y="189.474961" style="fill: #edd1cb"/>
    </g>
    <g clip-path="url(#p1fbfe59295)">
     <use xlink:href="#C0_0_3cb31cf3de" x="454.373632" y="188.256413" style="fill: #a3628c"/>
    </g>
    <g clip-path="url(#p1fbfe59295)">
     <use xlink:href="#C0_0_3cb31cf3de" x="461.428185" y="212.947106" style="fill: #965886"/>
    </g>
    <g clip-path="url(#p1fbfe59295)">
     <use xlink:href="#C0_0_3cb31cf3de" x="467.350472" y="182.709032" style="fill: #884f7f"/>
    </g>
    <g clip-path="url(#p1fbfe59295)">
     <use xlink:href="#C0_0_3cb31cf3de" x="457.708025" y="68.480547" style="fill: #794678"/>
    </g>
    <g clip-path="url(#p1fbfe59295)">
     <use xlink:href="#C0_0_3cb31cf3de" x="458.287318" y="152.015372" style="fill: #693d6f"/>
    </g>
    <g clip-path="url(#p1fbfe59295)">
     <use xlink:href="#C0_0_3cb31cf3de" x="464.772817" y="74.47168" style="fill: #5b3665"/>
    </g>
    <g clip-path="url(#p1fbfe59295)">
     <use xlink:href="#C0_0_3cb31cf3de" x="453.045331" y="151.183162" style="fill: #4b2e59"/>
    </g>
    <g clip-path="url(#p1fbfe59295)">
     <use xlink:href="#C0_0_3cb31cf3de" x="450.835474" y="145.565982" style="fill: #3b264b"/>
    </g>
    <g clip-path="url(#p1fbfe59295)">
     <use xlink:href="#C0_0_3cb31cf3de" x="453.266828" y="70.470634" style="fill: #2d1e3e"/>
    </g>
    <g clip-path="url(#p1fbfe59295)">
     <use xlink:href="#C0_0_3cb31cf3de" x="466.062418" y="76.691236" style="fill: #e9c4c1"/>
    </g>
    <g clip-path="url(#p1fbfe59295)">
     <use xlink:href="#C0_0_3cb31cf3de" x="449.606203" y="192.368888" style="fill: #e3b6b7"/>
    </g>
    <g clip-path="url(#p1fbfe59295)">
     <use xlink:href="#C0_0_3cb31cf3de" x="449.214369" y="129.607124" style="fill: #dda9af"/>
    </g>
    <g clip-path="url(#p1fbfe59295)">
     <use xlink:href="#C0_0_3cb31cf3de" x="457.530344" y="184.7056" style="fill: #d69ca8"/>
    </g>
    <g clip-path="url(#p1fbfe59295)">
     <use xlink:href="#C0_0_3cb31cf3de" x="462.177563" y="176.788447" style="fill: #ce8fa2"/>
    </g>
    <g clip-path="url(#p1fbfe59295)">
     <use xlink:href="#C0_0_3cb31cf3de" x="466.742125" y="151.995295" style="fill: #c5849d"/>
    </g>
    <g clip-path="url(#p1fbfe59295)">
     <use xlink:href="#C0_0_3cb31cf3de" x="458.17345" y="97.151616" style="fill: #bb7797"/>
    </g>
    <g clip-path="url(#p1fbfe59295)">
     <use xlink:href="#C0_0_3cb31cf3de" x="456.54849" y="158.940799" style="fill: #b06d92"/>
    </g>
   </g>
   <g id="PathCollection_8">
    <defs>
     <path id="C1_0_4529f0ba84" d="M 0 3.75 
C 0.994512 3.75 1.948425 3.354876 2.65165 2.65165 
C 3.354876 1.948425 3.75 0.994512 3.75 -0 
C 3.75 -0.994512 3.354876 -1.948425 2.65165 -2.65165 
C 1.948425 -3.354876 0.994512 -3.75 0 -3.75 
C -0.994512 -3.75 -1.948425 -3.354876 -2.65165 -2.65165 
C -3.354876 -1.948425 -3.75 -0.994512 -3.75 0 
C -3.75 0.994512 -3.354876 1.948425 -2.65165 2.65165 
C -1.948425 3.354876 -0.994512 3.75 0 3.75 
z
"/>
    </defs>
    <g clip-path="url(#p1fbfe59295)">
     <use xlink:href="#C1_0_4529f0ba84" x="560.879466" y="196.537256" style="fill: #edd1cb"/>
    </g>
    <g clip-path="url(#p1fbfe59295)">
     <use xlink:href="#C1_0_4529f0ba84" x="565.076744" y="186.608633" style="fill: #a3628c"/>
    </g>
    <g clip-path="url(#p1fbfe59295)">
     <use xlink:href="#C1_0_4529f0ba84" x="566.127683" y="228.209091" style="fill: #965886"/>
    </g>
    <g clip-path="url(#p1fbfe59295)">
     <use xlink:href="#C1_0_4529f0ba84" x="558.62097" y="180.542618" style="fill: #884f7f"/>
    </g>
    <g clip-path="url(#p1fbfe59295)">
     <use xlink:href="#C1_0_4529f0ba84" x="564.987425" y="36.390909" style="fill: #794678"/>
    </g>
    <g clip-path="url(#p1fbfe59295)">
     <use xlink:href="#C1_0_4529f0ba84" x="563.457058" y="165.077878" style="fill: #693d6f"/>
    </g>
    <g clip-path="url(#p1fbfe59295)">
     <use xlink:href="#C1_0_4529f0ba84" x="562.107946" y="101.771062" style="fill: #5b3665"/>
    </g>
    <g clip-path="url(#p1fbfe59295)">
     <use xlink:href="#C1_0_4529f0ba84" x="562.881325" y="142.309461" style="fill: #4b2e59"/>
    </g>
    <g clip-path="url(#p1fbfe59295)">
     <use xlink:href="#C1_0_4529f0ba84" x="557.901665" y="188.045759" style="fill: #3b264b"/>
    </g>
    <g clip-path="url(#p1fbfe59295)">
     <use xlink:href="#C1_0_4529f0ba84" x="563.835016" y="77.971161" style="fill: #2d1e3e"/>
    </g>
    <g clip-path="url(#p1fbfe59295)">
     <use xlink:href="#C1_0_4529f0ba84" x="559.045319" y="89.08186" style="fill: #e9c4c1"/>
    </g>
    <g clip-path="url(#p1fbfe59295)">
     <use xlink:href="#C1_0_4529f0ba84" x="566.246088" y="194.236816" style="fill: #e3b6b7"/>
    </g>
    <g clip-path="url(#p1fbfe59295)">
     <use xlink:href="#C1_0_4529f0ba84" x="550.076276" y="181.146669" style="fill: #dda9af"/>
    </g>
    <g clip-path="url(#p1fbfe59295)">
     <use xlink:href="#C1_0_4529f0ba84" x="548.569938" y="162.678549" style="fill: #d69ca8"/>
    </g>
    <g clip-path="url(#p1fbfe59295)">
     <use xlink:href="#C1_0_4529f0ba84" x="562.227872" y="177.468447" style="fill: #ce8fa2"/>
    </g>
    <g clip-path="url(#p1fbfe59295)">
     <use xlink:href="#C1_0_4529f0ba84" x="557.594076" y="185.063862" style="fill: #c5849d"/>
    </g>
    <g clip-path="url(#p1fbfe59295)">
     <use xlink:href="#C1_0_4529f0ba84" x="557.14205" y="100.735705" style="fill: #bb7797"/>
    </g>
    <g clip-path="url(#p1fbfe59295)">
     <use xlink:href="#C1_0_4529f0ba84" x="564.004433" y="165.904833" style="fill: #b06d92"/>
    </g>
   </g>
   <g id="text_26">
    <!-- 0.067 (p-value) -->
    <g style="fill: #262626" transform="translate(441.896528 51.21125) scale(0.12 -0.12)">
     <defs>
      <path id="DejaVuSans-37" d="M 525 4666 
L 3525 4666 
L 3525 4397 
L 1831 0 
L 1172 0 
L 2766 4134 
L 525 4134 
L 525 4666 
z
" transform="scale(0.015625)"/>
      <path id="DejaVuSans-76" d="M 191 3500 
L 800 3500 
L 1894 563 
L 2988 3500 
L 3597 3500 
L 2284 0 
L 1503 0 
L 191 3500 
z
" transform="scale(0.015625)"/>
     </defs>
     <use xlink:href="#DejaVuSans-30"/>
     <use xlink:href="#DejaVuSans-2e" x="63.623047"/>
     <use xlink:href="#DejaVuSans-30" x="95.410156"/>
     <use xlink:href="#DejaVuSans-36" x="159.033203"/>
     <use xlink:href="#DejaVuSans-37" x="222.65625"/>
     <use xlink:href="#DejaVuSans-20" x="286.279297"/>
     <use xlink:href="#DejaVuSans-28" x="318.066406"/>
     <use xlink:href="#DejaVuSans-70" x="357.080078"/>
     <use xlink:href="#DejaVuSans-2d" x="420.556641"/>
     <use xlink:href="#DejaVuSans-76" x="454.015625"/>
     <use xlink:href="#DejaVuSans-61" x="513.195312"/>
     <use xlink:href="#DejaVuSans-6c" x="574.474609"/>
     <use xlink:href="#DejaVuSans-75" x="602.257812"/>
     <use xlink:href="#DejaVuSans-65" x="665.636719"/>
     <use xlink:href="#DejaVuSans-29" x="727.160156"/>
    </g>
   </g>
   <g id="text_27">
    <!-- % Deviance Explained -->
    <g style="fill: #262626" transform="translate(441.113819 20.8) scale(0.12 -0.12)">
     <defs>
      <path id="DejaVuSans-25" d="M 4653 2053 
Q 4381 2053 4226 1822 
Q 4072 1591 4072 1178 
Q 4072 772 4226 539 
Q 4381 306 4653 306 
Q 4919 306 5073 539 
Q 5228 772 5228 1178 
Q 5228 1588 5073 1820 
Q 4919 2053 4653 2053 
z
M 4653 2450 
Q 5147 2450 5437 2106 
Q 5728 1763 5728 1178 
Q 5728 594 5436 251 
Q 5144 -91 4653 -91 
Q 4153 -91 3862 251 
Q 3572 594 3572 1178 
Q 3572 1766 3864 2108 
Q 4156 2450 4653 2450 
z
M 1428 4353 
Q 1159 4353 1004 4120 
Q 850 3888 850 3481 
Q 850 3069 1003 2837 
Q 1156 2606 1428 2606 
Q 1700 2606 1854 2837 
Q 2009 3069 2009 3481 
Q 2009 3884 1853 4118 
Q 1697 4353 1428 4353 
z
M 4250 4750 
L 4750 4750 
L 1831 -91 
L 1331 -91 
L 4250 4750 
z
M 1428 4750 
Q 1922 4750 2215 4408 
Q 2509 4066 2509 3481 
Q 2509 2891 2217 2550 
Q 1925 2209 1428 2209 
Q 931 2209 642 2551 
Q 353 2894 353 3481 
Q 353 4063 643 4406 
Q 934 4750 1428 4750 
z
" transform="scale(0.015625)"/>
      <path id="DejaVuSans-44" d="M 1259 4147 
L 1259 519 
L 2022 519 
Q 2988 519 3436 956 
Q 3884 1394 3884 2338 
Q 3884 3275 3436 3711 
Q 2988 4147 2022 4147 
L 1259 4147 
z
M 628 4666 
L 1925 4666 
Q 3281 4666 3915 4102 
Q 4550 3538 4550 2338 
Q 4550 1131 3912 565 
Q 3275 0 1925 0 
L 628 0 
L 628 4666 
z
" transform="scale(0.015625)"/>
     </defs>
     <use xlink:href="#DejaVuSans-25"/>
     <use xlink:href="#DejaVuSans-20" x="95.019531"/>
     <use xlink:href="#DejaVuSans-44" x="126.806641"/>
     <use xlink:href="#DejaVuSans-65" x="203.808594"/>
     <use xlink:href="#DejaVuSans-76" x="265.332031"/>
     <use xlink:href="#DejaVuSans-69" x="324.511719"/>
     <use xlink:href="#DejaVuSans-61" x="352.294922"/>
     <use xlink:href="#DejaVuSans-6e" x="413.574219"/>
     <use xlink:href="#DejaVuSans-63" x="476.953125"/>
     <use xlink:href="#DejaVuSans-65" x="531.933594"/>
     <use xlink:href="#DejaVuSans-20" x="593.457031"/>
     <use xlink:href="#DejaVuSans-45" x="625.244141"/>
     <use xlink:href="#DejaVuSans-78" x="688.427734"/>
     <use xlink:href="#DejaVuSans-70" x="747.607422"/>
     <use xlink:href="#DejaVuSans-6c" x="811.083984"/>
     <use xlink:href="#DejaVuSans-61" x="838.867188"/>
     <use xlink:href="#DejaVuSans-69" x="900.146484"/>
     <use xlink:href="#DejaVuSans-6e" x="927.929688"/>
     <use xlink:href="#DejaVuSans-65" x="991.308594"/>
     <use xlink:href="#DejaVuSans-64" x="1052.832031"/>
    </g>
   </g>
  </g>
  <g id="axes_3">
   <g id="patch_29">
    <path d="M 641.777778 237.8 
L 709.2 237.8 
L 709.2 26.8 
L 641.777778 26.8 
z
" style="fill: #ffffff"/>
   </g>
   <g id="matplotlib.axis_5">
    <g id="xtick_8">
     <g id="line2d_94">
      <g>
       <use xlink:href="#mb4ec131da3" x="675.488889" y="237.8" style="fill: #262626; stroke: #262626; stroke-width: 0.8"/>
      </g>
     </g>
    </g>
    <g id="text_28">
     <!-- Flies -->
     <g style="fill: #262626" transform="translate(659.61967 259.437813) scale(0.14 -0.14)">
      <use xlink:href="#DejaVuSans-46"/>
      <use xlink:href="#DejaVuSans-6c" x="57.519531"/>
      <use xlink:href="#DejaVuSans-69" x="85.302734"/>
      <use xlink:href="#DejaVuSans-65" x="113.085938"/>
      <use xlink:href="#DejaVuSans-73" x="174.609375"/>
     </g>
    </g>
   </g>
   <g id="matplotlib.axis_6">
    <g id="ytick_14">
     <g id="line2d_95">
      <g>
       <use xlink:href="#m35d42a0069" x="641.777778" y="226.077778" style="fill: #262626; stroke: #262626; stroke-width: 0.8"/>
      </g>
     </g>
     <g id="text_29">
      <!-- 4 -->
      <g style="fill: #262626" transform="translate(620.03559 229.876997) scale(0.1 -0.1)">
       <defs>
        <path id="DejaVuSans-2212" d="M 678 2272 
L 4684 2272 
L 4684 1741 
L 678 1741 
L 678 2272 
z
" transform="scale(0.015625)"/>
       </defs>
       <use xlink:href="#DejaVuSans-2212"/>
       <use xlink:href="#DejaVuSans-34" x="83.789062"/>
      </g>
     </g>
    </g>
    <g id="ytick_15">
     <g id="line2d_96">
      <g>
       <use xlink:href="#m35d42a0069" x="641.777778" y="202.633333" style="fill: #262626; stroke: #262626; stroke-width: 0.8"/>
      </g>
     </g>
     <g id="text_30">
      <!-- 3 -->
      <g style="fill: #262626" transform="translate(620.03559 206.432552) scale(0.1 -0.1)">
       <defs>
        <path id="DejaVuSans-33" d="M 2597 2516 
Q 3050 2419 3304 2112 
Q 3559 1806 3559 1356 
Q 3559 666 3084 287 
Q 2609 -91 1734 -91 
Q 1441 -91 1130 -33 
Q 819 25 488 141 
L 488 750 
Q 750 597 1062 519 
Q 1375 441 1716 441 
Q 2309 441 2620 675 
Q 2931 909 2931 1356 
Q 2931 1769 2642 2001 
Q 2353 2234 1838 2234 
L 1294 2234 
L 1294 2753 
L 1863 2753 
Q 2328 2753 2575 2939 
Q 2822 3125 2822 3475 
Q 2822 3834 2567 4026 
Q 2313 4219 1838 4219 
Q 1578 4219 1281 4162 
Q 984 4106 628 3988 
L 628 4550 
Q 988 4650 1302 4700 
Q 1616 4750 1894 4750 
Q 2613 4750 3031 4423 
Q 3450 4097 3450 3541 
Q 3450 3153 3228 2886 
Q 3006 2619 2597 2516 
z
" transform="scale(0.015625)"/>
       </defs>
       <use xlink:href="#DejaVuSans-2212"/>
       <use xlink:href="#DejaVuSans-33" x="83.789062"/>
      </g>
     </g>
    </g>
    <g id="ytick_16">
     <g id="line2d_97">
      <g>
       <use xlink:href="#m35d42a0069" x="641.777778" y="179.188889" style="fill: #262626; stroke: #262626; stroke-width: 0.8"/>
      </g>
     </g>
     <g id="text_31">
      <!-- 2 -->
      <g style="fill: #262626" transform="translate(620.03559 182.988108) scale(0.1 -0.1)">
       <use xlink:href="#DejaVuSans-2212"/>
       <use xlink:href="#DejaVuSans-32" x="83.789062"/>
      </g>
     </g>
    </g>
    <g id="ytick_17">
     <g id="line2d_98">
      <g>
       <use xlink:href="#m35d42a0069" x="641.777778" y="155.744444" style="fill: #262626; stroke: #262626; stroke-width: 0.8"/>
      </g>
     </g>
     <g id="text_32">
      <!-- 1 -->
      <g style="fill: #262626" transform="translate(620.03559 159.543663) scale(0.1 -0.1)">
       <use xlink:href="#DejaVuSans-2212"/>
       <use xlink:href="#DejaVuSans-31" x="83.789062"/>
      </g>
     </g>
    </g>
    <g id="ytick_18">
     <g id="line2d_99">
      <g>
       <use xlink:href="#m35d42a0069" x="641.777778" y="132.3" style="fill: #262626; stroke: #262626; stroke-width: 0.8"/>
      </g>
     </g>
     <g id="text_33">
      <!-- 0 -->
      <g style="fill: #262626" transform="translate(628.415278 136.099219) scale(0.1 -0.1)">
       <use xlink:href="#DejaVuSans-30"/>
      </g>
     </g>
    </g>
    <g id="ytick_19">
     <g id="line2d_100">
      <g>
       <use xlink:href="#m35d42a0069" x="641.777778" y="108.855556" style="fill: #262626; stroke: #262626; stroke-width: 0.8"/>
      </g>
     </g>
     <g id="text_34">
      <!-- 1 -->
      <g style="fill: #262626" transform="translate(628.415278 112.654774) scale(0.1 -0.1)">
       <use xlink:href="#DejaVuSans-31"/>
      </g>
     </g>
    </g>
    <g id="ytick_20">
     <g id="line2d_101">
      <g>
       <use xlink:href="#m35d42a0069" x="641.777778" y="85.411111" style="fill: #262626; stroke: #262626; stroke-width: 0.8"/>
      </g>
     </g>
     <g id="text_35">
      <!-- 2 -->
      <g style="fill: #262626" transform="translate(628.415278 89.21033) scale(0.1 -0.1)">
       <use xlink:href="#DejaVuSans-32"/>
      </g>
     </g>
    </g>
    <g id="ytick_21">
     <g id="line2d_102">
      <g>
       <use xlink:href="#m35d42a0069" x="641.777778" y="61.966667" style="fill: #262626; stroke: #262626; stroke-width: 0.8"/>
      </g>
     </g>
     <g id="text_36">
      <!-- 3 -->
      <g style="fill: #262626" transform="translate(628.415278 65.765885) scale(0.1 -0.1)">
       <use xlink:href="#DejaVuSans-33"/>
      </g>
     </g>
    </g>
    <g id="ytick_22">
     <g id="line2d_103">
      <g>
       <use xlink:href="#m35d42a0069" x="641.777778" y="38.522222" style="fill: #262626; stroke: #262626; stroke-width: 0.8"/>
      </g>
     </g>
     <g id="text_37">
      <!-- 4 -->
      <g style="fill: #262626" transform="translate(628.415278 42.321441) scale(0.1 -0.1)">
       <use xlink:href="#DejaVuSans-34"/>
      </g>
     </g>
    </g>
   </g>
   <g id="PathCollection_9"/>
   <g id="PathCollection_10"/>
   <g id="PathCollection_11"/>
   <g id="PathCollection_12"/>
   <g id="PathCollection_13"/>
   <g id="PathCollection_14"/>
   <g id="line2d_104">
    <path d="M 641.777778 132.3 
L 709.2 132.3 
" clip-path="url(#p8126ed6097)" style="fill: none; stroke-dasharray: 5.55,2.4; stroke-dashoffset: 0; stroke: #808080; stroke-opacity: 0.7; stroke-width: 1.5"/>
   </g>
   <g id="patch_30">
    <path d="M 641.777778 237.8 
L 641.777778 26.8 
" style="fill: none; stroke: #262626; stroke-width: 0.8; stroke-linejoin: miter; stroke-linecap: square"/>
   </g>
   <g id="patch_31">
    <path d="M 709.2 237.8 
L 709.2 26.8 
" style="fill: none; stroke: #262626; stroke-width: 0.8; stroke-linejoin: miter; stroke-linecap: square"/>
   </g>
   <g id="patch_32">
    <path d="M 641.777778 237.8 
L 709.2 237.8 
" style="fill: none; stroke: #262626; stroke-width: 0.8; stroke-linejoin: miter; stroke-linecap: square"/>
   </g>
   <g id="patch_33">
    <path d="M 641.777778 26.8 
L 709.2 26.8 
" style="fill: none; stroke: #262626; stroke-width: 0.8; stroke-linejoin: miter; stroke-linecap: square"/>
   </g>
   <g id="PathCollection_15">
    <defs>
     <path id="C2_0_9f7db240c3" d="M 0 3.75 
C 0.994512 3.75 1.948425 3.354876 2.65165 2.65165 
C 3.354876 1.948425 3.75 0.994512 3.75 -0 
C 3.75 -0.994512 3.354876 -1.948425 2.65165 -2.65165 
C 1.948425 -3.354876 0.994512 -3.75 0 -3.75 
C -0.994512 -3.75 -1.948425 -3.354876 -2.65165 -2.65165 
C -3.354876 -1.948425 -3.75 -0.994512 -3.75 0 
C -3.75 0.994512 -3.354876 1.948425 -2.65165 2.65165 
C -1.948425 3.354876 -0.994512 3.75 0 3.75 
z
"/>
    </defs>
    <g clip-path="url(#p8126ed6097)">
     <use xlink:href="#C2_0_9f7db240c3" x="669.303013" y="119.050652" style="fill: #edd1cb"/>
    </g>
    <g clip-path="url(#p8126ed6097)">
     <use xlink:href="#C2_0_9f7db240c3" x="673.689945" y="109.054344" style="fill: #e9c4c1"/>
    </g>
    <g clip-path="url(#p8126ed6097)">
     <use xlink:href="#C2_0_9f7db240c3" x="687.945274" y="128.795639" style="fill: #e3b6b7"/>
    </g>
    <g clip-path="url(#p8126ed6097)">
     <use xlink:href="#C2_0_9f7db240c3" x="682.761795" y="35.608295" style="fill: #dda9af"/>
    </g>
    <g clip-path="url(#p8126ed6097)">
     <use xlink:href="#C2_0_9f7db240c3" x="668.629125" y="173.624252" style="fill: #d69ca8"/>
    </g>
    <g clip-path="url(#p8126ed6097)">
     <use xlink:href="#C2_0_9f7db240c3" x="677.06782" y="131.024274" style="fill: #ce8fa2"/>
    </g>
    <g clip-path="url(#p8126ed6097)">
     <use xlink:href="#C2_0_9f7db240c3" x="673.740371" y="70.26111" style="fill: #c5849d"/>
    </g>
    <g clip-path="url(#p8126ed6097)">
     <use xlink:href="#C2_0_9f7db240c3" x="682.613527" y="125.576004" style="fill: #bb7797"/>
    </g>
    <g clip-path="url(#p8126ed6097)">
     <use xlink:href="#C2_0_9f7db240c3" x="679.350275" y="119.234997" style="fill: #b06d92"/>
    </g>
    <g clip-path="url(#p8126ed6097)">
     <use xlink:href="#C2_0_9f7db240c3" x="688.104507" y="135.391348" style="fill: #a3628c"/>
    </g>
    <g clip-path="url(#p8126ed6097)">
     <use xlink:href="#C2_0_9f7db240c3" x="664.864615" y="103.667475" style="fill: #965886"/>
    </g>
    <g clip-path="url(#p8126ed6097)">
     <use xlink:href="#C2_0_9f7db240c3" x="683.273761" y="136.364339" style="fill: #884f7f"/>
    </g>
    <g clip-path="url(#p8126ed6097)">
     <use xlink:href="#C2_0_9f7db240c3" x="670.808602" y="192.502351" style="fill: #794678"/>
    </g>
    <g clip-path="url(#p8126ed6097)">
     <use xlink:href="#C2_0_9f7db240c3" x="664.504061" y="107.793848" style="fill: #693d6f"/>
    </g>
    <g clip-path="url(#p8126ed6097)">
     <use xlink:href="#C2_0_9f7db240c3" x="673.659596" y="81.084495" style="fill: #5b3665"/>
    </g>
    <g clip-path="url(#p8126ed6097)">
     <use xlink:href="#C2_0_9f7db240c3" x="664.806599" y="148.947667" style="fill: #4b2e59"/>
    </g>
    <g clip-path="url(#p8126ed6097)">
     <use xlink:href="#C2_0_9f7db240c3" x="682.767344" y="52.605038" style="fill: #3b264b"/>
    </g>
    <g clip-path="url(#p8126ed6097)">
     <use xlink:href="#C2_0_9f7db240c3" x="681.353027" y="118.228499" style="fill: #2d1e3e"/>
    </g>
   </g>
   <g id="text_38">
    <!-- $\Delta$  -->
    <g style="fill: #262626" transform="translate(669.428889 20.8) scale(0.12 -0.12)">
     <defs>
      <path id="DejaVuSans-394" d="M 2188 4044 
L 906 525 
L 3472 525 
L 2188 4044 
z
M 50 0 
L 1831 4666 
L 2547 4666 
L 4325 0 
L 50 0 
z
" transform="scale(0.015625)"/>
     </defs>
     <use xlink:href="#DejaVuSans-394" transform="translate(0 0.09375)"/>
     <use xlink:href="#DejaVuSans-20" transform="translate(68.408203 0.09375)"/>
    </g>
   </g>
  </g>
 </g>
 <defs>
  <clipPath id="pac0d808e0d">
   <rect x="37.3" y="26.8" width="337.111111" height="211"/>
  </clipPath>
  <clipPath id="p1fbfe59295">
   <rect x="406.961111" y="26.8" width="202.266667" height="211"/>
  </clipPath>
  <clipPath id="p8126ed6097">
   <rect x="641.777778" y="26.8" width="67.422222" height="211"/>
  </clipPath>
 </defs>
</svg>
