<?xml version="1.0" encoding="utf-8" standalone="no"?>
<!DOCTYPE svg PUBLIC "-//W3C//DTD SVG 1.1//EN"
  "http://www.w3.org/Graphics/SVG/1.1/DTD/svg11.dtd">
<svg xmlns:xlink="http://www.w3.org/1999/xlink" width="720pt" height="288pt" viewBox="0 0 720 288" xmlns="http://www.w3.org/2000/svg" version="1.1">
 <metadata>
  <rdf:RDF xmlns:dc="http://purl.org/dc/elements/1.1/" xmlns:cc="http://creativecommons.org/ns#" xmlns:rdf="http://www.w3.org/1999/02/22-rdf-syntax-ns#">
   <cc:Work>
    <dc:type rdf:resource="http://purl.org/dc/dcmitype/StillImage"/>
    <dc:date>2023-09-28T16:41:13.191852</dc:date>
    <dc:format>image/svg+xml</dc:format>
    <dc:creator>
     <cc:Agent>
      <dc:title>Matplotlib v3.7.2, https://matplotlib.org/</dc:title>
     </cc:Agent>
    </dc:creator>
   </cc:Work>
  </rdf:RDF>
 </metadata>
 <defs>
  <style type="text/css">*{stroke-linejoin: round; stroke-linecap: butt}</style>
 </defs>
 <g id="figure_1">
  <g id="patch_1">
   <path d="M 0 288 
L 720 288 
L 720 0 
L 0 0 
L 0 288 
z
" style="fill: none"/>
  </g>
  <g id="axes_1">
   <g id="patch_2">
    <path d="M 37.3 224 
L 374.411111 224 
L 374.411111 26.8 
L 37.3 26.8 
z
" style="fill: #ffffff"/>
   </g>
   <g id="patch_3">
    <path d="M 57.661511 126.318872 
L 70.876267 126.318872 
L 70.876267 123.991371 
L 57.661511 123.991371 
L 57.661511 126.318872 
z
" clip-path="url(#p50ce9799cd)" style="fill: #3274a1; fill-opacity: 0.8; stroke: #3f3f3f; stroke-width: 1.5; stroke-linejoin: miter"/>
   </g>
   <g id="patch_4">
    <path d="M 71.145956 134.085164 
L 84.360711 134.085164 
L 84.360711 123.850367 
L 71.145956 123.850367 
L 71.145956 134.085164 
z
" clip-path="url(#p50ce9799cd)" style="fill: #e1812c; fill-opacity: 0.8; stroke: #3f3f3f; stroke-width: 1.5; stroke-linejoin: miter"/>
   </g>
   <g id="patch_5">
    <path d="M 125.083733 125.4 
L 138.298489 125.4 
L 138.298489 125.4 
L 125.083733 125.4 
L 125.083733 125.4 
z
" clip-path="url(#p50ce9799cd)" style="fill: #3274a1; fill-opacity: 0.8; stroke: #3f3f3f; stroke-width: 1.5; stroke-linejoin: miter"/>
   </g>
   <g id="patch_6">
    <path d="M 138.568178 132.983933 
L 151.782933 132.983933 
L 151.782933 126.906247 
L 138.568178 126.906247 
L 138.568178 132.983933 
z
" clip-path="url(#p50ce9799cd)" style="fill: #e1812c; fill-opacity: 0.8; stroke: #3f3f3f; stroke-width: 1.5; stroke-linejoin: miter"/>
   </g>
   <g id="patch_7">
    <path d="M 192.505956 156.096799 
L 205.720711 156.096799 
L 205.720711 120.639046 
L 192.505956 120.639046 
L 192.505956 156.096799 
z
" clip-path="url(#p50ce9799cd)" style="fill: #3274a1; fill-opacity: 0.8; stroke: #3f3f3f; stroke-width: 1.5; stroke-linejoin: miter"/>
   </g>
   <g id="patch_8">
    <path d="M 205.9904 159.448581 
L 219.205156 159.448581 
L 219.205156 125.404242 
L 205.9904 125.404242 
L 205.9904 159.448581 
z
" clip-path="url(#p50ce9799cd)" style="fill: #e1812c; fill-opacity: 0.8; stroke: #3f3f3f; stroke-width: 1.5; stroke-linejoin: miter"/>
   </g>
   <g id="patch_9">
    <path d="M 259.928178 128.260031 
L 273.142933 128.260031 
L 273.142933 123.444409 
L 259.928178 123.444409 
L 259.928178 128.260031 
z
" clip-path="url(#p50ce9799cd)" style="fill: #3274a1; fill-opacity: 0.8; stroke: #3f3f3f; stroke-width: 1.5; stroke-linejoin: miter"/>
   </g>
   <g id="patch_10">
    <path d="M 273.412622 126.503209 
L 286.627378 126.503209 
L 286.627378 97.715973 
L 273.412622 97.715973 
L 273.412622 126.503209 
z
" clip-path="url(#p50ce9799cd)" style="fill: #e1812c; fill-opacity: 0.8; stroke: #3f3f3f; stroke-width: 1.5; stroke-linejoin: miter"/>
   </g>
   <g id="patch_11">
    <path d="M 327.3504 112.963323 
L 340.565156 112.963323 
L 340.565156 79.537764 
L 327.3504 79.537764 
L 327.3504 112.963323 
z
" clip-path="url(#p50ce9799cd)" style="fill: #3274a1; fill-opacity: 0.8; stroke: #3f3f3f; stroke-width: 1.5; stroke-linejoin: miter"/>
   </g>
   <g id="patch_12">
    <path d="M 340.834844 111.912049 
L 354.0496 111.912049 
L 354.0496 69.6962 
L 340.834844 69.6962 
L 340.834844 111.912049 
z
" clip-path="url(#p50ce9799cd)" style="fill: #e1812c; fill-opacity: 0.8; stroke: #3f3f3f; stroke-width: 1.5; stroke-linejoin: miter"/>
   </g>
   <g id="patch_13">
    <path d="M 71.011111 125.4 
L 71.011111 125.4 
L 71.011111 125.4 
L 71.011111 125.4 
z
" clip-path="url(#p50ce9799cd)" style="fill: #3274a1; fill-opacity: 0.8; stroke: #3f3f3f; stroke-width: 0.75; stroke-linejoin: miter"/>
   </g>
   <g id="patch_14">
    <path d="M 71.011111 125.4 
L 71.011111 125.4 
L 71.011111 125.4 
L 71.011111 125.4 
z
" clip-path="url(#p50ce9799cd)" style="fill: #e1812c; fill-opacity: 0.8; stroke: #3f3f3f; stroke-width: 0.75; stroke-linejoin: miter"/>
   </g>
   <g id="matplotlib.axis_1">
    <g id="xtick_1">
     <g id="line2d_1">
      <defs>
       <path id="m2e82465fa3" d="M 0 0 
L 0 3.5 
" style="stroke: #000000; stroke-width: 0.8"/>
      </defs>
      <g>
       <use xlink:href="#m2e82465fa3" x="71.011111" y="224" style="stroke: #000000; stroke-width: 0.8"/>
      </g>
     </g>
     <g id="text_1">
      <!-- $A_{000}$ -->
      <g transform="translate(56.661111 241.637812) scale(0.14 -0.14)">
       <defs>
        <path id="DejaVuSans-Oblique-41" d="M 2356 4666 
L 3072 4666 
L 3938 0 
L 3278 0 
L 3084 1197 
L 984 1197 
L 325 0 
L -341 0 
L 2356 4666 
z
M 2584 4044 
L 1275 1722 
L 2988 1722 
L 2584 4044 
z
" transform="scale(0.015625)"/>
        <path id="DejaVuSans-30" d="M 2034 4250 
Q 1547 4250 1301 3770 
Q 1056 3291 1056 2328 
Q 1056 1369 1301 889 
Q 1547 409 2034 409 
Q 2525 409 2770 889 
Q 3016 1369 3016 2328 
Q 3016 3291 2770 3770 
Q 2525 4250 2034 4250 
z
M 2034 4750 
Q 2819 4750 3233 4129 
Q 3647 3509 3647 2328 
Q 3647 1150 3233 529 
Q 2819 -91 2034 -91 
Q 1250 -91 836 529 
Q 422 1150 422 2328 
Q 422 3509 836 4129 
Q 1250 4750 2034 4750 
z
" transform="scale(0.015625)"/>
       </defs>
       <use xlink:href="#DejaVuSans-Oblique-41" transform="translate(0 0.09375)"/>
       <use xlink:href="#DejaVuSans-30" transform="translate(68.408203 -16.3125) scale(0.7)"/>
       <use xlink:href="#DejaVuSans-30" transform="translate(112.944336 -16.3125) scale(0.7)"/>
       <use xlink:href="#DejaVuSans-30" transform="translate(157.480469 -16.3125) scale(0.7)"/>
      </g>
     </g>
    </g>
    <g id="xtick_2">
     <g id="line2d_2">
      <g>
       <use xlink:href="#m2e82465fa3" x="138.433333" y="224" style="stroke: #000000; stroke-width: 0.8"/>
      </g>
     </g>
     <g id="text_2">
      <!-- $A_{001}$ -->
      <g transform="translate(124.083333 241.637812) scale(0.14 -0.14)">
       <defs>
        <path id="DejaVuSans-31" d="M 794 531 
L 1825 531 
L 1825 4091 
L 703 3866 
L 703 4441 
L 1819 4666 
L 2450 4666 
L 2450 531 
L 3481 531 
L 3481 0 
L 794 0 
L 794 531 
z
" transform="scale(0.015625)"/>
       </defs>
       <use xlink:href="#DejaVuSans-Oblique-41" transform="translate(0 0.09375)"/>
       <use xlink:href="#DejaVuSans-30" transform="translate(68.408203 -16.3125) scale(0.7)"/>
       <use xlink:href="#DejaVuSans-30" transform="translate(112.944336 -16.3125) scale(0.7)"/>
       <use xlink:href="#DejaVuSans-31" transform="translate(157.480469 -16.3125) scale(0.7)"/>
      </g>
     </g>
    </g>
    <g id="xtick_3">
     <g id="line2d_3">
      <g>
       <use xlink:href="#m2e82465fa3" x="205.855556" y="224" style="stroke: #000000; stroke-width: 0.8"/>
      </g>
     </g>
     <g id="text_3">
      <!-- $A_{010}$ -->
      <g transform="translate(191.505556 241.637812) scale(0.14 -0.14)">
       <use xlink:href="#DejaVuSans-Oblique-41" transform="translate(0 0.09375)"/>
       <use xlink:href="#DejaVuSans-30" transform="translate(68.408203 -16.3125) scale(0.7)"/>
       <use xlink:href="#DejaVuSans-31" transform="translate(112.944336 -16.3125) scale(0.7)"/>
       <use xlink:href="#DejaVuSans-30" transform="translate(157.480469 -16.3125) scale(0.7)"/>
      </g>
     </g>
    </g>
    <g id="xtick_4">
     <g id="line2d_4">
      <g>
       <use xlink:href="#m2e82465fa3" x="273.277778" y="224" style="stroke: #000000; stroke-width: 0.8"/>
      </g>
     </g>
     <g id="text_4">
      <!-- $A_{100}$ -->
      <g transform="translate(258.927778 241.637812) scale(0.14 -0.14)">
       <use xlink:href="#DejaVuSans-Oblique-41" transform="translate(0 0.09375)"/>
       <use xlink:href="#DejaVuSans-31" transform="translate(68.408203 -16.3125) scale(0.7)"/>
       <use xlink:href="#DejaVuSans-30" transform="translate(112.944336 -16.3125) scale(0.7)"/>
       <use xlink:href="#DejaVuSans-30" transform="translate(157.480469 -16.3125) scale(0.7)"/>
      </g>
     </g>
    </g>
    <g id="xtick_5">
     <g id="line2d_5">
      <g>
       <use xlink:href="#m2e82465fa3" x="340.7" y="224" style="stroke: #000000; stroke-width: 0.8"/>
      </g>
     </g>
     <g id="text_5">
      <!-- $A_{110}$ -->
      <g transform="translate(326.35 241.637812) scale(0.14 -0.14)">
       <use xlink:href="#DejaVuSans-Oblique-41" transform="translate(0 0.09375)"/>
       <use xlink:href="#DejaVuSans-31" transform="translate(68.408203 -16.3125) scale(0.7)"/>
       <use xlink:href="#DejaVuSans-31" transform="translate(112.944336 -16.3125) scale(0.7)"/>
       <use xlink:href="#DejaVuSans-30" transform="translate(157.480469 -16.3125) scale(0.7)"/>
      </g>
     </g>
    </g>
    <g id="text_6">
     <!-- Plasticity Coefficients -->
     <g transform="translate(136.235477 258.427344) scale(0.13 -0.13)">
      <defs>
       <path id="DejaVuSans-ExtraLight-50" d="M 1094 4406 
L 1094 2263 
L 2053 2263 
Q 2575 2263 2859 2541 
Q 3147 2819 3147 3338 
Q 3147 3847 2859 4128 
Q 2575 4406 2053 4406 
L 1094 4406 
z
M 781 4666 
L 2053 4666 
Q 2750 4666 3109 4328 
Q 3466 3991 3466 3338 
Q 3466 2681 3109 2344 
Q 2750 2006 2053 2006 
L 1094 2006 
L 1094 0 
L 781 0 
L 781 4666 
z
" transform="scale(0.015625)"/>
       <path id="DejaVuSans-ExtraLight-6c" d="M 725 4863 
L 1013 4863 
L 1013 0 
L 725 0 
L 725 4863 
z
" transform="scale(0.015625)"/>
       <path id="DejaVuSans-ExtraLight-61" d="M 2125 1975 
Q 1431 1975 1125 1728 
Q 819 1481 819 1006 
Q 819 544 1072 350 
Q 1325 156 1672 156 
Q 2328 156 2616 713 
Q 2906 1269 2906 1759 
L 2906 1975 
L 2125 1975 
z
M 3197 1997 
L 3197 0 
L 2913 0 
L 2913 950 
Q 2672 253 2275 63 
Q 1959 -91 1647 -91 
Q 1125 -91 825 188 
Q 525 469 525 1012 
Q 525 1556 916 1881 
Q 1306 2209 2194 2209 
L 2906 2209 
L 2906 2266 
Q 2906 2731 2641 3031 
Q 2378 3331 1772 3331 
Q 1472 3331 1159 3219 
Q 959 3147 641 2928 
L 641 3238 
Q 919 3409 1159 3481 
Q 1509 3584 1831 3584 
Q 2450 3584 2850 3209 
Q 3197 2888 3197 1997 
z
" transform="scale(0.015625)"/>
       <path id="DejaVuSans-ExtraLight-73" d="M 2706 3397 
L 2706 3081 
Q 2403 3250 2328 3269 
Q 2109 3322 1784 3331 
Q 1291 3331 1009 3134 
Q 794 2972 794 2578 
Q 794 2313 997 2163 
Q 1213 2000 1613 1913 
L 1809 1869 
Q 2306 1759 2563 1559 
Q 2859 1331 2875 966 
Q 2875 469 2581 188 
Q 2269 -91 1575 -91 
Q 1188 -91 988 -38 
Q 747 31 481 128 
L 481 488 
Q 863 269 975 238 
Q 1284 156 1588 156 
Q 2094 156 2334 366 
Q 2578 578 2578 922 
Q 2578 1209 2416 1341 
Q 2181 1528 1669 1647 
L 1469 1694 
Q 1028 1797 797 1984 
Q 506 2219 506 2553 
Q 506 3103 856 3343 
Q 1206 3584 1716 3584 
Q 2150 3584 2316 3538 
Q 2516 3481 2706 3397 
z
" transform="scale(0.015625)"/>
       <path id="DejaVuSans-ExtraLight-74" d="M 1028 4494 
L 1028 3500 
L 2213 3500 
L 2213 3256 
L 1028 3256 
L 1028 1153 
Q 1028 753 1131 594 
Q 1344 244 1750 244 
L 2213 244 
L 2213 0 
L 1766 0 
Q 1338 0 1038 250 
Q 738 500 738 1153 
L 738 3256 
L 319 3256 
L 319 3500 
L 738 3500 
L 738 4494 
L 1028 4494 
z
" transform="scale(0.015625)"/>
       <path id="DejaVuSans-ExtraLight-69" d="M 719 3500 
L 1006 3500 
L 1006 0 
L 719 0 
L 719 3500 
z
M 719 4863 
L 1006 4863 
L 1006 4469 
L 719 4469 
L 719 4863 
z
" transform="scale(0.015625)"/>
       <path id="DejaVuSans-ExtraLight-63" d="M 3122 3331 
L 3122 3025 
Q 2863 3184 2694 3241 
Q 2403 3331 2138 3331 
Q 1381 3331 1053 2943 
Q 725 2556 725 1747 
Q 725 931 1053 543 
Q 1381 156 2138 156 
Q 2388 156 2631 225 
Q 2878 291 3122 425 
L 3122 134 
Q 2881 22 2625 -34 
Q 2366 -91 2113 -91 
Q 1344 -91 891 325 
Q 438 744 438 1747 
Q 438 2750 891 3169 
Q 1344 3584 2113 3584 
Q 2363 3584 2644 3513 
Q 2925 3444 3122 3331 
z
" transform="scale(0.015625)"/>
       <path id="DejaVuSans-ExtraLight-79" d="M 1906 -325 
Q 1719 -791 1503 -969 
Q 1213 -1209 934 -1209 
L 506 -1209 
L 506 -966 
L 872 -966 
Q 1100 -966 1272 -819 
Q 1494 -628 1638 -259 
L 1741 0 
L 344 3500 
L 650 3500 
L 1894 381 
L 3141 3500 
L 3444 3500 
L 1906 -325 
z
" transform="scale(0.015625)"/>
       <path id="DejaVuSans-ExtraLight-20" transform="scale(0.015625)"/>
       <path id="DejaVuSans-ExtraLight-43" d="M 4122 4278 
L 4122 3919 
Q 3803 4209 3444 4350 
Q 3081 4494 2675 4494 
Q 1794 4494 1328 3938 
Q 859 3381 859 2328 
Q 859 1275 1328 716 
Q 1794 156 2675 156 
Q 3081 156 3444 300 
Q 3803 447 4122 738 
L 4122 359 
Q 3791 134 3419 22 
Q 3050 -91 2638 -91 
Q 1656 -91 1094 556 
Q 531 1206 531 2328 
Q 531 3453 1094 4100 
Q 1656 4750 2638 4750 
Q 3056 4750 3425 4631 
Q 3797 4516 4122 4278 
z
" transform="scale(0.015625)"/>
       <path id="DejaVuSans-ExtraLight-6f" d="M 2806 2900 
Q 2497 3331 1962 3331 
Q 1428 3331 1119 2903 
Q 806 2478 806 1753 
Q 806 1009 1116 584 
Q 1425 156 1963 156 
Q 2497 156 2806 584 
Q 3119 1016 3119 1753 
Q 3119 2469 2806 2900 
z
M 1959 3584 
Q 2628 3584 3016 3084 
Q 3406 2581 3406 1750 
Q 3406 891 3016 394 
Q 2628 -106 1959 -106 
Q 1284 -106 894 391 
Q 506 888 506 1750 
Q 506 2591 897 3087 
Q 1288 3584 1959 3584 
z
" transform="scale(0.015625)"/>
       <path id="DejaVuSans-ExtraLight-65" d="M 3453 1894 
L 3453 1713 
L 797 1713 
Q 797 869 1125 531 
Q 1488 156 2203 156 
Q 2391 156 2700 238 
Q 3013 319 3319 481 
L 3319 178 
Q 3009 47 2684 -22 
Q 2359 -91 2169 -91 
Q 1359 -91 950 347 
Q 506 813 506 1713 
Q 506 2647 913 3106 
Q 1328 3584 2069 3584 
Q 2756 3584 3106 3131 
Q 3453 2656 3453 1894 
z
M 3163 1956 
Q 3163 2694 2831 3031 
Q 2553 3331 2075 3331 
Q 1553 3331 1200 3019 
Q 875 2728 809 1956 
L 3163 1956 
z
" transform="scale(0.015625)"/>
       <path id="DejaVuSans-ExtraLight-66" d="M 2231 4863 
L 2231 4619 
L 1825 4619 
Q 1506 4619 1338 4453 
Q 1131 4250 1131 3809 
L 1131 3500 
L 2075 3500 
L 2075 3256 
L 1131 3256 
L 1131 0 
L 841 0 
L 841 3256 
L 291 3256 
L 291 3500 
L 841 3500 
L 841 3744 
Q 841 4328 1106 4594 
Q 1369 4863 1831 4863 
L 2231 4863 
z
" transform="scale(0.015625)"/>
       <path id="DejaVuSans-ExtraLight-6e" d="M 3369 2113 
L 3369 0 
L 3081 0 
L 3081 2094 
Q 3081 2775 2862 3053 
Q 2644 3331 2219 3331 
Q 1722 3331 1369 3031 
Q 1013 2728 1013 1978 
L 1013 0 
L 725 0 
L 725 3500 
L 1013 3500 
L 1013 2844 
Q 1166 3163 1416 3331 
Q 1784 3584 2231 3584 
Q 2750 3584 3059 3231 
Q 3369 2881 3369 2113 
z
" transform="scale(0.015625)"/>
      </defs>
      <use xlink:href="#DejaVuSans-ExtraLight-50"/>
      <use xlink:href="#DejaVuSans-ExtraLight-6c" x="60.302734"/>
      <use xlink:href="#DejaVuSans-ExtraLight-61" x="88.085938"/>
      <use xlink:href="#DejaVuSans-ExtraLight-73" x="149.365234"/>
      <use xlink:href="#DejaVuSans-ExtraLight-74" x="201.464844"/>
      <use xlink:href="#DejaVuSans-ExtraLight-69" x="240.673828"/>
      <use xlink:href="#DejaVuSans-ExtraLight-63" x="268.457031"/>
      <use xlink:href="#DejaVuSans-ExtraLight-69" x="323.4375"/>
      <use xlink:href="#DejaVuSans-ExtraLight-74" x="351.220703"/>
      <use xlink:href="#DejaVuSans-ExtraLight-79" x="390.429688"/>
      <use xlink:href="#DejaVuSans-ExtraLight-20" x="449.609375"/>
      <use xlink:href="#DejaVuSans-ExtraLight-43" x="481.396484"/>
      <use xlink:href="#DejaVuSans-ExtraLight-6f" x="551.220703"/>
      <use xlink:href="#DejaVuSans-ExtraLight-65" x="612.402344"/>
      <use xlink:href="#DejaVuSans-ExtraLight-66" x="673.925781"/>
      <use xlink:href="#DejaVuSans-ExtraLight-66" x="709.130859"/>
      <use xlink:href="#DejaVuSans-ExtraLight-69" x="744.335938"/>
      <use xlink:href="#DejaVuSans-ExtraLight-63" x="772.119141"/>
      <use xlink:href="#DejaVuSans-ExtraLight-69" x="827.099609"/>
      <use xlink:href="#DejaVuSans-ExtraLight-65" x="854.882812"/>
      <use xlink:href="#DejaVuSans-ExtraLight-6e" x="916.40625"/>
      <use xlink:href="#DejaVuSans-ExtraLight-74" x="979.785156"/>
      <use xlink:href="#DejaVuSans-ExtraLight-73" x="1018.994141"/>
     </g>
    </g>
   </g>
   <g id="matplotlib.axis_2">
    <g id="ytick_1">
     <g id="line2d_6">
      <defs>
       <path id="m7b109a4725" d="M 0 0 
L -3.5 0 
" style="stroke: #000000; stroke-width: 0.8"/>
      </defs>
      <g>
       <use xlink:href="#m7b109a4725" x="37.3" y="204.28" style="stroke: #000000; stroke-width: 0.8"/>
      </g>
     </g>
     <g id="text_7">
      <!-- -1 -->
      <g transform="translate(20.329687 208.079219) scale(0.1 -0.1)">
       <defs>
        <path id="DejaVuSans-2d" d="M 313 2009 
L 1997 2009 
L 1997 1497 
L 313 1497 
L 313 2009 
z
" transform="scale(0.015625)"/>
       </defs>
       <use xlink:href="#DejaVuSans-2d"/>
       <use xlink:href="#DejaVuSans-31" x="36.083984"/>
      </g>
     </g>
    </g>
    <g id="ytick_2">
     <g id="line2d_7">
      <g>
       <use xlink:href="#m7b109a4725" x="37.3" y="164.84" style="stroke: #000000; stroke-width: 0.8"/>
      </g>
     </g>
     <g id="text_8">
      <!-- -0.5 -->
      <g transform="translate(10.789062 168.639219) scale(0.1 -0.1)">
       <defs>
        <path id="DejaVuSans-2e" d="M 684 794 
L 1344 794 
L 1344 0 
L 684 0 
L 684 794 
z
" transform="scale(0.015625)"/>
        <path id="DejaVuSans-35" d="M 691 4666 
L 3169 4666 
L 3169 4134 
L 1269 4134 
L 1269 2991 
Q 1406 3038 1543 3061 
Q 1681 3084 1819 3084 
Q 2600 3084 3056 2656 
Q 3513 2228 3513 1497 
Q 3513 744 3044 326 
Q 2575 -91 1722 -91 
Q 1428 -91 1123 -41 
Q 819 9 494 109 
L 494 744 
Q 775 591 1075 516 
Q 1375 441 1709 441 
Q 2250 441 2565 725 
Q 2881 1009 2881 1497 
Q 2881 1984 2565 2268 
Q 2250 2553 1709 2553 
Q 1456 2553 1204 2497 
Q 953 2441 691 2322 
L 691 4666 
z
" transform="scale(0.015625)"/>
       </defs>
       <use xlink:href="#DejaVuSans-2d"/>
       <use xlink:href="#DejaVuSans-30" x="36.083984"/>
       <use xlink:href="#DejaVuSans-2e" x="99.707031"/>
       <use xlink:href="#DejaVuSans-35" x="131.494141"/>
      </g>
     </g>
    </g>
    <g id="ytick_3">
     <g id="line2d_8">
      <g>
       <use xlink:href="#m7b109a4725" x="37.3" y="125.4" style="stroke: #000000; stroke-width: 0.8"/>
      </g>
     </g>
     <g id="text_9">
      <!-- 0 -->
      <g transform="translate(23.9375 129.199219) scale(0.1 -0.1)">
       <use xlink:href="#DejaVuSans-30"/>
      </g>
     </g>
    </g>
    <g id="ytick_4">
     <g id="line2d_9">
      <g>
       <use xlink:href="#m7b109a4725" x="37.3" y="85.96" style="stroke: #000000; stroke-width: 0.8"/>
      </g>
     </g>
     <g id="text_10">
      <!-- 0.5 -->
      <g transform="translate(14.396875 89.759219) scale(0.1 -0.1)">
       <use xlink:href="#DejaVuSans-30"/>
       <use xlink:href="#DejaVuSans-2e" x="63.623047"/>
       <use xlink:href="#DejaVuSans-35" x="95.410156"/>
      </g>
     </g>
    </g>
    <g id="ytick_5">
     <g id="line2d_10">
      <g>
       <use xlink:href="#m7b109a4725" x="37.3" y="46.52" style="stroke: #000000; stroke-width: 0.8"/>
      </g>
     </g>
     <g id="text_11">
      <!-- 1 -->
      <g transform="translate(23.9375 50.319219) scale(0.1 -0.1)">
       <use xlink:href="#DejaVuSans-31"/>
      </g>
     </g>
    </g>
   </g>
   <g id="line2d_11">
    <path d="M 64.268889 126.318872 
L 64.268889 126.986782 
" clip-path="url(#p50ce9799cd)" style="fill: none; stroke: #3f3f3f; stroke-width: 1.5; stroke-linecap: square"/>
   </g>
   <g id="line2d_12">
    <path d="M 64.268889 123.991371 
L 64.268889 121.887267 
" clip-path="url(#p50ce9799cd)" style="fill: none; stroke: #3f3f3f; stroke-width: 1.5; stroke-linecap: square"/>
   </g>
   <g id="line2d_13">
    <path d="M 60.9652 126.986782 
L 67.572578 126.986782 
" clip-path="url(#p50ce9799cd)" style="fill: none; stroke: #3f3f3f; stroke-width: 1.5; stroke-linecap: square"/>
   </g>
   <g id="line2d_14">
    <path d="M 60.9652 121.887267 
L 67.572578 121.887267 
" clip-path="url(#p50ce9799cd)" style="fill: none; stroke: #3f3f3f; stroke-width: 1.5; stroke-linecap: square"/>
   </g>
   <g id="line2d_15"/>
   <g id="line2d_16">
    <path d="M 77.753333 134.085164 
L 77.753333 146.351444 
" clip-path="url(#p50ce9799cd)" style="fill: none; stroke: #3f3f3f; stroke-width: 1.5; stroke-linecap: square"/>
   </g>
   <g id="line2d_17">
    <path d="M 77.753333 123.850367 
L 77.753333 117.366779 
" clip-path="url(#p50ce9799cd)" style="fill: none; stroke: #3f3f3f; stroke-width: 1.5; stroke-linecap: square"/>
   </g>
   <g id="line2d_18">
    <path d="M 74.449644 146.351444 
L 81.057022 146.351444 
" clip-path="url(#p50ce9799cd)" style="fill: none; stroke: #3f3f3f; stroke-width: 1.5; stroke-linecap: square"/>
   </g>
   <g id="line2d_19">
    <path d="M 74.449644 117.366779 
L 81.057022 117.366779 
" clip-path="url(#p50ce9799cd)" style="fill: none; stroke: #3f3f3f; stroke-width: 1.5; stroke-linecap: square"/>
   </g>
   <g id="line2d_20"/>
   <g id="line2d_21">
    <path d="M 131.691111 125.4 
L 131.691111 125.4 
" clip-path="url(#p50ce9799cd)" style="fill: none; stroke: #3f3f3f; stroke-width: 1.5; stroke-linecap: square"/>
   </g>
   <g id="line2d_22">
    <path d="M 131.691111 125.4 
L 131.691111 125.4 
" clip-path="url(#p50ce9799cd)" style="fill: none; stroke: #3f3f3f; stroke-width: 1.5; stroke-linecap: square"/>
   </g>
   <g id="line2d_23">
    <path d="M 128.387422 125.4 
L 134.9948 125.4 
" clip-path="url(#p50ce9799cd)" style="fill: none; stroke: #3f3f3f; stroke-width: 1.5; stroke-linecap: square"/>
   </g>
   <g id="line2d_24">
    <path d="M 128.387422 125.4 
L 134.9948 125.4 
" clip-path="url(#p50ce9799cd)" style="fill: none; stroke: #3f3f3f; stroke-width: 1.5; stroke-linecap: square"/>
   </g>
   <g id="line2d_25"/>
   <g id="line2d_26">
    <path d="M 145.175556 132.983933 
L 145.175556 138.727787 
" clip-path="url(#p50ce9799cd)" style="fill: none; stroke: #3f3f3f; stroke-width: 1.5; stroke-linecap: square"/>
   </g>
   <g id="line2d_27">
    <path d="M 145.175556 126.906247 
L 145.175556 123.651313 
" clip-path="url(#p50ce9799cd)" style="fill: none; stroke: #3f3f3f; stroke-width: 1.5; stroke-linecap: square"/>
   </g>
   <g id="line2d_28">
    <path d="M 141.871867 138.727787 
L 148.479244 138.727787 
" clip-path="url(#p50ce9799cd)" style="fill: none; stroke: #3f3f3f; stroke-width: 1.5; stroke-linecap: square"/>
   </g>
   <g id="line2d_29">
    <path d="M 141.871867 123.651313 
L 148.479244 123.651313 
" clip-path="url(#p50ce9799cd)" style="fill: none; stroke: #3f3f3f; stroke-width: 1.5; stroke-linecap: square"/>
   </g>
   <g id="line2d_30"/>
   <g id="line2d_31">
    <path d="M 199.113333 156.096799 
L 199.113333 186.479801 
" clip-path="url(#p50ce9799cd)" style="fill: none; stroke: #3f3f3f; stroke-width: 1.5; stroke-linecap: square"/>
   </g>
   <g id="line2d_32">
    <path d="M 199.113333 120.639046 
L 199.113333 79.709072 
" clip-path="url(#p50ce9799cd)" style="fill: none; stroke: #3f3f3f; stroke-width: 1.5; stroke-linecap: square"/>
   </g>
   <g id="line2d_33">
    <path d="M 195.809644 186.479801 
L 202.417022 186.479801 
" clip-path="url(#p50ce9799cd)" style="fill: none; stroke: #3f3f3f; stroke-width: 1.5; stroke-linecap: square"/>
   </g>
   <g id="line2d_34">
    <path d="M 195.809644 79.709072 
L 202.417022 79.709072 
" clip-path="url(#p50ce9799cd)" style="fill: none; stroke: #3f3f3f; stroke-width: 1.5; stroke-linecap: square"/>
   </g>
   <g id="line2d_35"/>
   <g id="line2d_36">
    <path d="M 212.597778 159.448581 
L 212.597778 203.120427 
" clip-path="url(#p50ce9799cd)" style="fill: none; stroke: #3f3f3f; stroke-width: 1.5; stroke-linecap: square"/>
   </g>
   <g id="line2d_37">
    <path d="M 212.597778 125.404242 
L 212.597778 95.122316 
" clip-path="url(#p50ce9799cd)" style="fill: none; stroke: #3f3f3f; stroke-width: 1.5; stroke-linecap: square"/>
   </g>
   <g id="line2d_38">
    <path d="M 209.294089 203.120427 
L 215.901467 203.120427 
" clip-path="url(#p50ce9799cd)" style="fill: none; stroke: #3f3f3f; stroke-width: 1.5; stroke-linecap: square"/>
   </g>
   <g id="line2d_39">
    <path d="M 209.294089 95.122316 
L 215.901467 95.122316 
" clip-path="url(#p50ce9799cd)" style="fill: none; stroke: #3f3f3f; stroke-width: 1.5; stroke-linecap: square"/>
   </g>
   <g id="line2d_40"/>
   <g id="line2d_41">
    <path d="M 266.535556 128.260031 
L 266.535556 132.777449 
" clip-path="url(#p50ce9799cd)" style="fill: none; stroke: #3f3f3f; stroke-width: 1.5; stroke-linecap: square"/>
   </g>
   <g id="line2d_42">
    <path d="M 266.535556 123.444409 
L 266.535556 120.407254 
" clip-path="url(#p50ce9799cd)" style="fill: none; stroke: #3f3f3f; stroke-width: 1.5; stroke-linecap: square"/>
   </g>
   <g id="line2d_43">
    <path d="M 263.231867 132.777449 
L 269.839244 132.777449 
" clip-path="url(#p50ce9799cd)" style="fill: none; stroke: #3f3f3f; stroke-width: 1.5; stroke-linecap: square"/>
   </g>
   <g id="line2d_44">
    <path d="M 263.231867 120.407254 
L 269.839244 120.407254 
" clip-path="url(#p50ce9799cd)" style="fill: none; stroke: #3f3f3f; stroke-width: 1.5; stroke-linecap: square"/>
   </g>
   <g id="line2d_45"/>
   <g id="line2d_46">
    <path d="M 280.02 126.503209 
L 280.02 129.895841 
" clip-path="url(#p50ce9799cd)" style="fill: none; stroke: #3f3f3f; stroke-width: 1.5; stroke-linecap: square"/>
   </g>
   <g id="line2d_47">
    <path d="M 280.02 97.715973 
L 280.02 78.813255 
" clip-path="url(#p50ce9799cd)" style="fill: none; stroke: #3f3f3f; stroke-width: 1.5; stroke-linecap: square"/>
   </g>
   <g id="line2d_48">
    <path d="M 276.716311 129.895841 
L 283.323689 129.895841 
" clip-path="url(#p50ce9799cd)" style="fill: none; stroke: #3f3f3f; stroke-width: 1.5; stroke-linecap: square"/>
   </g>
   <g id="line2d_49">
    <path d="M 276.716311 78.813255 
L 283.323689 78.813255 
" clip-path="url(#p50ce9799cd)" style="fill: none; stroke: #3f3f3f; stroke-width: 1.5; stroke-linecap: square"/>
   </g>
   <g id="line2d_50"/>
   <g id="line2d_51">
    <path d="M 333.957778 112.963323 
L 333.957778 135.659443 
" clip-path="url(#p50ce9799cd)" style="fill: none; stroke: #3f3f3f; stroke-width: 1.5; stroke-linecap: square"/>
   </g>
   <g id="line2d_52">
    <path d="M 333.957778 79.537764 
L 333.957778 55.796337 
" clip-path="url(#p50ce9799cd)" style="fill: none; stroke: #3f3f3f; stroke-width: 1.5; stroke-linecap: square"/>
   </g>
   <g id="line2d_53">
    <path d="M 330.654089 135.659443 
L 337.261467 135.659443 
" clip-path="url(#p50ce9799cd)" style="fill: none; stroke: #3f3f3f; stroke-width: 1.5; stroke-linecap: square"/>
   </g>
   <g id="line2d_54">
    <path d="M 330.654089 55.796337 
L 337.261467 55.796337 
" clip-path="url(#p50ce9799cd)" style="fill: none; stroke: #3f3f3f; stroke-width: 1.5; stroke-linecap: square"/>
   </g>
   <g id="line2d_55"/>
   <g id="line2d_56">
    <path d="M 347.442222 111.912049 
L 347.442222 131.198682 
" clip-path="url(#p50ce9799cd)" style="fill: none; stroke: #3f3f3f; stroke-width: 1.5; stroke-linecap: square"/>
   </g>
   <g id="line2d_57">
    <path d="M 347.442222 69.6962 
L 347.442222 30.671018 
" clip-path="url(#p50ce9799cd)" style="fill: none; stroke: #3f3f3f; stroke-width: 1.5; stroke-linecap: square"/>
   </g>
   <g id="line2d_58">
    <path d="M 344.138533 131.198682 
L 350.745911 131.198682 
" clip-path="url(#p50ce9799cd)" style="fill: none; stroke: #3f3f3f; stroke-width: 1.5; stroke-linecap: square"/>
   </g>
   <g id="line2d_59">
    <path d="M 344.138533 30.671018 
L 350.745911 30.671018 
" clip-path="url(#p50ce9799cd)" style="fill: none; stroke: #3f3f3f; stroke-width: 1.5; stroke-linecap: square"/>
   </g>
   <g id="line2d_60"/>
   <g id="line2d_61">
    <path d="M 37.3 125.4 
L 374.411111 125.4 
" clip-path="url(#p50ce9799cd)" style="fill: none; stroke-dasharray: 5.55,2.4; stroke-dashoffset: 0; stroke: #808080; stroke-opacity: 0.7; stroke-width: 1.5"/>
   </g>
   <g id="line2d_62">
    <path d="M 57.661511 124.62555 
L 70.876267 124.62555 
" clip-path="url(#p50ce9799cd)" style="fill: none; stroke: #3f3f3f; stroke-width: 1.5; stroke-linecap: square"/>
   </g>
   <g id="line2d_63">
    <path d="M 71.145956 125.600852 
L 84.360711 125.600852 
" clip-path="url(#p50ce9799cd)" style="fill: none; stroke: #3f3f3f; stroke-width: 1.5; stroke-linecap: square"/>
   </g>
   <g id="line2d_64">
    <path d="M 125.083733 125.4 
L 138.298489 125.4 
" clip-path="url(#p50ce9799cd)" style="fill: none; stroke: #3f3f3f; stroke-width: 1.5; stroke-linecap: square"/>
   </g>
   <g id="line2d_65">
    <path d="M 138.568178 129.477732 
L 151.782933 129.477732 
" clip-path="url(#p50ce9799cd)" style="fill: none; stroke: #3f3f3f; stroke-width: 1.5; stroke-linecap: square"/>
   </g>
   <g id="line2d_66">
    <path d="M 192.505956 139.460699 
L 205.720711 139.460699 
" clip-path="url(#p50ce9799cd)" style="fill: none; stroke: #3f3f3f; stroke-width: 1.5; stroke-linecap: square"/>
   </g>
   <g id="line2d_67">
    <path d="M 205.9904 137.500884 
L 219.205156 137.500884 
" clip-path="url(#p50ce9799cd)" style="fill: none; stroke: #3f3f3f; stroke-width: 1.5; stroke-linecap: square"/>
   </g>
   <g id="line2d_68">
    <path d="M 259.928178 126.180915 
L 273.142933 126.180915 
" clip-path="url(#p50ce9799cd)" style="fill: none; stroke: #3f3f3f; stroke-width: 1.5; stroke-linecap: square"/>
   </g>
   <g id="line2d_69">
    <path d="M 273.412622 123.18638 
L 286.627378 123.18638 
" clip-path="url(#p50ce9799cd)" style="fill: none; stroke: #3f3f3f; stroke-width: 1.5; stroke-linecap: square"/>
   </g>
   <g id="line2d_70">
    <path d="M 327.3504 100.062224 
L 340.565156 100.062224 
" clip-path="url(#p50ce9799cd)" style="fill: none; stroke: #3f3f3f; stroke-width: 1.5; stroke-linecap: square"/>
   </g>
   <g id="line2d_71">
    <path d="M 340.834844 97.979146 
L 354.0496 97.979146 
" clip-path="url(#p50ce9799cd)" style="fill: none; stroke: #3f3f3f; stroke-width: 1.5; stroke-linecap: square"/>
   </g>
   <g id="patch_15">
    <path d="M 37.3 224 
L 37.3 26.8 
" style="fill: none; stroke: #000000; stroke-width: 0.8; stroke-linejoin: miter; stroke-linecap: square"/>
   </g>
   <g id="patch_16">
    <path d="M 374.411111 224 
L 374.411111 26.8 
" style="fill: none; stroke: #000000; stroke-width: 0.8; stroke-linejoin: miter; stroke-linecap: square"/>
   </g>
   <g id="patch_17">
    <path d="M 37.3 224 
L 374.411111 224 
" style="fill: none; stroke: #000000; stroke-width: 0.8; stroke-linejoin: miter; stroke-linecap: square"/>
   </g>
   <g id="patch_18">
    <path d="M 37.3 26.8 
L 374.411111 26.8 
" style="fill: none; stroke: #000000; stroke-width: 0.8; stroke-linejoin: miter; stroke-linecap: square"/>
   </g>
   <g id="legend_1">
    <g id="patch_19">
     <path d="M 44.3 77.218128 
L 115.20682 77.218128 
Q 117.20682 77.218128 117.20682 75.218128 
L 117.20682 33.8 
Q 117.20682 31.8 115.20682 31.8 
L 44.3 31.8 
Q 42.3 31.8 42.3 33.8 
L 42.3 75.218128 
Q 42.3 77.218128 44.3 77.218128 
z
" style="fill: #ffffff; opacity: 0.8; stroke: #cccccc; stroke-linejoin: miter"/>
    </g>
    <g id="text_12">
     <!-- Plasticity Family -->
     <g style="fill: #262626" transform="translate(46.3 42.129498) scale(0.0833 -0.0833)">
      <defs>
       <path id="DejaVuSans-50" d="M 1259 4147 
L 1259 2394 
L 2053 2394 
Q 2494 2394 2734 2622 
Q 2975 2850 2975 3272 
Q 2975 3691 2734 3919 
Q 2494 4147 2053 4147 
L 1259 4147 
z
M 628 4666 
L 2053 4666 
Q 2838 4666 3239 4311 
Q 3641 3956 3641 3272 
Q 3641 2581 3239 2228 
Q 2838 1875 2053 1875 
L 1259 1875 
L 1259 0 
L 628 0 
L 628 4666 
z
" transform="scale(0.015625)"/>
       <path id="DejaVuSans-6c" d="M 603 4863 
L 1178 4863 
L 1178 0 
L 603 0 
L 603 4863 
z
" transform="scale(0.015625)"/>
       <path id="DejaVuSans-61" d="M 2194 1759 
Q 1497 1759 1228 1600 
Q 959 1441 959 1056 
Q 959 750 1161 570 
Q 1363 391 1709 391 
Q 2188 391 2477 730 
Q 2766 1069 2766 1631 
L 2766 1759 
L 2194 1759 
z
M 3341 1997 
L 3341 0 
L 2766 0 
L 2766 531 
Q 2569 213 2275 61 
Q 1981 -91 1556 -91 
Q 1019 -91 701 211 
Q 384 513 384 1019 
Q 384 1609 779 1909 
Q 1175 2209 1959 2209 
L 2766 2209 
L 2766 2266 
Q 2766 2663 2505 2880 
Q 2244 3097 1772 3097 
Q 1472 3097 1187 3025 
Q 903 2953 641 2809 
L 641 3341 
Q 956 3463 1253 3523 
Q 1550 3584 1831 3584 
Q 2591 3584 2966 3190 
Q 3341 2797 3341 1997 
z
" transform="scale(0.015625)"/>
       <path id="DejaVuSans-73" d="M 2834 3397 
L 2834 2853 
Q 2591 2978 2328 3040 
Q 2066 3103 1784 3103 
Q 1356 3103 1142 2972 
Q 928 2841 928 2578 
Q 928 2378 1081 2264 
Q 1234 2150 1697 2047 
L 1894 2003 
Q 2506 1872 2764 1633 
Q 3022 1394 3022 966 
Q 3022 478 2636 193 
Q 2250 -91 1575 -91 
Q 1294 -91 989 -36 
Q 684 19 347 128 
L 347 722 
Q 666 556 975 473 
Q 1284 391 1588 391 
Q 1994 391 2212 530 
Q 2431 669 2431 922 
Q 2431 1156 2273 1281 
Q 2116 1406 1581 1522 
L 1381 1569 
Q 847 1681 609 1914 
Q 372 2147 372 2553 
Q 372 3047 722 3315 
Q 1072 3584 1716 3584 
Q 2034 3584 2315 3537 
Q 2597 3491 2834 3397 
z
" transform="scale(0.015625)"/>
       <path id="DejaVuSans-74" d="M 1172 4494 
L 1172 3500 
L 2356 3500 
L 2356 3053 
L 1172 3053 
L 1172 1153 
Q 1172 725 1289 603 
Q 1406 481 1766 481 
L 2356 481 
L 2356 0 
L 1766 0 
Q 1100 0 847 248 
Q 594 497 594 1153 
L 594 3053 
L 172 3053 
L 172 3500 
L 594 3500 
L 594 4494 
L 1172 4494 
z
" transform="scale(0.015625)"/>
       <path id="DejaVuSans-69" d="M 603 3500 
L 1178 3500 
L 1178 0 
L 603 0 
L 603 3500 
z
M 603 4863 
L 1178 4863 
L 1178 4134 
L 603 4134 
L 603 4863 
z
" transform="scale(0.015625)"/>
       <path id="DejaVuSans-63" d="M 3122 3366 
L 3122 2828 
Q 2878 2963 2633 3030 
Q 2388 3097 2138 3097 
Q 1578 3097 1268 2742 
Q 959 2388 959 1747 
Q 959 1106 1268 751 
Q 1578 397 2138 397 
Q 2388 397 2633 464 
Q 2878 531 3122 666 
L 3122 134 
Q 2881 22 2623 -34 
Q 2366 -91 2075 -91 
Q 1284 -91 818 406 
Q 353 903 353 1747 
Q 353 2603 823 3093 
Q 1294 3584 2113 3584 
Q 2378 3584 2631 3529 
Q 2884 3475 3122 3366 
z
" transform="scale(0.015625)"/>
       <path id="DejaVuSans-79" d="M 2059 -325 
Q 1816 -950 1584 -1140 
Q 1353 -1331 966 -1331 
L 506 -1331 
L 506 -850 
L 844 -850 
Q 1081 -850 1212 -737 
Q 1344 -625 1503 -206 
L 1606 56 
L 191 3500 
L 800 3500 
L 1894 763 
L 2988 3500 
L 3597 3500 
L 2059 -325 
z
" transform="scale(0.015625)"/>
       <path id="DejaVuSans-20" transform="scale(0.015625)"/>
       <path id="DejaVuSans-46" d="M 628 4666 
L 3309 4666 
L 3309 4134 
L 1259 4134 
L 1259 2759 
L 3109 2759 
L 3109 2228 
L 1259 2228 
L 1259 0 
L 628 0 
L 628 4666 
z
" transform="scale(0.015625)"/>
       <path id="DejaVuSans-6d" d="M 3328 2828 
Q 3544 3216 3844 3400 
Q 4144 3584 4550 3584 
Q 5097 3584 5394 3201 
Q 5691 2819 5691 2113 
L 5691 0 
L 5113 0 
L 5113 2094 
Q 5113 2597 4934 2840 
Q 4756 3084 4391 3084 
Q 3944 3084 3684 2787 
Q 3425 2491 3425 1978 
L 3425 0 
L 2847 0 
L 2847 2094 
Q 2847 2600 2669 2842 
Q 2491 3084 2119 3084 
Q 1678 3084 1418 2786 
Q 1159 2488 1159 1978 
L 1159 0 
L 581 0 
L 581 3500 
L 1159 3500 
L 1159 2956 
Q 1356 3278 1631 3431 
Q 1906 3584 2284 3584 
Q 2666 3584 2933 3390 
Q 3200 3197 3328 2828 
z
" transform="scale(0.015625)"/>
      </defs>
      <use xlink:href="#DejaVuSans-50"/>
      <use xlink:href="#DejaVuSans-6c" x="60.302734"/>
      <use xlink:href="#DejaVuSans-61" x="88.085938"/>
      <use xlink:href="#DejaVuSans-73" x="149.365234"/>
      <use xlink:href="#DejaVuSans-74" x="201.464844"/>
      <use xlink:href="#DejaVuSans-69" x="240.673828"/>
      <use xlink:href="#DejaVuSans-63" x="268.457031"/>
      <use xlink:href="#DejaVuSans-69" x="323.4375"/>
      <use xlink:href="#DejaVuSans-74" x="351.220703"/>
      <use xlink:href="#DejaVuSans-79" x="390.429688"/>
      <use xlink:href="#DejaVuSans-20" x="449.609375"/>
      <use xlink:href="#DejaVuSans-46" x="481.396484"/>
      <use xlink:href="#DejaVuSans-61" x="529.791016"/>
      <use xlink:href="#DejaVuSans-6d" x="591.070312"/>
      <use xlink:href="#DejaVuSans-69" x="688.482422"/>
      <use xlink:href="#DejaVuSans-6c" x="716.265625"/>
      <use xlink:href="#DejaVuSans-79" x="744.048828"/>
     </g>
    </g>
    <g id="patch_20">
     <path d="M 62.57216 56.460316 
L 82.57216 56.460316 
L 82.57216 49.460316 
L 62.57216 49.460316 
z
" style="fill: #3274a1; fill-opacity: 0.8; stroke: #3f3f3f; stroke-width: 0.75; stroke-linejoin: miter"/>
    </g>
    <g id="text_13">
     <!-- 4 -->
     <g style="fill: #262626" transform="translate(90.57216 56.460316) scale(0.1 -0.1)">
      <defs>
       <path id="DejaVuSans-34" d="M 2419 4116 
L 825 1625 
L 2419 1625 
L 2419 4116 
z
M 2253 4666 
L 3047 4666 
L 3047 1625 
L 3713 1625 
L 3713 1100 
L 3047 1100 
L 3047 0 
L 2419 0 
L 2419 1100 
L 313 1100 
L 313 1709 
L 2253 4666 
z
" transform="scale(0.015625)"/>
      </defs>
      <use xlink:href="#DejaVuSans-34"/>
     </g>
    </g>
    <g id="patch_21">
     <path d="M 62.57216 71.138441 
L 82.57216 71.138441 
L 82.57216 64.138441 
L 62.57216 64.138441 
z
" style="fill: #e1812c; fill-opacity: 0.8; stroke: #3f3f3f; stroke-width: 0.75; stroke-linejoin: miter"/>
    </g>
    <g id="text_14">
     <!-- 5 -->
     <g style="fill: #262626" transform="translate(90.57216 71.138441) scale(0.1 -0.1)">
      <use xlink:href="#DejaVuSans-35"/>
     </g>
    </g>
   </g>
  </g>
  <g id="axes_2">
   <g id="patch_22">
    <path d="M 406.961111 224 
L 609.227778 224 
L 609.227778 26.8 
L 406.961111 26.8 
z
" style="fill: #ffffff"/>
   </g>
   <g id="patch_23">
    <path d="M 432.244444 193.837774 
L 482.811111 193.837774 
L 482.811111 120.438775 
L 432.244444 120.438775 
L 432.244444 193.837774 
z
" clip-path="url(#p290e9ae83f)" style="fill: #3274a1; fill-opacity: 0.6; stroke: #3f3f3f; stroke-width: 1.5; stroke-linejoin: miter"/>
   </g>
   <g id="patch_24">
    <path d="M 533.377778 174.182983 
L 583.944444 174.182983 
L 583.944444 80.08625 
L 533.377778 80.08625 
L 533.377778 174.182983 
z
" clip-path="url(#p290e9ae83f)" style="fill: #e1812c; fill-opacity: 0.6; stroke: #3f3f3f; stroke-width: 1.5; stroke-linejoin: miter"/>
   </g>
   <g id="PathCollection_1"/>
   <g id="PathCollection_2"/>
   <g id="PathCollection_3"/>
   <g id="PathCollection_4"/>
   <g id="PathCollection_5"/>
   <g id="PathCollection_6"/>
   <g id="matplotlib.axis_3">
    <g id="xtick_6">
     <g id="line2d_72">
      <g>
       <use xlink:href="#m2e82465fa3" x="457.527778" y="224" style="stroke: #000000; stroke-width: 0.8"/>
      </g>
     </g>
     <g id="text_15">
      <!-- No -->
      <g transform="translate(448.007778 241.637812) scale(0.14 -0.14)">
       <defs>
        <path id="DejaVuSans-4e" d="M 628 4666 
L 1478 4666 
L 3547 763 
L 3547 4666 
L 4159 4666 
L 4159 0 
L 3309 0 
L 1241 3903 
L 1241 0 
L 628 0 
L 628 4666 
z
" transform="scale(0.015625)"/>
        <path id="DejaVuSans-6f" d="M 1959 3097 
Q 1497 3097 1228 2736 
Q 959 2375 959 1747 
Q 959 1119 1226 758 
Q 1494 397 1959 397 
Q 2419 397 2687 759 
Q 2956 1122 2956 1747 
Q 2956 2369 2687 2733 
Q 2419 3097 1959 3097 
z
M 1959 3584 
Q 2709 3584 3137 3096 
Q 3566 2609 3566 1747 
Q 3566 888 3137 398 
Q 2709 -91 1959 -91 
Q 1206 -91 779 398 
Q 353 888 353 1747 
Q 353 2609 779 3096 
Q 1206 3584 1959 3584 
z
" transform="scale(0.015625)"/>
       </defs>
       <use xlink:href="#DejaVuSans-4e"/>
       <use xlink:href="#DejaVuSans-6f" x="74.804688"/>
      </g>
      <!-- W Term -->
      <g transform="translate(431.41559 257.31475) scale(0.14 -0.14)">
       <defs>
        <path id="DejaVuSans-57" d="M 213 4666 
L 850 4666 
L 1831 722 
L 2809 4666 
L 3519 4666 
L 4500 722 
L 5478 4666 
L 6119 4666 
L 4947 0 
L 4153 0 
L 3169 4050 
L 2175 0 
L 1381 0 
L 213 4666 
z
" transform="scale(0.015625)"/>
        <path id="DejaVuSans-54" d="M -19 4666 
L 3928 4666 
L 3928 4134 
L 2272 4134 
L 2272 0 
L 1638 0 
L 1638 4134 
L -19 4134 
L -19 4666 
z
" transform="scale(0.015625)"/>
        <path id="DejaVuSans-65" d="M 3597 1894 
L 3597 1613 
L 953 1613 
Q 991 1019 1311 708 
Q 1631 397 2203 397 
Q 2534 397 2845 478 
Q 3156 559 3463 722 
L 3463 178 
Q 3153 47 2828 -22 
Q 2503 -91 2169 -91 
Q 1331 -91 842 396 
Q 353 884 353 1716 
Q 353 2575 817 3079 
Q 1281 3584 2069 3584 
Q 2775 3584 3186 3129 
Q 3597 2675 3597 1894 
z
M 3022 2063 
Q 3016 2534 2758 2815 
Q 2500 3097 2075 3097 
Q 1594 3097 1305 2825 
Q 1016 2553 972 2059 
L 3022 2063 
z
" transform="scale(0.015625)"/>
        <path id="DejaVuSans-72" d="M 2631 2963 
Q 2534 3019 2420 3045 
Q 2306 3072 2169 3072 
Q 1681 3072 1420 2755 
Q 1159 2438 1159 1844 
L 1159 0 
L 581 0 
L 581 3500 
L 1159 3500 
L 1159 2956 
Q 1341 3275 1631 3429 
Q 1922 3584 2338 3584 
Q 2397 3584 2469 3576 
Q 2541 3569 2628 3553 
L 2631 2963 
z
" transform="scale(0.015625)"/>
       </defs>
       <use xlink:href="#DejaVuSans-57"/>
       <use xlink:href="#DejaVuSans-20" x="98.876953"/>
       <use xlink:href="#DejaVuSans-54" x="130.664062"/>
       <use xlink:href="#DejaVuSans-65" x="174.748047"/>
       <use xlink:href="#DejaVuSans-72" x="236.271484"/>
       <use xlink:href="#DejaVuSans-6d" x="275.634766"/>
      </g>
     </g>
    </g>
    <g id="xtick_7">
     <g id="line2d_73">
      <g>
       <use xlink:href="#m2e82465fa3" x="558.661111" y="224" style="stroke: #000000; stroke-width: 0.8"/>
      </g>
     </g>
     <g id="text_16">
      <!-- Learnable -->
      <g transform="translate(524.109549 241.637812) scale(0.14 -0.14)">
       <defs>
        <path id="DejaVuSans-4c" d="M 628 4666 
L 1259 4666 
L 1259 531 
L 3531 531 
L 3531 0 
L 628 0 
L 628 4666 
z
" transform="scale(0.015625)"/>
        <path id="DejaVuSans-6e" d="M 3513 2113 
L 3513 0 
L 2938 0 
L 2938 2094 
Q 2938 2591 2744 2837 
Q 2550 3084 2163 3084 
Q 1697 3084 1428 2787 
Q 1159 2491 1159 1978 
L 1159 0 
L 581 0 
L 581 3500 
L 1159 3500 
L 1159 2956 
Q 1366 3272 1645 3428 
Q 1925 3584 2291 3584 
Q 2894 3584 3203 3211 
Q 3513 2838 3513 2113 
z
" transform="scale(0.015625)"/>
        <path id="DejaVuSans-62" d="M 3116 1747 
Q 3116 2381 2855 2742 
Q 2594 3103 2138 3103 
Q 1681 3103 1420 2742 
Q 1159 2381 1159 1747 
Q 1159 1113 1420 752 
Q 1681 391 2138 391 
Q 2594 391 2855 752 
Q 3116 1113 3116 1747 
z
M 1159 2969 
Q 1341 3281 1617 3432 
Q 1894 3584 2278 3584 
Q 2916 3584 3314 3078 
Q 3713 2572 3713 1747 
Q 3713 922 3314 415 
Q 2916 -91 2278 -91 
Q 1894 -91 1617 61 
Q 1341 213 1159 525 
L 1159 0 
L 581 0 
L 581 4863 
L 1159 4863 
L 1159 2969 
z
" transform="scale(0.015625)"/>
       </defs>
       <use xlink:href="#DejaVuSans-4c"/>
       <use xlink:href="#DejaVuSans-65" x="53.962891"/>
       <use xlink:href="#DejaVuSans-61" x="115.486328"/>
       <use xlink:href="#DejaVuSans-72" x="176.765625"/>
       <use xlink:href="#DejaVuSans-6e" x="216.128906"/>
       <use xlink:href="#DejaVuSans-61" x="279.507812"/>
       <use xlink:href="#DejaVuSans-62" x="340.787109"/>
       <use xlink:href="#DejaVuSans-6c" x="404.263672"/>
       <use xlink:href="#DejaVuSans-65" x="432.046875"/>
      </g>
      <!-- W Term -->
      <g transform="translate(532.548924 257.31475) scale(0.14 -0.14)">
       <use xlink:href="#DejaVuSans-57"/>
       <use xlink:href="#DejaVuSans-20" x="98.876953"/>
       <use xlink:href="#DejaVuSans-54" x="130.664062"/>
       <use xlink:href="#DejaVuSans-65" x="174.748047"/>
       <use xlink:href="#DejaVuSans-72" x="236.271484"/>
       <use xlink:href="#DejaVuSans-6d" x="275.634766"/>
      </g>
     </g>
    </g>
    <g id="text_17">
     <!-- Plasticity Family -->
     <g transform="translate(455.886241 274.104281) scale(0.13 -0.13)">
      <defs>
       <path id="DejaVuSans-ExtraLight-46" d="M 781 4666 
L 3147 4666 
L 3147 4406 
L 1097 4406 
L 1097 2616 
L 2947 2616 
L 2947 2363 
L 1097 2363 
L 1097 0 
L 781 0 
L 781 4666 
z
" transform="scale(0.015625)"/>
       <path id="DejaVuSans-ExtraLight-6d" d="M 3244 2738 
Q 3406 3159 3756 3375 
Q 4088 3584 4544 3584 
Q 5000 3584 5275 3263 
Q 5553 2944 5553 2113 
L 5553 0 
L 5269 0 
L 5269 2094 
Q 5269 2819 5069 3075 
Q 4869 3331 4538 3331 
Q 4056 3331 3688 3034 
Q 3284 2713 3284 1978 
L 3284 0 
L 2997 0 
L 2997 2094 
Q 2997 2794 2803 3062 
Q 2609 3331 2266 3331 
Q 1784 3331 1416 3031 
Q 1013 2709 1013 1978 
L 1013 0 
L 725 0 
L 725 3500 
L 1013 3500 
L 1013 2844 
Q 1166 3188 1488 3388 
Q 1813 3584 2284 3584 
Q 2591 3584 2875 3378 
Q 3094 3219 3244 2738 
z
" transform="scale(0.015625)"/>
      </defs>
      <use xlink:href="#DejaVuSans-ExtraLight-50"/>
      <use xlink:href="#DejaVuSans-ExtraLight-6c" x="60.302734"/>
      <use xlink:href="#DejaVuSans-ExtraLight-61" x="88.085938"/>
      <use xlink:href="#DejaVuSans-ExtraLight-73" x="149.365234"/>
      <use xlink:href="#DejaVuSans-ExtraLight-74" x="201.464844"/>
      <use xlink:href="#DejaVuSans-ExtraLight-69" x="240.673828"/>
      <use xlink:href="#DejaVuSans-ExtraLight-63" x="268.457031"/>
      <use xlink:href="#DejaVuSans-ExtraLight-69" x="323.4375"/>
      <use xlink:href="#DejaVuSans-ExtraLight-74" x="351.220703"/>
      <use xlink:href="#DejaVuSans-ExtraLight-79" x="390.429688"/>
      <use xlink:href="#DejaVuSans-ExtraLight-20" x="449.609375"/>
      <use xlink:href="#DejaVuSans-ExtraLight-46" x="481.396484"/>
      <use xlink:href="#DejaVuSans-ExtraLight-61" x="529.791016"/>
      <use xlink:href="#DejaVuSans-ExtraLight-6d" x="591.070312"/>
      <use xlink:href="#DejaVuSans-ExtraLight-69" x="688.482422"/>
      <use xlink:href="#DejaVuSans-ExtraLight-6c" x="716.265625"/>
      <use xlink:href="#DejaVuSans-ExtraLight-79" x="744.048828"/>
     </g>
    </g>
   </g>
   <g id="matplotlib.axis_4">
    <g id="ytick_6">
     <g id="line2d_74">
      <g>
       <use xlink:href="#m7b109a4725" x="406.961111" y="216.16609" style="stroke: #000000; stroke-width: 0.8"/>
      </g>
     </g>
     <g id="text_18">
      <!-- 2 -->
      <g transform="translate(393.598611 219.965309) scale(0.1 -0.1)">
       <defs>
        <path id="DejaVuSans-32" d="M 1228 531 
L 3431 531 
L 3431 0 
L 469 0 
L 469 531 
Q 828 903 1448 1529 
Q 2069 2156 2228 2338 
Q 2531 2678 2651 2914 
Q 2772 3150 2772 3378 
Q 2772 3750 2511 3984 
Q 2250 4219 1831 4219 
Q 1534 4219 1204 4116 
Q 875 4013 500 3803 
L 500 4441 
Q 881 4594 1212 4672 
Q 1544 4750 1819 4750 
Q 2544 4750 2975 4387 
Q 3406 4025 3406 3419 
Q 3406 3131 3298 2873 
Q 3191 2616 2906 2266 
Q 2828 2175 2409 1742 
Q 1991 1309 1228 531 
z
" transform="scale(0.015625)"/>
       </defs>
       <use xlink:href="#DejaVuSans-32"/>
      </g>
     </g>
    </g>
    <g id="ytick_7">
     <g id="line2d_75">
      <g>
       <use xlink:href="#m7b109a4725" x="406.961111" y="186.476461" style="stroke: #000000; stroke-width: 0.8"/>
      </g>
     </g>
     <g id="text_19">
      <!-- 4 -->
      <g transform="translate(393.598611 190.275679) scale(0.1 -0.1)">
       <use xlink:href="#DejaVuSans-34"/>
      </g>
     </g>
    </g>
    <g id="ytick_8">
     <g id="line2d_76">
      <g>
       <use xlink:href="#m7b109a4725" x="406.961111" y="156.786831" style="stroke: #000000; stroke-width: 0.8"/>
      </g>
     </g>
     <g id="text_20">
      <!-- 6 -->
      <g transform="translate(393.598611 160.58605) scale(0.1 -0.1)">
       <defs>
        <path id="DejaVuSans-36" d="M 2113 2584 
Q 1688 2584 1439 2293 
Q 1191 2003 1191 1497 
Q 1191 994 1439 701 
Q 1688 409 2113 409 
Q 2538 409 2786 701 
Q 3034 994 3034 1497 
Q 3034 2003 2786 2293 
Q 2538 2584 2113 2584 
z
M 3366 4563 
L 3366 3988 
Q 3128 4100 2886 4159 
Q 2644 4219 2406 4219 
Q 1781 4219 1451 3797 
Q 1122 3375 1075 2522 
Q 1259 2794 1537 2939 
Q 1816 3084 2150 3084 
Q 2853 3084 3261 2657 
Q 3669 2231 3669 1497 
Q 3669 778 3244 343 
Q 2819 -91 2113 -91 
Q 1303 -91 875 529 
Q 447 1150 447 2328 
Q 447 3434 972 4092 
Q 1497 4750 2381 4750 
Q 2619 4750 2861 4703 
Q 3103 4656 3366 4563 
z
" transform="scale(0.015625)"/>
       </defs>
       <use xlink:href="#DejaVuSans-36"/>
      </g>
     </g>
    </g>
    <g id="ytick_9">
     <g id="line2d_77">
      <g>
       <use xlink:href="#m7b109a4725" x="406.961111" y="127.097202" style="stroke: #000000; stroke-width: 0.8"/>
      </g>
     </g>
     <g id="text_21">
      <!-- 8 -->
      <g transform="translate(393.598611 130.896421) scale(0.1 -0.1)">
       <defs>
        <path id="DejaVuSans-38" d="M 2034 2216 
Q 1584 2216 1326 1975 
Q 1069 1734 1069 1313 
Q 1069 891 1326 650 
Q 1584 409 2034 409 
Q 2484 409 2743 651 
Q 3003 894 3003 1313 
Q 3003 1734 2745 1975 
Q 2488 2216 2034 2216 
z
M 1403 2484 
Q 997 2584 770 2862 
Q 544 3141 544 3541 
Q 544 4100 942 4425 
Q 1341 4750 2034 4750 
Q 2731 4750 3128 4425 
Q 3525 4100 3525 3541 
Q 3525 3141 3298 2862 
Q 3072 2584 2669 2484 
Q 3125 2378 3379 2068 
Q 3634 1759 3634 1313 
Q 3634 634 3220 271 
Q 2806 -91 2034 -91 
Q 1263 -91 848 271 
Q 434 634 434 1313 
Q 434 1759 690 2068 
Q 947 2378 1403 2484 
z
M 1172 3481 
Q 1172 3119 1398 2916 
Q 1625 2713 2034 2713 
Q 2441 2713 2670 2916 
Q 2900 3119 2900 3481 
Q 2900 3844 2670 4047 
Q 2441 4250 2034 4250 
Q 1625 4250 1398 4047 
Q 1172 3844 1172 3481 
z
" transform="scale(0.015625)"/>
       </defs>
       <use xlink:href="#DejaVuSans-38"/>
      </g>
     </g>
    </g>
    <g id="ytick_10">
     <g id="line2d_78">
      <g>
       <use xlink:href="#m7b109a4725" x="406.961111" y="97.407573" style="stroke: #000000; stroke-width: 0.8"/>
      </g>
     </g>
     <g id="text_22">
      <!-- 10 -->
      <g transform="translate(387.236111 101.206791) scale(0.1 -0.1)">
       <use xlink:href="#DejaVuSans-31"/>
       <use xlink:href="#DejaVuSans-30" x="63.623047"/>
      </g>
     </g>
    </g>
    <g id="ytick_11">
     <g id="line2d_79">
      <g>
       <use xlink:href="#m7b109a4725" x="406.961111" y="67.717943" style="stroke: #000000; stroke-width: 0.8"/>
      </g>
     </g>
     <g id="text_23">
      <!-- 12 -->
      <g transform="translate(387.236111 71.517162) scale(0.1 -0.1)">
       <use xlink:href="#DejaVuSans-31"/>
       <use xlink:href="#DejaVuSans-32" x="63.623047"/>
      </g>
     </g>
    </g>
    <g id="ytick_12">
     <g id="line2d_80">
      <g>
       <use xlink:href="#m7b109a4725" x="406.961111" y="38.028314" style="stroke: #000000; stroke-width: 0.8"/>
      </g>
     </g>
     <g id="text_24">
      <!-- 14 -->
      <g transform="translate(387.236111 41.827533) scale(0.1 -0.1)">
       <use xlink:href="#DejaVuSans-31"/>
       <use xlink:href="#DejaVuSans-34" x="63.623047"/>
      </g>
     </g>
    </g>
   </g>
   <g id="line2d_81">
    <path d="M 457.527778 193.837774 
L 457.527778 215.036364 
" clip-path="url(#p290e9ae83f)" style="fill: none; stroke: #3f3f3f; stroke-width: 1.5; stroke-linecap: round"/>
   </g>
   <g id="line2d_82">
    <path d="M 457.527778 120.438775 
L 457.527778 35.763636 
" clip-path="url(#p290e9ae83f)" style="fill: none; stroke: #3f3f3f; stroke-width: 1.5; stroke-linecap: round"/>
   </g>
   <g id="line2d_83">
    <path d="M 444.886111 215.036364 
L 470.169444 215.036364 
" clip-path="url(#p290e9ae83f)" style="fill: none; stroke: #3f3f3f; stroke-width: 1.5; stroke-linecap: round"/>
   </g>
   <g id="line2d_84">
    <path d="M 444.886111 35.763636 
L 470.169444 35.763636 
" clip-path="url(#p290e9ae83f)" style="fill: none; stroke: #3f3f3f; stroke-width: 1.5; stroke-linecap: round"/>
   </g>
   <g id="line2d_85"/>
   <g id="line2d_86">
    <path d="M 558.661111 174.182983 
L 558.661111 209.142687 
" clip-path="url(#p290e9ae83f)" style="fill: none; stroke: #3f3f3f; stroke-width: 1.5; stroke-linecap: round"/>
   </g>
   <g id="line2d_87">
    <path d="M 558.661111 80.08625 
L 558.661111 38.549194 
" clip-path="url(#p290e9ae83f)" style="fill: none; stroke: #3f3f3f; stroke-width: 1.5; stroke-linecap: round"/>
   </g>
   <g id="line2d_88">
    <path d="M 546.019444 209.142687 
L 571.302778 209.142687 
" clip-path="url(#p290e9ae83f)" style="fill: none; stroke: #3f3f3f; stroke-width: 1.5; stroke-linecap: round"/>
   </g>
   <g id="line2d_89">
    <path d="M 546.019444 38.549194 
L 571.302778 38.549194 
" clip-path="url(#p290e9ae83f)" style="fill: none; stroke: #3f3f3f; stroke-width: 1.5; stroke-linecap: round"/>
   </g>
   <g id="line2d_90"/>
   <g id="line2d_91">
    <path d="M 432.244444 159.018958 
L 482.811111 159.018958 
" clip-path="url(#p290e9ae83f)" style="fill: none; stroke: #3f3f3f; stroke-width: 1.5; stroke-linecap: round"/>
   </g>
   <g id="line2d_92">
    <path d="M 533.377778 140.991152 
L 583.944444 140.991152 
" clip-path="url(#p290e9ae83f)" style="fill: none; stroke: #3f3f3f; stroke-width: 1.5; stroke-linecap: round"/>
   </g>
   <g id="patch_25">
    <path d="M 406.961111 224 
L 406.961111 26.8 
" style="fill: none; stroke: #000000; stroke-width: 0.8; stroke-linejoin: miter; stroke-linecap: square"/>
   </g>
   <g id="patch_26">
    <path d="M 609.227778 224 
L 609.227778 26.8 
" style="fill: none; stroke: #000000; stroke-width: 0.8; stroke-linejoin: miter; stroke-linecap: square"/>
   </g>
   <g id="patch_27">
    <path d="M 406.961111 224 
L 609.227778 224 
" style="fill: none; stroke: #000000; stroke-width: 0.8; stroke-linejoin: miter; stroke-linecap: square"/>
   </g>
   <g id="patch_28">
    <path d="M 406.961111 26.8 
L 609.227778 26.8 
" style="fill: none; stroke: #000000; stroke-width: 0.8; stroke-linejoin: miter; stroke-linecap: square"/>
   </g>
   <g id="PathCollection_7">
    <defs>
     <path id="C0_0_e7b943d5c1" d="M 0 3.75 
C 0.994512 3.75 1.948425 3.354876 2.65165 2.65165 
C 3.354876 1.948425 3.75 0.994512 3.75 -0 
C 3.75 -0.994512 3.354876 -1.948425 2.65165 -2.65165 
C 1.948425 -3.354876 0.994512 -3.75 0 -3.75 
C -0.994512 -3.75 -1.948425 -3.354876 -2.65165 -2.65165 
C -3.354876 -1.948425 -3.75 -0.994512 -3.75 0 
C -3.75 0.994512 -3.354876 1.948425 -2.65165 2.65165 
C -1.948425 3.354876 -0.994512 3.75 0 3.75 
z
"/>
    </defs>
    <g clip-path="url(#p290e9ae83f)">
     <use xlink:href="#C0_0_e7b943d5c1" x="451.774957" y="193.416994" style="fill: #edd1cb"/>
    </g>
    <g clip-path="url(#p290e9ae83f)">
     <use xlink:href="#C0_0_e7b943d5c1" x="448.404281" y="193.978034" style="fill: #a3628c"/>
    </g>
    <g clip-path="url(#p290e9ae83f)">
     <use xlink:href="#C0_0_e7b943d5c1" x="466.422418" y="215.036364" style="fill: #965886"/>
    </g>
    <g clip-path="url(#p290e9ae83f)">
     <use xlink:href="#C0_0_e7b943d5c1" x="448.404597" y="207.826683" style="fill: #884f7f"/>
    </g>
    <g clip-path="url(#p290e9ae83f)">
     <use xlink:href="#C0_0_e7b943d5c1" x="456.682012" y="35.763636" style="fill: #794678"/>
    </g>
    <g clip-path="url(#p290e9ae83f)">
     <use xlink:href="#C0_0_e7b943d5c1" x="456.884955" y="154.250357" style="fill: #693d6f"/>
    </g>
    <g clip-path="url(#p290e9ae83f)">
     <use xlink:href="#C0_0_e7b943d5c1" x="456.642306" y="97.560254" style="fill: #5b3665"/>
    </g>
    <g clip-path="url(#p290e9ae83f)">
     <use xlink:href="#C0_0_e7b943d5c1" x="454.445531" y="162.583969" style="fill: #4b2e59"/>
    </g>
    <g clip-path="url(#p290e9ae83f)">
     <use xlink:href="#C0_0_e7b943d5c1" x="453.021224" y="139.934394" style="fill: #3b264b"/>
    </g>
    <g clip-path="url(#p290e9ae83f)">
     <use xlink:href="#C0_0_e7b943d5c1" x="455.283505" y="81.108139" style="fill: #2d1e3e"/>
    </g>
    <g clip-path="url(#p290e9ae83f)">
     <use xlink:href="#C0_0_e7b943d5c1" x="449.9138" y="148.466741" style="fill: #e9c4c1"/>
    </g>
    <g clip-path="url(#p290e9ae83f)">
     <use xlink:href="#C0_0_e7b943d5c1" x="447.658765" y="186.348149" style="fill: #e3b6b7"/>
    </g>
    <g clip-path="url(#p290e9ae83f)">
     <use xlink:href="#C0_0_e7b943d5c1" x="450.754634" y="113.940236" style="fill: #dda9af"/>
    </g>
    <g clip-path="url(#p290e9ae83f)">
     <use xlink:href="#C0_0_e7b943d5c1" x="456.200201" y="180.896502" style="fill: #d69ca8"/>
    </g>
    <g clip-path="url(#p290e9ae83f)">
     <use xlink:href="#C0_0_e7b943d5c1" x="453.501059" y="209.469086" style="fill: #ce8fa2"/>
    </g>
    <g clip-path="url(#p290e9ae83f)">
     <use xlink:href="#C0_0_e7b943d5c1" x="457.172576" y="155.453947" style="fill: #c5849d"/>
    </g>
    <g clip-path="url(#p290e9ae83f)">
     <use xlink:href="#C0_0_e7b943d5c1" x="463.042301" y="96.484877" style="fill: #bb7797"/>
    </g>
    <g clip-path="url(#p290e9ae83f)">
     <use xlink:href="#C0_0_e7b943d5c1" x="459.111934" y="198.550197" style="fill: #b06d92"/>
    </g>
   </g>
   <g id="PathCollection_8">
    <defs>
     <path id="C1_0_478694a3f7" d="M 0 3.75 
C 0.994512 3.75 1.948425 3.354876 2.65165 2.65165 
C 3.354876 1.948425 3.75 0.994512 3.75 -0 
C 3.75 -0.994512 3.354876 -1.948425 2.65165 -2.65165 
C 1.948425 -3.354876 0.994512 -3.75 0 -3.75 
C -0.994512 -3.75 -1.948425 -3.354876 -2.65165 -2.65165 
C -3.354876 -1.948425 -3.75 -0.994512 -3.75 0 
C -3.75 0.994512 -3.354876 1.948425 -2.65165 2.65165 
C -1.948425 3.354876 -0.994512 3.75 0 3.75 
z
"/>
    </defs>
    <g clip-path="url(#p290e9ae83f)">
     <use xlink:href="#C1_0_478694a3f7" x="550.086926" y="175.136936" style="fill: #edd1cb"/>
    </g>
    <g clip-path="url(#p290e9ae83f)">
     <use xlink:href="#C1_0_478694a3f7" x="564.333242" y="179.205338" style="fill: #a3628c"/>
    </g>
    <g clip-path="url(#p290e9ae83f)">
     <use xlink:href="#C1_0_478694a3f7" x="561.072827" y="209.142687" style="fill: #965886"/>
    </g>
    <g clip-path="url(#p290e9ae83f)">
     <use xlink:href="#C1_0_478694a3f7" x="559.668277" y="171.321125" style="fill: #884f7f"/>
    </g>
    <g clip-path="url(#p290e9ae83f)">
     <use xlink:href="#C1_0_478694a3f7" x="565.857435" y="38.549194" style="fill: #794678"/>
    </g>
    <g clip-path="url(#p290e9ae83f)">
     <use xlink:href="#C1_0_478694a3f7" x="558.528622" y="136.433526" style="fill: #693d6f"/>
    </g>
    <g clip-path="url(#p290e9ae83f)">
     <use xlink:href="#C1_0_478694a3f7" x="559.964983" y="51.486999" style="fill: #5b3665"/>
    </g>
    <g clip-path="url(#p290e9ae83f)">
     <use xlink:href="#C1_0_478694a3f7" x="555.42179" y="137.598107" style="fill: #4b2e59"/>
    </g>
    <g clip-path="url(#p290e9ae83f)">
     <use xlink:href="#C1_0_478694a3f7" x="550.639336" y="138.864715" style="fill: #3b264b"/>
    </g>
    <g clip-path="url(#p290e9ae83f)">
     <use xlink:href="#C1_0_478694a3f7" x="554.317266" y="51.253308" style="fill: #2d1e3e"/>
    </g>
    <g clip-path="url(#p290e9ae83f)">
     <use xlink:href="#C1_0_478694a3f7" x="566.620824" y="50.690087" style="fill: #e9c4c1"/>
    </g>
    <g clip-path="url(#p290e9ae83f)">
     <use xlink:href="#C1_0_478694a3f7" x="568.31769" y="186.211737" style="fill: #e3b6b7"/>
    </g>
    <g clip-path="url(#p290e9ae83f)">
     <use xlink:href="#C1_0_478694a3f7" x="551.858902" y="111.488025" style="fill: #dda9af"/>
    </g>
    <g clip-path="url(#p290e9ae83f)">
     <use xlink:href="#C1_0_478694a3f7" x="551.021091" y="175.478519" style="fill: #d69ca8"/>
    </g>
    <g clip-path="url(#p290e9ae83f)">
     <use xlink:href="#C1_0_478694a3f7" x="552.471681" y="162.088817" style="fill: #ce8fa2"/>
    </g>
    <g clip-path="url(#p290e9ae83f)">
     <use xlink:href="#C1_0_478694a3f7" x="562.052729" y="143.117588" style="fill: #c5849d"/>
    </g>
    <g clip-path="url(#p290e9ae83f)">
     <use xlink:href="#C1_0_478694a3f7" x="565.396106" y="69.618992" style="fill: #bb7797"/>
    </g>
    <g clip-path="url(#p290e9ae83f)">
     <use xlink:href="#C1_0_478694a3f7" x="552.380522" y="148.197976" style="fill: #b06d92"/>
    </g>
   </g>
   <g id="text_25">
    <!-- p-value: -->
    <g style="fill: #262626" transform="translate(483.867569 43.112562) scale(0.12 -0.12)">
     <defs>
      <path id="DejaVuSans-70" d="M 1159 525 
L 1159 -1331 
L 581 -1331 
L 581 3500 
L 1159 3500 
L 1159 2969 
Q 1341 3281 1617 3432 
Q 1894 3584 2278 3584 
Q 2916 3584 3314 3078 
Q 3713 2572 3713 1747 
Q 3713 922 3314 415 
Q 2916 -91 2278 -91 
Q 1894 -91 1617 61 
Q 1341 213 1159 525 
z
M 3116 1747 
Q 3116 2381 2855 2742 
Q 2594 3103 2138 3103 
Q 1681 3103 1420 2742 
Q 1159 2381 1159 1747 
Q 1159 1113 1420 752 
Q 1681 391 2138 391 
Q 2594 391 2855 752 
Q 3116 1113 3116 1747 
z
" transform="scale(0.015625)"/>
      <path id="DejaVuSans-76" d="M 191 3500 
L 800 3500 
L 1894 563 
L 2988 3500 
L 3597 3500 
L 2284 0 
L 1503 0 
L 191 3500 
z
" transform="scale(0.015625)"/>
      <path id="DejaVuSans-75" d="M 544 1381 
L 544 3500 
L 1119 3500 
L 1119 1403 
Q 1119 906 1312 657 
Q 1506 409 1894 409 
Q 2359 409 2629 706 
Q 2900 1003 2900 1516 
L 2900 3500 
L 3475 3500 
L 3475 0 
L 2900 0 
L 2900 538 
Q 2691 219 2414 64 
Q 2138 -91 1772 -91 
Q 1169 -91 856 284 
Q 544 659 544 1381 
z
M 1991 3584 
L 1991 3584 
z
" transform="scale(0.015625)"/>
      <path id="DejaVuSans-3a" d="M 750 794 
L 1409 794 
L 1409 0 
L 750 0 
L 750 794 
z
M 750 3309 
L 1409 3309 
L 1409 2516 
L 750 2516 
L 750 3309 
z
" transform="scale(0.015625)"/>
     </defs>
     <use xlink:href="#DejaVuSans-70"/>
     <use xlink:href="#DejaVuSans-2d" x="63.476562"/>
     <use xlink:href="#DejaVuSans-76" x="96.935547"/>
     <use xlink:href="#DejaVuSans-61" x="156.115234"/>
     <use xlink:href="#DejaVuSans-6c" x="217.394531"/>
     <use xlink:href="#DejaVuSans-75" x="245.177734"/>
     <use xlink:href="#DejaVuSans-65" x="308.556641"/>
     <use xlink:href="#DejaVuSans-3a" x="370.080078"/>
    </g>
    <!-- 5e-05 -->
    <g style="fill: #262626" transform="translate(490.785382 56.549937) scale(0.12 -0.12)">
     <use xlink:href="#DejaVuSans-35"/>
     <use xlink:href="#DejaVuSans-65" x="63.623047"/>
     <use xlink:href="#DejaVuSans-2d" x="125.146484"/>
     <use xlink:href="#DejaVuSans-30" x="161.230469"/>
     <use xlink:href="#DejaVuSans-35" x="224.853516"/>
    </g>
   </g>
   <g id="text_26">
    <!-- % Deviance Explained -->
    <g transform="translate(441.113819 20.8) scale(0.12 -0.12)">
     <defs>
      <path id="DejaVuSans-25" d="M 4653 2053 
Q 4381 2053 4226 1822 
Q 4072 1591 4072 1178 
Q 4072 772 4226 539 
Q 4381 306 4653 306 
Q 4919 306 5073 539 
Q 5228 772 5228 1178 
Q 5228 1588 5073 1820 
Q 4919 2053 4653 2053 
z
M 4653 2450 
Q 5147 2450 5437 2106 
Q 5728 1763 5728 1178 
Q 5728 594 5436 251 
Q 5144 -91 4653 -91 
Q 4153 -91 3862 251 
Q 3572 594 3572 1178 
Q 3572 1766 3864 2108 
Q 4156 2450 4653 2450 
z
M 1428 4353 
Q 1159 4353 1004 4120 
Q 850 3888 850 3481 
Q 850 3069 1003 2837 
Q 1156 2606 1428 2606 
Q 1700 2606 1854 2837 
Q 2009 3069 2009 3481 
Q 2009 3884 1853 4118 
Q 1697 4353 1428 4353 
z
M 4250 4750 
L 4750 4750 
L 1831 -91 
L 1331 -91 
L 4250 4750 
z
M 1428 4750 
Q 1922 4750 2215 4408 
Q 2509 4066 2509 3481 
Q 2509 2891 2217 2550 
Q 1925 2209 1428 2209 
Q 931 2209 642 2551 
Q 353 2894 353 3481 
Q 353 4063 643 4406 
Q 934 4750 1428 4750 
z
" transform="scale(0.015625)"/>
      <path id="DejaVuSans-44" d="M 1259 4147 
L 1259 519 
L 2022 519 
Q 2988 519 3436 956 
Q 3884 1394 3884 2338 
Q 3884 3275 3436 3711 
Q 2988 4147 2022 4147 
L 1259 4147 
z
M 628 4666 
L 1925 4666 
Q 3281 4666 3915 4102 
Q 4550 3538 4550 2338 
Q 4550 1131 3912 565 
Q 3275 0 1925 0 
L 628 0 
L 628 4666 
z
" transform="scale(0.015625)"/>
      <path id="DejaVuSans-45" d="M 628 4666 
L 3578 4666 
L 3578 4134 
L 1259 4134 
L 1259 2753 
L 3481 2753 
L 3481 2222 
L 1259 2222 
L 1259 531 
L 3634 531 
L 3634 0 
L 628 0 
L 628 4666 
z
" transform="scale(0.015625)"/>
      <path id="DejaVuSans-78" d="M 3513 3500 
L 2247 1797 
L 3578 0 
L 2900 0 
L 1881 1375 
L 863 0 
L 184 0 
L 1544 1831 
L 300 3500 
L 978 3500 
L 1906 2253 
L 2834 3500 
L 3513 3500 
z
" transform="scale(0.015625)"/>
      <path id="DejaVuSans-64" d="M 2906 2969 
L 2906 4863 
L 3481 4863 
L 3481 0 
L 2906 0 
L 2906 525 
Q 2725 213 2448 61 
Q 2172 -91 1784 -91 
Q 1150 -91 751 415 
Q 353 922 353 1747 
Q 353 2572 751 3078 
Q 1150 3584 1784 3584 
Q 2172 3584 2448 3432 
Q 2725 3281 2906 2969 
z
M 947 1747 
Q 947 1113 1208 752 
Q 1469 391 1925 391 
Q 2381 391 2643 752 
Q 2906 1113 2906 1747 
Q 2906 2381 2643 2742 
Q 2381 3103 1925 3103 
Q 1469 3103 1208 2742 
Q 947 2381 947 1747 
z
" transform="scale(0.015625)"/>
     </defs>
     <use xlink:href="#DejaVuSans-25"/>
     <use xlink:href="#DejaVuSans-20" x="95.019531"/>
     <use xlink:href="#DejaVuSans-44" x="126.806641"/>
     <use xlink:href="#DejaVuSans-65" x="203.808594"/>
     <use xlink:href="#DejaVuSans-76" x="265.332031"/>
     <use xlink:href="#DejaVuSans-69" x="324.511719"/>
     <use xlink:href="#DejaVuSans-61" x="352.294922"/>
     <use xlink:href="#DejaVuSans-6e" x="413.574219"/>
     <use xlink:href="#DejaVuSans-63" x="476.953125"/>
     <use xlink:href="#DejaVuSans-65" x="531.933594"/>
     <use xlink:href="#DejaVuSans-20" x="593.457031"/>
     <use xlink:href="#DejaVuSans-45" x="625.244141"/>
     <use xlink:href="#DejaVuSans-78" x="688.427734"/>
     <use xlink:href="#DejaVuSans-70" x="747.607422"/>
     <use xlink:href="#DejaVuSans-6c" x="811.083984"/>
     <use xlink:href="#DejaVuSans-61" x="838.867188"/>
     <use xlink:href="#DejaVuSans-69" x="900.146484"/>
     <use xlink:href="#DejaVuSans-6e" x="927.929688"/>
     <use xlink:href="#DejaVuSans-65" x="991.308594"/>
     <use xlink:href="#DejaVuSans-64" x="1052.832031"/>
    </g>
   </g>
  </g>
  <g id="axes_3">
   <g id="patch_29">
    <path d="M 641.777778 224 
L 709.2 224 
L 709.2 26.8 
L 641.777778 26.8 
z
" style="fill: #ffffff"/>
   </g>
   <g id="PathCollection_9"/>
   <g id="PathCollection_10"/>
   <g id="PathCollection_11"/>
   <g id="PathCollection_12"/>
   <g id="PathCollection_13"/>
   <g id="PathCollection_14"/>
   <g id="matplotlib.axis_5">
    <g id="xtick_8">
     <g id="line2d_93">
      <g>
       <use xlink:href="#m2e82465fa3" x="675.488889" y="224" style="stroke: #000000; stroke-width: 0.8"/>
      </g>
     </g>
    </g>
    <g id="text_27">
     <!-- Flies -->
     <g transform="translate(659.61967 245.637812) scale(0.14 -0.14)">
      <use xlink:href="#DejaVuSans-46"/>
      <use xlink:href="#DejaVuSans-6c" x="57.519531"/>
      <use xlink:href="#DejaVuSans-69" x="85.302734"/>
      <use xlink:href="#DejaVuSans-65" x="113.085938"/>
      <use xlink:href="#DejaVuSans-73" x="174.609375"/>
     </g>
    </g>
   </g>
   <g id="matplotlib.axis_6">
    <g id="ytick_13">
     <g id="line2d_94">
      <g>
       <use xlink:href="#m7b109a4725" x="641.777778" y="209.914286" style="stroke: #000000; stroke-width: 0.8"/>
      </g>
     </g>
     <g id="text_28">
      <!-- 6 -->
      <g transform="translate(620.03559 213.713504) scale(0.1 -0.1)">
       <defs>
        <path id="DejaVuSans-2212" d="M 678 2272 
L 4684 2272 
L 4684 1741 
L 678 1741 
L 678 2272 
z
" transform="scale(0.015625)"/>
       </defs>
       <use xlink:href="#DejaVuSans-2212"/>
       <use xlink:href="#DejaVuSans-36" x="83.789062"/>
      </g>
     </g>
    </g>
    <g id="ytick_14">
     <g id="line2d_95">
      <g>
       <use xlink:href="#m7b109a4725" x="641.777778" y="181.742857" style="stroke: #000000; stroke-width: 0.8"/>
      </g>
     </g>
     <g id="text_29">
      <!-- 4 -->
      <g transform="translate(620.03559 185.542076) scale(0.1 -0.1)">
       <use xlink:href="#DejaVuSans-2212"/>
       <use xlink:href="#DejaVuSans-34" x="83.789062"/>
      </g>
     </g>
    </g>
    <g id="ytick_15">
     <g id="line2d_96">
      <g>
       <use xlink:href="#m7b109a4725" x="641.777778" y="153.571429" style="stroke: #000000; stroke-width: 0.8"/>
      </g>
     </g>
     <g id="text_30">
      <!-- 2 -->
      <g transform="translate(620.03559 157.370647) scale(0.1 -0.1)">
       <use xlink:href="#DejaVuSans-2212"/>
       <use xlink:href="#DejaVuSans-32" x="83.789062"/>
      </g>
     </g>
    </g>
    <g id="ytick_16">
     <g id="line2d_97">
      <g>
       <use xlink:href="#m7b109a4725" x="641.777778" y="125.4" style="stroke: #000000; stroke-width: 0.8"/>
      </g>
     </g>
     <g id="text_31">
      <!-- 0 -->
      <g transform="translate(628.415278 129.199219) scale(0.1 -0.1)">
       <use xlink:href="#DejaVuSans-30"/>
      </g>
     </g>
    </g>
    <g id="ytick_17">
     <g id="line2d_98">
      <g>
       <use xlink:href="#m7b109a4725" x="641.777778" y="97.228571" style="stroke: #000000; stroke-width: 0.8"/>
      </g>
     </g>
     <g id="text_32">
      <!-- 2 -->
      <g transform="translate(628.415278 101.02779) scale(0.1 -0.1)">
       <use xlink:href="#DejaVuSans-32"/>
      </g>
     </g>
    </g>
    <g id="ytick_18">
     <g id="line2d_99">
      <g>
       <use xlink:href="#m7b109a4725" x="641.777778" y="69.057143" style="stroke: #000000; stroke-width: 0.8"/>
      </g>
     </g>
     <g id="text_33">
      <!-- 4 -->
      <g transform="translate(628.415278 72.856362) scale(0.1 -0.1)">
       <use xlink:href="#DejaVuSans-34"/>
      </g>
     </g>
    </g>
    <g id="ytick_19">
     <g id="line2d_100">
      <g>
       <use xlink:href="#m7b109a4725" x="641.777778" y="40.885714" style="stroke: #000000; stroke-width: 0.8"/>
      </g>
     </g>
     <g id="text_34">
      <!-- 6 -->
      <g transform="translate(628.415278 44.684933) scale(0.1 -0.1)">
       <use xlink:href="#DejaVuSans-36"/>
      </g>
     </g>
    </g>
   </g>
   <g id="line2d_101">
    <path d="M 641.777778 125.4 
L 709.2 125.4 
" clip-path="url(#p9bab07619b)" style="fill: none; stroke-dasharray: 5.55,2.4; stroke-dashoffset: 0; stroke: #808080; stroke-opacity: 0.7; stroke-width: 1.5"/>
   </g>
   <g id="patch_30">
    <path d="M 641.777778 224 
L 641.777778 26.8 
" style="fill: none; stroke: #000000; stroke-width: 0.8; stroke-linejoin: miter; stroke-linecap: square"/>
   </g>
   <g id="patch_31">
    <path d="M 709.2 224 
L 709.2 26.8 
" style="fill: none; stroke: #000000; stroke-width: 0.8; stroke-linejoin: miter; stroke-linecap: square"/>
   </g>
   <g id="patch_32">
    <path d="M 641.777778 224 
L 709.2 224 
" style="fill: none; stroke: #000000; stroke-width: 0.8; stroke-linejoin: miter; stroke-linecap: square"/>
   </g>
   <g id="patch_33">
    <path d="M 641.777778 26.8 
L 709.2 26.8 
" style="fill: none; stroke: #000000; stroke-width: 0.8; stroke-linejoin: miter; stroke-linecap: square"/>
   </g>
   <g id="PathCollection_15">
    <defs>
     <path id="C2_0_0013772dd2" d="M 0 3.75 
C 0.994512 3.75 1.948425 3.354876 2.65165 2.65165 
C 3.354876 1.948425 3.75 0.994512 3.75 -0 
C 3.75 -0.994512 3.354876 -1.948425 2.65165 -2.65165 
C 1.948425 -3.354876 0.994512 -3.75 0 -3.75 
C -0.994512 -3.75 -1.948425 -3.354876 -2.65165 -2.65165 
C -3.354876 -1.948425 -3.75 -0.994512 -3.75 0 
C -3.75 0.994512 -3.354876 1.948425 -2.65165 2.65165 
C -1.948425 3.354876 -0.994512 3.75 0 3.75 
z
"/>
    </defs>
    <g clip-path="url(#p9bab07619b)">
     <use xlink:href="#C2_0_0013772dd2" x="679.272531" y="108.054706" style="fill: #edd1cb"/>
    </g>
    <g clip-path="url(#p9bab07619b)">
     <use xlink:href="#C2_0_0013772dd2" x="675.922615" y="32.623226" style="fill: #e9c4c1"/>
    </g>
    <g clip-path="url(#p9bab07619b)">
     <use xlink:href="#C2_0_0013772dd2" x="684.803654" y="125.270563" style="fill: #e3b6b7"/>
    </g>
    <g clip-path="url(#p9bab07619b)">
     <use xlink:href="#C2_0_0013772dd2" x="674.219095" y="123.073184" style="fill: #dda9af"/>
    </g>
    <g clip-path="url(#p9bab07619b)">
     <use xlink:href="#C2_0_0013772dd2" x="688.79083" y="120.259069" style="fill: #d69ca8"/>
    </g>
    <g clip-path="url(#p9bab07619b)">
     <use xlink:href="#C2_0_0013772dd2" x="686.925265" y="80.442555" style="fill: #ce8fa2"/>
    </g>
    <g clip-path="url(#p9bab07619b)">
     <use xlink:href="#C2_0_0013772dd2" x="686.92003" y="113.69447" style="fill: #c5849d"/>
    </g>
    <g clip-path="url(#p9bab07619b)">
     <use xlink:href="#C2_0_0013772dd2" x="682.911553" y="99.907922" style="fill: #bb7797"/>
    </g>
    <g clip-path="url(#p9bab07619b)">
     <use xlink:href="#C2_0_0013772dd2" x="681.649008" y="77.622577" style="fill: #b06d92"/>
    </g>
    <g clip-path="url(#p9bab07619b)">
     <use xlink:href="#C2_0_0013772dd2" x="687.986455" y="111.382716" style="fill: #a3628c"/>
    </g>
    <g clip-path="url(#p9bab07619b)">
     <use xlink:href="#C2_0_0013772dd2" x="680.367481" y="119.807701" style="fill: #965886"/>
    </g>
    <g clip-path="url(#p9bab07619b)">
     <use xlink:href="#C2_0_0013772dd2" x="672.601762" y="90.76118" style="fill: #884f7f"/>
    </g>
    <g clip-path="url(#p9bab07619b)">
     <use xlink:href="#C2_0_0013772dd2" x="664.991326" y="128.043116" style="fill: #794678"/>
    </g>
    <g clip-path="url(#p9bab07619b)">
     <use xlink:href="#C2_0_0013772dd2" x="687.28282" y="108.494245" style="fill: #693d6f"/>
    </g>
    <g clip-path="url(#p9bab07619b)">
     <use xlink:href="#C2_0_0013772dd2" x="671.969342" y="81.682735" style="fill: #5b3665"/>
    </g>
    <g clip-path="url(#p9bab07619b)">
     <use xlink:href="#C2_0_0013772dd2" x="681.88149" y="101.691809" style="fill: #4b2e59"/>
    </g>
    <g clip-path="url(#p9bab07619b)">
     <use xlink:href="#C2_0_0013772dd2" x="665.402538" y="124.38502" style="fill: #3b264b"/>
    </g>
    <g clip-path="url(#p9bab07619b)">
     <use xlink:href="#C2_0_0013772dd2" x="675.12188" y="97.071817" style="fill: #2d1e3e"/>
    </g>
   </g>
   <g id="text_35">
    <!-- $\Delta$  -->
    <g transform="translate(669.428889 20.8) scale(0.12 -0.12)">
     <defs>
      <path id="DejaVuSans-394" d="M 2188 4044 
L 906 525 
L 3472 525 
L 2188 4044 
z
M 50 0 
L 1831 4666 
L 2547 4666 
L 4325 0 
L 50 0 
z
" transform="scale(0.015625)"/>
     </defs>
     <use xlink:href="#DejaVuSans-394" transform="translate(0 0.09375)"/>
     <use xlink:href="#DejaVuSans-20" transform="translate(68.408203 0.09375)"/>
    </g>
   </g>
  </g>
 </g>
 <defs>
  <clipPath id="p50ce9799cd">
   <rect x="37.3" y="26.8" width="337.111111" height="197.2"/>
  </clipPath>
  <clipPath id="p290e9ae83f">
   <rect x="406.961111" y="26.8" width="202.266667" height="197.2"/>
  </clipPath>
  <clipPath id="p9bab07619b">
   <rect x="641.777778" y="26.8" width="67.422222" height="197.2"/>
  </clipPath>
 </defs>
</svg>
